<?xml version="1.0" standalone="no"?>
<!DOCTYPE svg PUBLIC "-//W3C//DTD SVG 1.1//EN" "http://www.w3.org/Graphics/SVG/1.1/DTD/svg11.dtd" >
<svg>
<metadata>
Created by FontForge 20090622 at Mon Nov 28 19:16:50 2016
 By deploy user
Copyright (c) 2003-2006 Peter Bilak, Typotheque V.O.F. All rights reserved.
</metadata>
<defs>
<font id="FedraSerifBPro-Book" horiz-adv-x="600" >
  <font-face 
    font-family="Fedra Serif B Pro Book"
    font-weight="400"
    font-stretch="normal"
    units-per-em="1000"
    panose-1="2 0 5 5 6 0 0 2 0 4"
    ascent="780"
    descent="-220"
    x-height="546"
    cap-height="737"
    bbox="-509 -1247 2314 1053"
    underline-thickness="50"
    underline-position="-50"
    unicode-range="U+0020-U+FE69"
  />
<missing-glyph horiz-adv-x="712" 
d="M305 375v27h27v-27h-27zM380 525v27h27v-27h-27zM305 525v27h27v-27h-27zM230 525v27h27v-27h-27zM80 0v27h27v-27h-27zM155 0v27h27v-27h-27zM230 0v27h27v-27h-27zM305 0v27h27v-27h-27zM380 0v27h27v-27h-27zM80 75v27h27v-27h-27zM80 150v27h27v-27h-27zM80 225v27
h27v-27h-27zM80 300v27h27v-27h-27zM80 375v27h27v-27h-27zM80 450v27h27v-27h-27zM80 525v27h27v-27h-27zM80 600v27h27v-27h-27zM80 675v27h27v-27h-27zM155 675v27h27v-27h-27zM230 675v27h27v-27h-27zM305 675v27h27v-27h-27zM380 675v27h27v-27h-27zM455 675v27h27v-27
h-27zM530 675v27h27v-27h-27zM530 0v27h27v-27h-27zM455 0v27h27v-27h-27zM605 0v27h27v-27h-27zM605 675v27h27v-27h-27zM305 300v27h27v-27h-27zM305 150v27h27v-27h-27zM380 375v27h27v-27h-27zM455 375v27h27v-27h-27zM455 450v27h27v-27h-27zM455 525v27h27v-27h-27z
M605 600v27h27v-27h-27zM605 525v27h27v-27h-27zM605 375v27h27v-27h-27zM605 300v27h27v-27h-27zM605 150v27h27v-27h-27zM605 75v27h27v-27h-27zM605 225v27h27v-27h-27zM605 450v27h27v-27h-27z" />
    <glyph glyph-name="f_f" unicode="ff" horiz-adv-x="782" 
d="M42 0q-4 20 -4 30l43 18q47 19 47 66l3 159v221h-80v36l80 16v65q0 103 74.5 175t165.5 72q151 0 194 -61q66 73 148 73q31 0 59.5 -5.5t53 -22t24.5 -42.5q0 -13 -5.5 -22.5t-10.5 -13.5t-18 -13q-70 66 -104 66q-66 0 -95 -42t-29 -126v-103h119v-52h-119v-221l7 -192
q0 -15 11 -17l122 -26q0 -22 -5 -38h-312q-4 20 -4 30l43 18q47 19 47 66l3 159v221h-281v-221l7 -192q0 -15 11 -17l102 -26q0 -22 -5 -38h-292zM219 546h281v92q0 41 16 80q-75 87 -135 87q-84 0 -123 -40.5t-39 -154.5v-64z" />
    <glyph glyph-name="fi" unicode="fi" horiz-adv-x="736" 
d="M42 0q-4 20 -4 30l43 18q47 19 47 66l3 159v221h-80v36l80 16v77q0 103 74.5 175t165.5 72q95 0 151 -27t56 -73q0 -23 -10 -35.5t-35 -25.5q-83 108 -152 108q-84 0 -123 -40.5t-39 -154.5v-76h267q45 7 73 7q21 0 30.5 -8t9.5 -28v-245l3 -197q0 -19 17 -22l87 -16
q0 -23 -5 -37h-274q-3 22 -3 30l53 22q12 5 21.5 22.5t10.5 31.5l3 166v222h-293v-221l7 -192q0 -15 11 -17l102 -26q0 -22 -5 -38h-292z" />
    <glyph glyph-name="fl" unicode="fl" horiz-adv-x="713" 
d="M42 0q-4 20 -4 30l43 18q47 19 47 66l3 159v221h-80v36l80 16v77q0 103 74.5 175t165.5 72q57 0 108 -12q48 6 67 6q39 0 39 -39v-552l5 -201q0 -12 2 -14.5t10 -4.5l91 -17q0 -22 -5 -36h-280q-3 25 -3 30l53 19q35 13 35 56l5 168v507q-63 37 -117 37q-84 0 -123 -40.5
t-39 -154.5v-76h120v-52h-120v-221l7 -192q0 -15 11 -17l102 -26q0 -22 -5 -38h-292z" />
    <glyph glyph-name="f_f_i" unicode="ffi" horiz-adv-x="1105" 
d="M42 0q-4 20 -4 30l43 18q47 19 47 66l3 159v221h-80v36l80 16v65q0 103 74.5 175t165.5 72q158 0 197 -66q75 78 172 78q95 0 151 -27t56 -73q0 -23 -10 -35.5t-35 -25.5q-83 108 -152 108q-84 0 -123 -40.5t-39 -154.5v-76h267q45 7 73 7q21 0 30.5 -8t9.5 -28v-245
l3 -197q0 -19 17 -22l87 -16q0 -23 -5 -37h-274q-3 22 -3 30l53 22q12 5 21.5 22.5t10.5 31.5l3 166v222h-293v-221l7 -192q0 -15 11 -17l102 -26q0 -22 -5 -38h-292q-4 20 -4 30l43 18q47 19 47 66l3 159v221h-281v-221l7 -192q0 -15 11 -17l102 -26q0 -22 -5 -38h-292z
M219 546h281v77q0 46 18 92q-73 90 -137 90q-84 0 -123 -40.5t-39 -154.5v-64z" />
    <glyph glyph-name="f_f_l" unicode="ffl" horiz-adv-x="1083" 
d="M704 0h-292q-4 20 -4 30l43 18q47 19 47 66l3 159v221h-282v-221l7 -192q0 -15 11 -17l102 -26q0 -22 -5 -38h-292q-4 20 -4 30l43 18q47 19 47 66l3 159v221h-80v36l80 16v65q0 103 75 175t166 72q148 0 198 -65q75 77 171 77q57 0 108 -12q48 6 67 6q39 0 39 -39v-552
l5 -201q0 -12 2 -14.5t10 -4.5l91 -17q0 -22 -5 -36h-280q-3 25 -3 30l53 19q35 13 35 56l5 168v507q-63 37 -117 37q-84 0 -123 -40.5t-39 -154.5v-76h120v-52h-120v-221l7 -192q0 -15 11 -17l102 -26q0 -22 -5 -38zM382 805q-84 0 -123.5 -40.5t-39.5 -154.5v-64h282v77
q0 46 18 92q-78 90 -137 90z" />
    <glyph glyph-name="f_h" unicode="fh" horiz-adv-x="1075" 
d="M42 0q-4 20 -4 30l43 18q47 19 47 66l3 159v221h-80v36l80 16v76q0 50 17.5 93t44.5 71t60 47.5t63 28t54 8.5q56 0 109 -14q35 8 69 8q39 0 39 -39v-344q105 76 206 76q44 0 75 -9.5t48.5 -24t27 -40t12 -49.5t2.5 -61v-100l3 -200q0 -11 4 -15t15 -6l71 -14
q0 -27 -4 -38h-248q-4 27 -3 34l43 19q11 5 20 25t9 34l3 161v84q0 78 -23.5 105.5t-97.5 27.5q-75 0 -163 -44v-173l3 -189q1 -18 4.5 -24t15.5 -8l93 -16q0 -25 -4 -36h-277q-3 25 -3 29l46 20q31 14 33 67l2 157v498q-46 46 -119 46q-94 0 -128 -47t-34 -177v-47h119v-52
h-119v-221l7 -192q0 -15 11 -17l102 -26q0 -22 -5 -38h-292z" />
    <glyph glyph-name="f_b" unicode="fb" horiz-adv-x="1002" 
d="M688 -7q-124 0 -193 21l5 259v507q-63 37 -119 37q-84 0 -123 -40.5t-39 -154.5v-76h120v-52h-120v-221l7 -192q0 -15 11 -17l102 -26q0 -22 -5 -38h-292q-4 20 -4 30l43 18q47 19 47 66l3 159v221h-80v36l80 16v77q0 103 74.5 175t165.5 72q63 0 110 -12q34 6 66 6
q21 0 30 -8t9 -28v-550l5 -220q52 -10 100 -10q85 0 127 62.5t42 161.5q0 230 -146 230q-50 0 -88 -11l-9 28q63 38 122 38q109 0 164 -63.5t55 -203.5q0 -129 -77 -213t-193 -84z" />
    <glyph glyph-name="f_j" unicode="fj" horiz-adv-x="706" 
d="M418 -303q-39 0 -60 8l10 59q38 -17 61 -17q51 0 67 29.5t16 97.5v620h-293v-221l7 -192q0 -15 11 -17l102 -26q0 -22 -5 -38h-292q-4 20 -4 30l43 18q47 19 47 66l3 159v221h-80v36l80 16v26q0 74 26 133t67 94t87.5 53t91.5 18q93 0 140.5 -26.5t47.5 -73.5
q0 -23 -10 -35.5t-35 -25.5q-2 3 -17 24t-24 30.5t-24.5 24.5t-32.5 22t-35 7q-95 0 -144.5 -50.5t-49.5 -173.5v-47h269q46 7 73 7q21 0 29.5 -8t8.5 -28v-245l5 -354q1 -99 -53 -160t-133 -61z" />
    <glyph glyph-name="f_k" unicode="fk" horiz-adv-x="982" 
d="M42 0q-4 20 -4 30l43 18q47 19 47 66l3 159v221h-80v36l80 16v76q0 104 73 176t177 72q43 0 101 -12q26 6 65 6q38 0 38 -39v-552l4 -163q2 -50 29 -62l38 -17q0 -20 -4 -31h-242l-4 30l54 21q16 6 25.5 26t9.5 39l3 157l1 505q-55 39 -108 39q-45 0 -73 -6.5t-52.5 -26
t-35.5 -59.5t-11 -103v-76h119v-52h-119v-221l7 -192q0 -15 11 -17l102 -26q0 -22 -5 -38h-292zM974 -11q-149 0 -228 104l-145 191l162 164q14 16 14 26q0 22 -17 28l-40 16q-1 17 2 28h195v-24l-221 -205l144 -193q56 -75 135 -110z" />
    <glyph glyph-name="f_idieresis" unicode="f&#xef;" horiz-adv-x="775" 
d="M43 0q-4 20 -4 30l43 18q47 19 47 66l3 159v221h-80v36l80 16v92q0 84 64 158t149 74q81 0 145.5 -46t64.5 -77q0 -9 -25 -35.5t-37 -26.5q-10 0 -36 26.5t-26 35.5q0 2 13 18q-49 52 -100 52q-66 0 -95 -42t-29 -126v-103h315q45 7 73 7q21 0 30.5 -8t9.5 -28v-245
l3 -197q0 -19 17 -22l87 -16q0 -23 -5 -37h-284q-3 22 -3 30l63 22q11 4 21 22t11 32l3 166v222h-341v-221l7 -192q0 -15 11 -17l122 -26q0 -22 -5 -38h-312zM701 685q-10 0 -36 26.5t-26 35.5q0 10 26.5 36t35.5 26q10 0 36.5 -26t26.5 -36q0 -8 -26 -35t-37 -27z" />
    <glyph glyph-name="f_f_j" unicode="ffj" horiz-adv-x="1075" 
d="M787 -303q-39 0 -60 8l10 59q38 -17 61 -17q51 0 67 29.5t16 97.5v620h-293v-221l7 -192q0 -15 11 -17l102 -26q0 -22 -5 -38h-292q-4 20 -4 30l43 18q47 19 47 66l3 159v221h-281v-221l7 -192q0 -15 11 -17l102 -26q0 -22 -5 -38h-292q-4 20 -4 30l43 18q47 19 47 66
l3 159v221h-80v36l80 16v65q0 103 74.5 175t165.5 72q83 0 136.5 -20.5t66.5 -57.5q40 44 93.5 67t104.5 23q93 0 140.5 -26.5t47.5 -73.5q0 -23 -10 -35.5t-35 -25.5q-2 3 -17 24t-24 30.5t-24.5 24.5t-32.5 22t-35 7q-95 0 -144.5 -50.5t-49.5 -173.5v-47h269q45 7 73 7
q21 0 29.5 -8t8.5 -28v-245l5 -354q1 -99 -53 -160t-133 -61zM219 610v-64h281v26q0 73 26 133q-78 100 -145 100q-84 0 -123 -40.5t-39 -154.5z" />
    <glyph glyph-name="f_f_b" unicode="ffb" horiz-adv-x="1372" 
d="M1058 -7q-124 0 -193 21l5 259v507q-63 37 -119 37q-84 0 -123 -40.5t-39 -154.5v-76h120v-52h-120v-221l7 -192q0 -15 11 -17l102 -26q0 -22 -5 -38h-292q-4 20 -4 30l43 18q47 19 47 66l3 159v221h-282v-221l7 -192q0 -15 11 -17l102 -26q0 -22 -5 -38h-292
q-4 20 -4 30l43 18q47 19 47 66l3 159v221h-80v36l80 16v65q0 103 75 175t166 72q158 0 197 -66q75 78 172 78q63 0 110 -12q35 6 66 6q21 0 30 -8t9 -28v-550l5 -220q52 -10 100 -10q85 0 127 62.5t42 161.5q0 230 -146 230q-50 0 -88 -11l-9 28q63 38 122 38
q109 0 164 -63.5t55 -203.5q0 -129 -77 -213t-193 -84zM219 546h282v77q0 46 18 92q-73 90 -137 90q-84 0 -123.5 -40.5t-39.5 -154.5v-64z" />
    <glyph glyph-name="f_f_h" unicode="ffh" horiz-adv-x="1455" 
d="M42 0q-4 20 -4 30l43 18q47 19 47 66l3 159v221h-80v36l80 16v76q0 91 73 163.5t171 72.5q142 0 200 -72q78 84 186 84q55 0 100 -12q26 6 67 6q39 0 39 -39v-344q105 76 206 76q44 0 75 -9.5t48.5 -24t27 -40t12 -49.5t2.5 -61v-100l3 -200q0 -11 4 -15t15 -6l71 -14
q0 -27 -4 -38h-248q-4 27 -3 34l43 19q11 5 20 25t9 34l3 161v84q0 78 -23.5 105.5t-97.5 27.5q-75 0 -163 -44v-173l3 -189q1 -18 4.5 -24t15.5 -8l93 -16q0 -25 -4 -36h-277q-3 25 -3 29l46 20q31 14 33 67l2 157v507q-15 14 -49.5 25.5t-69.5 11.5q-89 0 -125.5 -48.5
t-36.5 -175.5v-47h119v-52h-119v-221l7 -192q0 -15 11 -17l102 -26q0 -22 -5 -38h-292q-4 20 -4 30l43 18q47 19 47 66l3 159v221h-292v-221l7 -192q0 -15 11 -17l102 -26q0 -22 -5 -38h-292zM219 546h292v76q0 45 14 84q-85 99 -138 99q-23 0 -39.5 -1.5t-38 -7t-36 -18
t-28 -32t-20 -51t-6.5 -73.5v-76z" />
    <glyph glyph-name="f_f_k" unicode="ffk" horiz-adv-x="1363" 
d="M42 0q-4 20 -4 30l43 18q47 19 47 66l3 159v221h-80v36l80 16v76q0 91 73 163.5t171 72.5q143 0 200 -71q73 83 188 83q52 0 97 -12q26 6 66 6q39 0 39 -39v-552l4 -163q2 -50 29 -62l38 -17q0 -20 -4 -31h-241l-4 30l54 21q16 6 25 26t9 39l3 157v507q-60 37 -112 37
q-90 0 -128.5 -41t-38.5 -154v-76h119v-52h-119v-221l7 -192q0 -15 11 -17l102 -26q0 -22 -5 -38h-292q-4 20 -4 30l43 18q47 19 47 66l3 159v221h-292v-221l7 -192q0 -15 11 -17l102 -26q0 -22 -5 -38h-292zM219 546h292v76q0 43 15 83q-85 100 -139 100q-168 0 -168 -183
v-76zM1354 -11q-149 0 -228 104l-145 191l162 164q14 16 14 26q0 22 -17 28l-40 16q-1 17 2 28h195v-24l-221 -205l144 -193q56 -75 135 -110z" />
    <glyph glyph-name="aogonek_j" unicode="&#x105;j" horiz-adv-x="941" 
d="M523 -296q-91 0 -137.5 31t-46.5 110q0 75 92 149q-23 0 -38 7.5t-21.5 21.5t-8.5 25.5t-2 30.5q-15 -16 -35.5 -32.5t-65 -35.5t-88.5 -19q-57 0 -94.5 33t-37.5 94q0 130 190 161l130 19v91q0 59 -32 84t-106 25q-64 0 -133 -21l-12 40q96 39 172 39q30 0 49 -1
t50.5 -9t50 -22t33 -42.5t14.5 -69.5v-140l7 -209h104l5 -29q-59 -23 -103 -70t-44 -99q0 -45 28.5 -78t84.5 -33q10 0 25 1.5t47 12t56.5 28t44 54.5t19.5 88v555h-100v37q99 22 149 22q21 0 29.5 -8t8.5 -28v-245l5 -281q0 -110 -86 -198.5t-203 -88.5zM208 66
q64 0 152 40v147q-73 -8 -124 -20q-103 -24 -103 -98q0 -27 18 -48t57 -21zM763 691q-11 0 -42.5 32t-31.5 43q0 12 31.5 43t42.5 31t43 -31.5t32 -42.5q0 -10 -31.5 -42.5t-43.5 -32.5z" />
    <glyph glyph-name=".notdef" horiz-adv-x="712" 
d="M305 375v27h27v-27h-27zM380 525v27h27v-27h-27zM305 525v27h27v-27h-27zM230 525v27h27v-27h-27zM80 0v27h27v-27h-27zM155 0v27h27v-27h-27zM230 0v27h27v-27h-27zM305 0v27h27v-27h-27zM380 0v27h27v-27h-27zM80 75v27h27v-27h-27zM80 150v27h27v-27h-27zM80 225v27
h27v-27h-27zM80 300v27h27v-27h-27zM80 375v27h27v-27h-27zM80 450v27h27v-27h-27zM80 525v27h27v-27h-27zM80 600v27h27v-27h-27zM80 675v27h27v-27h-27zM155 675v27h27v-27h-27zM230 675v27h27v-27h-27zM305 675v27h27v-27h-27zM380 675v27h27v-27h-27zM455 675v27h27v-27
h-27zM530 675v27h27v-27h-27zM530 0v27h27v-27h-27zM455 0v27h27v-27h-27zM605 0v27h27v-27h-27zM605 675v27h27v-27h-27zM305 300v27h27v-27h-27zM305 150v27h27v-27h-27zM380 375v27h27v-27h-27zM455 375v27h27v-27h-27zM455 450v27h27v-27h-27zM455 525v27h27v-27h-27z
M605 600v27h27v-27h-27zM605 525v27h27v-27h-27zM605 375v27h27v-27h-27zM605 300v27h27v-27h-27zM605 150v27h27v-27h-27zM605 75v27h27v-27h-27zM605 225v27h27v-27h-27zM605 450v27h27v-27h-27z" />
    <glyph glyph-name=".null" horiz-adv-x="0" 
 />
    <glyph glyph-name="nonmarkingreturn" horiz-adv-x="333" 
 />
    <glyph glyph-name="space" unicode=" " horiz-adv-x="250" 
 />
    <glyph glyph-name="exclam" unicode="!" horiz-adv-x="328" 
d="M163 -50q-13 0 -48 36t-35 49t35.5 48t47.5 35q13 0 49 -35t36 -48q0 -11 -35.5 -48t-49.5 -37zM129 226l-23 571l58 30l59 -30l-23 -571h-71z" />
    <glyph glyph-name="quotedbl" unicode="&#x22;" horiz-adv-x="437" 
d="M80 586v270h86l-30 -270h-56zM280 586v270h86l-30 -270h-56z" />
    <glyph glyph-name="numbersign" unicode="#" horiz-adv-x="614" 
d="M145 -23l8 169h-93v56h96l9 160h-105v55h107l9 157h56l-8 -157h177l9 157h56l-8 -157h95v-55h-98l-8 -160h106v-56h-110l-8 -169h-56l8 169h-178l-8 -169h-56zM214 202h175l9 160h-177z" />
    <glyph glyph-name="dollar" unicode="$" horiz-adv-x="566" 
d="M247 -167v152q-153 5 -153 72q0 38 30 66q101 -80 132 -80q67 0 107.5 21.5t40.5 64.5q0 25 -29.5 44.5t-71.5 35t-84 35.5t-71.5 57.5t-29.5 89.5q0 51 37 101.5t92 61.5v150h59v-147q67 0 108 -20.5t41 -51.5q0 -14 -3.5 -24.5t-6 -15t-10 -11.5t-8.5 -9
q-76 76 -139 76q-46 0 -74.5 -22.5t-28.5 -61.5q0 -28 30 -49t72.5 -37t85.5 -35t73 -55.5t30 -88.5q0 -70 -47.5 -112t-122.5 -52v-155h-59z" />
    <glyph glyph-name="percent" unicode="%" horiz-adv-x="716" 
d="M225 368q-53 0 -87 28.5t-34 88.5q0 59 36 92.5t87 33.5q55 0 90 -28.5t35 -91.5q0 -58 -37 -90.5t-90 -32.5zM225 410q26 0 43 23.5t17 57.5q0 78 -58 78q-24 0 -40.5 -22.5t-16.5 -61.5q0 -34 14 -54.5t41 -20.5zM501 -19q-54 0 -88 28t-34 89q0 58 36 91.5t88 33.5
q55 0 90 -28.5t35 -91.5q0 -58 -37 -90t-90 -32zM501 22q26 0 43 23.5t17 57.5q0 78 -58 78q-24 0 -40.5 -22.5t-16.5 -60.5q0 -76 55 -76zM124 66l-32 45l501 405l32 -44z" />
    <glyph glyph-name="ampersand" unicode="&#x26;" horiz-adv-x="720" 
d="M676 -18q-110 0 -244 99q-32 -36 -83.5 -63t-100.5 -27q-198 0 -198 172q0 56 37.5 107.5t99.5 91.5q-49 95 -49 172q0 90 55.5 152.5t135.5 62.5q73 0 107 -37.5t34 -96.5q0 -123 -187 -233q70 -118 188 -216q19 54 19 87q0 45 -58 73q0 16 3 31h174l1 -14
q-13 -34 -50 -95.5t-69 -97.5q72 -57 135 -82q81 -32 131 -22l5 -17q-13 -16 -37 -31.5t-49 -15.5zM264 60q83 0 150 35q-131 102 -209 234q-57 -55 -57 -134q0 -66 33.5 -100.5t82.5 -34.5zM266 412q113 87 113 213q0 34 -20 57.5t-52 23.5q-40 0 -67 -27t-27 -83
q0 -84 53 -184z" />
    <glyph glyph-name="quotesingle" unicode="'" horiz-adv-x="247" 
d="M80 585v270h87l-30 -270h-57z" />
    <glyph glyph-name="parenleft" unicode="(" horiz-adv-x="353" 
d="M279 859l32 -36q-84 -75 -136 -212t-52 -325t55.5 -336.5t133.5 -225.5l-33 -35q-213 220 -213 596q0 208 60 351.5t153 222.5z" />
    <glyph glyph-name="parenright" unicode=")" horiz-adv-x="353" 
d="M89 -311l-33 35q79 77 134.5 226t55.5 336q0 188 -52 325t-137 212l32 36q93 -79 153 -222.5t60 -351.5q0 -376 -213 -596z" />
    <glyph glyph-name="asterisk" unicode="*" horiz-adv-x="461" 
d="M230 498l-29 18l16 146l-121 -87l-27 15v35l133 58l-133 61l-2 35l30 15l121 -88l-16 148l28 18l29 -18l-14 -146l119 86l31 -14l-3 -34l-139 -61l139 -60l2 -32l-31 -18l-119 86l14 -145z" />
    <glyph glyph-name="plus" unicode="+" 
d="M540 270l-206 2l2 -232h-72l2 232l-206 -2v65l206 -2l-2 232h72l-2 -232l206 2v-65z" />
    <glyph glyph-name="comma" unicode="," horiz-adv-x="440" 
d="M157 -181l-23 20q73 81 81 119q-20 12 -49 42t-29 40q0 13 36 48t48 35q17 0 48 -33.5t31 -53.5q0 -57 -44.5 -119t-98.5 -98z" />
    <glyph glyph-name="hyphen" unicode="-" horiz-adv-x="381" 
d="M50 276v45l281 16v-61h-281z" />
    <glyph glyph-name="hyphen" unicode="&#xad;" horiz-adv-x="381" 
d="M50 276v45l281 16v-61h-281z" />
    <glyph glyph-name="period" unicode="." horiz-adv-x="440" 
d="M219 -50q-13 0 -48 36t-35 49t35.5 48t47.5 35q13 0 49 -35t36 -48q0 -11 -35.5 -48t-49.5 -37z" />
    <glyph glyph-name="slash" unicode="/" horiz-adv-x="362" 
d="M332 798l-238 -860h-64l239 860h63z" />
    <glyph glyph-name="zero" unicode="0" horiz-adv-x="601" 
d="M294 -7q-250 0 -250 270q0 112 79 201.5t180 89.5q254 0 254 -277q0 -111 -78.5 -197.5t-184.5 -86.5zM311 53q148 0 148 216q0 42 -7.5 79t-24.5 72.5t-52 56.5t-83 21q-44 0 -75 -19.5t-47 -53t-23 -70t-7 -79.5q0 -97 40.5 -160t130.5 -63z" />
    <glyph glyph-name="one" unicode="1" horiz-adv-x="439" 
d="M53 0q-5 25 -4 37l91 26q39 10 39 46l3 164v219h-152v43l243 29v-291l3 -166q1 -24 5 -30t24 -11l114 -27q0 -24 -4 -39h-362z" />
    <glyph glyph-name="two" unicode="2" horiz-adv-x="485" 
d="M60 0l-15 55q274 209 274 332q0 50 -29 78t-77 28q-72 0 -140 -33l-23 48q85 50 174 50q83 0 139 -41.5t56 -122.5q0 -142 -291 -334l323 21v-81h-391z" />
    <glyph glyph-name="three" unicode="3" horiz-adv-x="493" 
d="M195 -200q-94 0 -177 34l28 76q91 -52 155 -52q142 0 142 137q0 74 -48 122t-132 54l-6 36q63 6 108.5 54t45.5 108q0 61 -33 93.5t-86 32.5q-66 0 -117 -30l-27 46q67 47 160 47t146 -40.5t53 -125.5q0 -62 -46.5 -112t-87.5 -63q58 -9 115.5 -57.5t57.5 -116.5
q0 -105 -78.5 -174t-172.5 -69z" />
    <glyph glyph-name="four" unicode="4" horiz-adv-x="558" 
d="M320 -188l4 213h-279l-22 55l241 466h52l-221 -439h229v439h77v-439h127v-82h-127l5 -213h-86z" />
    <glyph glyph-name="five" unicode="5" horiz-adv-x="524" 
d="M204 -202q-101 0 -190 34l32 83q35 -20 55 -29.5t51 -18.5t62 -9q75 0 119.5 38.5t44.5 117.5q0 45 -19 78.5t-47 52.5t-70.5 30.5t-79.5 15t-83 4.5l31 351h349l-7 -92l-290 15l-17 -192q64 -4 119 -17t103.5 -37.5t76.5 -65t28 -94.5q0 -114 -79.5 -189.5t-188.5 -75.5
z" />
    <glyph glyph-name="six" unicode="6" horiz-adv-x="578" 
d="M296 -9q-75 0 -124.5 23.5t-74.5 70t-34.5 100t-9.5 128.5q0 59 13.5 119t40.5 116.5t65 100.5t91.5 70.5t114.5 26.5q62 0 103 -15l-23 -69q-44 20 -82 20q-44 0 -79 -12.5t-58.5 -32.5t-41 -50.5t-27 -61.5t-15.5 -71t-7.5 -73t-1.5 -73q0 -45 7.5 -88t24.5 -86.5
t51.5 -70.5t82.5 -27q47 0 77 31.5t40 71t10 85.5q0 77 -37 120t-110 43q-34 0 -67 -6l-7 41q69 20 114 20q96 0 151 -47t55 -140q0 -109 -67.5 -186.5t-174.5 -77.5z" />
    <glyph glyph-name="seven" unicode="7" horiz-adv-x="480" 
d="M116 -210l-67 29l325 644l-347 -6v89h410l15 -41z" />
    <glyph glyph-name="eight" unicode="8" horiz-adv-x="556" 
d="M276 -9q-106 0 -168.5 50.5t-62.5 141.5q0 64 40.5 113t107.5 79q-114 77 -114 176q0 70 58.5 133t149.5 63q103 0 159.5 -44t56.5 -122q0 -66 -36.5 -109t-108.5 -77q173 -84 173 -190q0 -94 -72.5 -154t-182.5 -60zM286 34q70 0 106.5 42.5t36.5 107.5q0 30 -26 59.5
t-53 45.5t-73 40t-56 30q-84 -81 -84 -176q0 -58 41.5 -103.5t107.5 -45.5zM331 409q80 62 80 166q0 20 -5.5 40.5t-18 41.5t-38.5 34t-62 13q-55 0 -87 -37t-32 -91q0 -88 163 -167z" />
    <glyph glyph-name="nine" unicode="9" horiz-adv-x="576" 
d="M191 -202q-58 0 -103 15l23 69q44 -20 82 -20q60 0 104 24t68 59.5t37.5 89t17 98.5t3.5 103q0 45 -7.5 88t-24.5 87t-51.5 71t-82.5 27q-47 0 -77 -31.5t-40 -71t-10 -86.5q0 -77 37 -120t110 -43q34 0 67 6l7 -41q-69 -20 -114 -20q-96 0 -151 47t-55 140
q0 109 67.5 186.5t174.5 77.5q75 0 124.5 -23.5t74.5 -70t34.5 -100t9.5 -128.5q0 -59 -13.5 -119t-40.5 -116.5t-65 -100.5t-91.5 -70.5t-114.5 -26.5z" />
    <glyph glyph-name="colon" unicode=":" horiz-adv-x="440" 
d="M219 -50q-13 0 -48 36t-35 49t35.5 48t47.5 35q13 0 49 -35t36 -48q0 -11 -35.5 -48t-49.5 -37zM219 400q-13 0 -48 36t-35 49t35.5 48t47.5 35q13 0 49 -35t36 -48q0 -11 -35.5 -48t-49.5 -37z" />
    <glyph glyph-name="semicolon" unicode=";" horiz-adv-x="440" 
d="M164 -181l-23 20q73 78 82 119q-20 12 -49 42t-29 40q0 13 36 48t48 35q17 0 47.5 -33.5t30.5 -54.5q0 -56 -44 -118t-99 -98zM219 399q-13 0 -48 36t-35 49t35.5 48t47.5 35q13 0 49 -35t36 -48q0 -11 -35.5 -48t-49.5 -37z" />
    <glyph glyph-name="less" unicode="&#x3c;" 
d="M157 300l383 -196l-29 -57l-451 231v44l451 231l29 -57z" />
    <glyph glyph-name="equal" unicode="=" 
d="M540 360h-480v66h480v-66zM540 174h-480v66h480v-66z" />
    <glyph glyph-name="greater" unicode="&#x3e;" 
d="M60 104l383 196l-383 196l29 57l451 -231v-44l-451 -231z" />
    <glyph glyph-name="question" unicode="?" horiz-adv-x="462" 
d="M156 210q-20 36 -20 60q0 38 32.5 92t71 101t71 103t32.5 97q0 24 -30.5 54.5t-89.5 30.5q-19 0 -36.5 -2.5t-25.5 -4.5t-33 -10.5t-36 -11.5q-13 25 -13 43q0 68 119 68q97 0 160 -39t63 -97q0 -50 -32 -110.5t-70.5 -106t-70.5 -97t-32 -87.5q0 -8 3 -23.5t6 -26.5
l3 -11zM206 -50q-13 0 -48 36t-35 49t35.5 48t47.5 35q13 0 49 -35t36 -48q0 -11 -35.5 -48t-49.5 -37z" />
    <glyph glyph-name="at" unicode="@" horiz-adv-x="806" 
d="M377 -131q-143 0 -217.5 88t-74.5 240q0 117 31 205t86.5 140.5t124.5 78t151 25.5q118 0 185.5 -67.5t67.5 -210.5q0 -73 -21.5 -129.5t-54.5 -87.5t-67.5 -46t-65.5 -15q-38 0 -55.5 17.5t-16.5 56.5q-58 -67 -116 -67q-93 0 -93 118q0 89 59 154t136 65q64 0 108 -20
l-27 -240q-2 -24 2.5 -33.5t19.5 -9.5q20 0 41.5 9.5t46 33t40 73t15.5 119.5q0 236 -207 236q-54 0 -102 -12t-92 -41t-75.5 -73t-50 -112.5t-18.5 -155.5q0 -155 63.5 -223t186.5 -68q71 0 143 17l11 -41q-61 -24 -164 -24zM362 153q42 0 88 39l23 196q-24 7 -39 7
q-119 0 -119 -177q0 -65 47 -65z" />
    <glyph glyph-name="A" unicode="A" horiz-adv-x="733" 
d="M27 0q-4 11 -4 30q4 3 12 9.5t12 9.5q25 19 43 61l258 629l72 26l212 -638q19 -54 52 -82q3 -3 8.5 -8t8.5 -7q0 -16 -5 -30h-264q-2 14 -2 15q-1 4 -1 15l71 21q18 5 25 29t0 46l-55 190h-236l-76 -200q-8 -23 4.5 -41.5t42.5 -28.5q9 -2 26 -8t25 -8q0 -16 -5 -30h-224
zM253 367h202l-65 221l-20 78h-7q-4 -12 -12 -38l-6.5 -19l-6.5 -19z" />
    <glyph glyph-name="B" unicode="B" horiz-adv-x="681" 
d="M32 0q-1 8 -3 18q-1 7 0 16l68 18q17 4 27.5 21t11.5 38l3 172v363q0 14 -6 24q-7 12 -18 16l-71 26q-2 16 2 25h285q239 0 239 -174q0 -59 -34.5 -98.5t-79.5 -60.5v-3q25 -4 49 -14t52.5 -29t46 -54.5t17.5 -82.5q0 -96 -63.5 -158.5t-195.5 -62.5h-330zM233 52h122
q163 0 163 156q0 79 -49.5 114t-153.5 35h-86v-76q1 -38 2 -114.5t2 -114.5zM229 408h99q137 0 139 143q0 138 -167 138h-71v-281z" />
    <glyph glyph-name="C" unicode="C" horiz-adv-x="672" 
d="M420 -7q-176 0 -270.5 94.5t-94.5 277.5q0 94 45.5 181.5t130 145t185.5 57.5q98 0 157 -21l23.5 -10t16.5 -7v-146h-35q-43 121 -166 121q-119 0 -189 -73t-70 -228q0 -150 80 -237t205 -87q84 0 165 22q2 -7 6.5 -21.5t6.5 -21.5q-26 -13 -43 -20q-66 -27 -153 -27z
" />
    <glyph glyph-name="D" unicode="D" horiz-adv-x="788" 
d="M32 0q-1 8 -3 18q-1 7 0 16l68 18q37 10 39 68q0 25 1 76.5t1 77.5v375q0 28 -23 36l-74 24q-2 13 4 28h281q72 0 130 -9.5t110 -34t86.5 -63.5t54.5 -100.5t20 -143.5q0 -181 -107 -283.5t-287 -102.5h-301zM235 52h108q272 0 274 316q0 152 -75.5 233.5t-217.5 81.5
h-95v-410z" />
    <glyph glyph-name="E" unicode="E" horiz-adv-x="641" 
d="M32 0q-1 8 -3 18q-1 7 0 17l68 18q37 10 39 58l3 163v372q0 31 -24 40l-75 26q-1 9 5 25h508v-146q-6 -2 -22 -2q-4 0 -10.5 0.5t-9.5 0.5q-9 47 -26.5 68t-53.5 22l-202 6v-290q45 1 135.5 2.5t136.5 2.5v-62q-46 1 -136.5 2.5t-135.5 2.5v-71q1 -37 2.5 -110.5
t2.5 -110.5l198 3q50 1 82 31.5t46 71.5q6 -1 17 -3.5t17 -3.5l-18 -151h-544z" />
    <glyph glyph-name="F" unicode="F" horiz-adv-x="569" 
d="M42 0q-4 12 -1 30l56 18q17 5 27.5 23t11.5 40l3 162v373q0 31 -24 40q-12 5 -36.5 13.5l-36.5 12.5q-1 11 3 25h508v-153q-22 -4 -39 1q-10 42 -28 64.5t-62 25.5q-33 2 -98.5 5.5t-97.5 5.5v-315l283 9v-66q-47 1 -141.5 2.5t-141.5 2.5v-47q0 -29 1.5 -87t2.5 -87v-4
q0 -10 0.5 -14.5t5.5 -9t15 -6.5l114 -23q0 -30 -4 -41h-321z" />
    <glyph glyph-name="G" unicode="G" horiz-adv-x="731" 
d="M420 -7q-176 0 -270.5 94.5t-94.5 277.5q0 93 48 181.5t135 146t188 57.5q118 0 227 -44v-141h-35q-21 58 -73 89.5t-123 31.5q-120 0 -194.5 -73.5t-74.5 -227.5q0 -151 80 -239t205 -88q80 0 123 12v242h91v-253q-102 -66 -232 -66z" />
    <glyph glyph-name="H" unicode="H" horiz-adv-x="850" 
d="M29 0q-1 8 -3 16t-1 14l58 21q20 8 31.5 32t11.5 48q0 23 1 70.5t1 71.5v352q0 55 -30 64l-73 21q0 12 4 27h272q1 -3 1.5 -6t1.5 -6t1 -4q1 -5 0 -15l-28 -6.5l-28 -6.5q-20 -5 -25.5 -13t-5.5 -28v-256h390v219q0 22 -11 46t-30 31l-49 18q0 3 -0.5 7t-0.5 6q0 8 2 14
h262v-17q0 -7 -2 -14l-52 -12q-17 -5 -23 -12.5t-6 -26.5v-382q0 -29 2 -87.5t2 -87.5q0 -36 19 -40q14 -3 42 -9.5t42 -9.5q0 -25 -5 -39h-286q-1 8 -3 18t-1 16l42 12q29 8 41.5 36t12.5 57q0 22 1 66.5t1 67.5v71h-390v-71q0 -29 2 -87t2 -87q1 -32 22 -37l96 -26
q0 -22 -5 -36h-306z" />
    <glyph glyph-name="I" unicode="I" horiz-adv-x="360" 
d="M40 0q-1 8 -3 16q-1 5 0 14l53 21q36 14 38 69q0 26 1 77t1 76v344q0 61 -50 78l-40 15q-3 13 1 27h262q1 -4 2 -9.5t1 -6.5q1 -5 0 -15l-41 -9q-22 -5 -33 -27.5t-11 -49.5v-347l3 -184q0 -19 4.5 -26t20.5 -10l80 -17q0 -22 -5 -36h-284z" />
    <glyph glyph-name="J" unicode="J" horiz-adv-x="341" 
d="M10 -216l-19 34q78 47 107.5 105t29.5 163v535q0 22 -13 44t-35 30l-44 15q0 13 5 27h262q1 -9 3 -16q1 -5 0 -14l-48 -12q-23 -5 -30.5 -14t-7.5 -30v-604q0 -181 -210 -263z" />
    <glyph glyph-name="K" unicode="K" horiz-adv-x="728" 
d="M27 0q-3 25 -3 29l66 23q36 13 38 67l2 154v354q0 20 -8 38t-22 24l-60 21q-3 13 1 27h262q4 -21 4 -25l-50 -19q-17 -7 -26.5 -27.5t-9.5 -43.5v-341l2 -188q0 -30 20 -36l66 -21q0 -22 -5 -36h-277zM706 -13q-126 0 -203 85l-256 285v24l244 251q20 20 20 36
q0 19 -17 24l-48 15q0 19 4 30h206v-30l-319 -303l243 -269q75 -83 132 -116z" />
    <glyph glyph-name="L" unicode="L" horiz-adv-x="577" 
d="M32 0q-1 8 -3 18q-1 7 0 16l64 18q17 4 27 20.5t10 37.5l3 162v355q0 20 -7 37q-8 20 -23 25l-63 21q0 12 4 27h262q1 -3 1.5 -6t1.5 -6t1 -4q1 -5 0 -14l-48 -12q-23 -5 -30.5 -11.5t-7.5 -27.5v-383q1 -37 2.5 -109t2.5 -109q30 1 89.5 2.5t88.5 1.5q48 7 78.5 34.5
t42.5 64.5q5 -1 15.5 -3.5t15.5 -3.5q-4 -25 -10.5 -75.5l-9.5 -75.5h-507z" />
    <glyph glyph-name="M" unicode="M" horiz-adv-x="1016" 
d="M463 -21l-221 630h-6q0 -8 -1 -24.5t-1 -25.5l-70 -464q-5 -28 11 -32l94 -30q0 -22 -4 -33h-245q-1 8 -3 16t-1 14l36 18q20 10 34.5 32t18.5 46l81 507q3 17 -6 34t-23 22l-63 21q0 12 4 27h191l161 -445l55 -166h9l55 150l181 461h174q2 -7 4 -13q1 -4 0 -12
q-8 -3 -24.5 -8.5t-24.5 -8.5q-43 -14 -36 -79l62 -512q2 -16 12.5 -30.5t23.5 -19.5l45 -22q0 -17 -4 -32h-257q-1 8 -3 16q-1 4 -1 14q7 2 21.5 6.5t22.5 6.5q38 11 38 75q0 13 -2 35l-42 395l-3 53h-6l-228 -603q-10 -3 -29.5 -9.5t-29.5 -9.5z" />
    <glyph glyph-name="N" unicode="N" horiz-adv-x="827" 
d="M620 -21l-424 656h-7l9 -80v-282l3 -174q0 -19 4 -25.5t20 -12.5l85 -29q0 -18 -5 -32h-271q-1 8 -3 16t-1 14l58 18q22 6 34.5 31.5t13.5 52.5q0 24 1 71t1 70v365q0 17 -8 31t-21 20l-61 21v13q0 8 2 14h202l386 -587h7l-9 105v370q0 19 -11 38.5t-26 25.5l-63 21
q0 16 4 27h252q1 -7 3 -13q1 -3 1 -12l-59 -17q-18 -5 -29.5 -25.5t-11.5 -43.5v-625z" />
    <glyph glyph-name="O" unicode="O" horiz-adv-x="818" 
d="M401 -12q-163 0 -254.5 94t-91.5 257q0 171 102.5 290t262.5 119q166 0 254.5 -94t88.5 -254q0 -110 -42.5 -203t-126.5 -151t-193 -58zM404 47q68 0 118 26.5t77.5 72.5t40.5 101.5t13 121.5q0 88 -23.5 158t-79.5 117t-139 47q-65 0 -114 -26.5t-77 -72.5t-41.5 -101
t-13.5 -120q0 -63 13 -118.5t40 -103t74.5 -75t111.5 -27.5z" />
    <glyph glyph-name="P" unicode="P" horiz-adv-x="617" 
d="M42 0q-3 25 -3 30l29 9l29 9q17 5 27.5 23t11.5 39l3 173v363q0 31 -24 40l-75 26q-1 9 5 25h323q109 0 169 -54t60 -162q0 -102 -71.5 -171.5t-208.5 -69.5h-20v48q4 0 12.5 0.5t12.5 0.5q84 3 130 46t46 126q0 77 -38.5 129.5t-116.5 53.5q-19 0 -57 1t-57 1v-403
q0 -31 1.5 -93t2.5 -93q0 -30 21 -35l102 -27q0 -24 -4 -35h-310z" />
    <glyph glyph-name="Q" unicode="Q" horiz-adv-x="817" 
d="M401 -12q-163 0 -254.5 94t-91.5 257q0 171 102.5 290t262.5 119q166 0 254.5 -94t88.5 -254q0 -137 -67 -246t-182 -148l121 -80q57 -38 123 -38q47 0 110 13l12 -31q-97 -54 -147 -54q-58 0 -119 46l-169 129q-23 -3 -44 -3zM404 47q68 0 118 26.5t77.5 72.5
t40.5 101.5t13 121.5q0 88 -23.5 158t-79.5 117t-139 47q-65 0 -114 -26.5t-77 -72.5t-41.5 -101t-13.5 -120q0 -63 13 -118.5t40 -103t74.5 -75t111.5 -27.5z" />
    <glyph glyph-name="R" unicode="R" horiz-adv-x="719" 
d="M743 -18q-7 0 -25 2q-142 10 -210 83q-47 49 -127 209q-6 10 -14.5 28t-11.5 23q-18 -3 -39 -3h-88q1 -40 2.5 -120t1.5 -120q0 -24 17 -27q14 -3 40.5 -9.5t40.5 -9.5q0 -27 -4 -38h-276q-1 8 -3 16q-1 5 0 14l48 18q33 11 40 63l3 162v384q-1 9 -8 17t-15 12l-75 26
q-1 9 5 25h302q242 0 242 -196q0 -64 -34.5 -119t-95.5 -74l32.5 -56.5t56 -92.5t47.5 -64v0q88 -94 157 -118zM228 376h93q81 0 123 40t43 111q0 68 -42.5 112t-122.5 45q-16 0 -47 1t-47 1v-310z" />
    <glyph glyph-name="S" unicode="S" horiz-adv-x="572" 
d="M255 -11q-95 0 -209 50q2 25 4.5 75t3.5 75h39q36 -145 192 -145q61 0 104 41t43 97q0 39 -29 65.5t-84 51.5q-10 5 -45.5 20.5t-49.5 23l-43.5 24.5t-43 31.5t-30.5 35.5t-24 46.5t-7 55.5q0 94 73 152.5t169 58.5q102 0 176 -43v-131h-32q-14 59 -57 87.5t-102 28.5
q-71 0 -111.5 -30.5t-40.5 -87.5q0 -23 11 -42t37 -36.5t45 -27.5t60 -29q49 -23 78 -40t65 -46t53.5 -67t17.5 -85q0 -101 -77.5 -155t-185.5 -54z" />
    <glyph glyph-name="T" unicode="T" horiz-adv-x="632" 
d="M156 0q-1 8 -3 18t-1 17q13 3 37.5 9.5l36.5 9.5q17 4 29 27q10 19 12 42l3 136v424h-151q-64 0 -83 -100q-14 -3 -32 3v151h624v-151q-14 -4 -31 -3q-19 100 -94 100h-142v-424q1 -29 2.5 -85.5t2.5 -84.5q0 -19 3.5 -26t17.5 -10l95 -18q0 -20 -4 -35h-322z" />
    <glyph glyph-name="U" unicode="U" horiz-adv-x="778" 
d="M381 -13q-269 0 -269 253v397q0 16 -8 32t-21 20l-63 21q0 12 4 27h269q3 -16 2 -32l-57 -12q-26 -5 -26 -32v-414q0 -100 55.5 -152.5t129.5 -52.5q87 0 135.5 56.5t48.5 172.5v358q0 52 -56 68q-7 2 -21.5 6.5t-21.5 6.5q0 3 -0.5 7t-0.5 6q0 8 2 14h262q3 -15 3 -29
q-8 -3 -25 -8.5t-25 -7.5q-9 -3 -13.5 -6t-9 -11.5t-4.5 -22.5v-385q0 -70 -27.5 -125.5t-71 -88t-93 -49.5t-98.5 -17z" />
    <glyph glyph-name="V" unicode="V" horiz-adv-x="711" 
d="M310 -20l-207 643q-16 52 -34 61l-56 30q0 8 4 23h261q2 -7 4 -17q1 -7 0 -16q-8 -2 -25 -5.5t-26 -5.5q-40 -8 -28 -46l127 -435l31 -109h2l37 109l141 392q6 18 6 33q0 40 -28 53l-23.5 11.5t-23.5 10.5q0 10 4 25h224q3 -14 2 -25l-40 -18v0q-30 -14 -54 -76
l-236 -620z" />
    <glyph glyph-name="W" unicode="W" horiz-adv-x="1096" 
d="M726 -21l-171 488l-215 -469l-55 -16l-191 658q-10 35 -28 44l-56 30q0 8 4 23h256l2 -6t1.5 -5t0.5 -3q1 -4 0 -12l-51 -18q-17 -6 -22 -28t2 -43l115 -443l18 -75h2l33 76l160 359l-39 117q-6 19 -22 28l-52 30q0 3 -0.5 6.5t-0.5 4.5q0 9 1 12h255l2 -6t1.5 -5t0.5 -3
q1 -4 0 -12l-51 -18q-13 -5 -19 -20t-6 -35q0 -18 4 -29l147 -448l9.5 -31t9.5 -32h2l17 65l133 457q6 18 6 32q0 10 -5 20q-4 9 -14 13l-58 27q0 11 5 25h219q1 -7 3 -13q1 -4 0 -12l-39 -18q-34 -15 -52 -69l-202 -628z" />
    <glyph glyph-name="X" unicode="X" horiz-adv-x="697" 
d="M11 0q-3 25 -3 30l38 18v0q43 20 86 78l172 240l-165 257v0q-5 8 -11 15t-14 14.5t-14 12.5t-16.5 12t-15 9.5t-17 10.5t-14.5 9q-7 12 -2 31h245q3 -26 3 -31l-41 -18q-10 -4 -11 -17.5t10 -30.5l123 -190l131 184q10 14 10 30t-11 21q-7 3 -21.5 11t-22.5 11v14
q0 10 2 16h221q1 -7 1 -16l-2 -14q-32 -8 -67 -30t-52 -47l-158 -227l183 -282q22 -34 42.5 -50t68.5 -41q0 -19 -4 -30h-255q-1 8 -3 16q-1 5 0 14l42 23q28 15 2 52l-136 212l-143 -205q-9 -13 -9 -29q0 -20 14 -26l58 -27q0 -19 -4 -30h-240z" />
    <glyph glyph-name="Y" unicode="Y" horiz-adv-x="662" 
d="M174 0q-5 24 -4 36v0l70 18q12 3 20 11q17 17 17 46l3 193l-195 334v0q-12 20 -24 33t-31.5 27t-22.5 16v11q0 6 2 12h241l2 -8t1 -5q1 -3 1 -13q-9 -3 -26 -9.5l-25 -9.5q-14 -4 -14 -26q0 -20 12 -43l141 -265l151 271q8 15 4 32t-17 24l-56 27v12q0 4 3 13h219l2 -12
q1 -3 1 -13q-57 -23 -78 -60l-200 -341l3 -203q0 -18 8 -33.5t21 -19.5l84 -23q0 -17 -4 -32h-309z" />
    <glyph glyph-name="Z" unicode="Z" horiz-adv-x="606" 
d="M44 0l-8.5 29t-8.5 28l407 630q-44 -1 -130.5 -2t-129.5 -2q-66 -10 -83 -99q-15 -2 -35 3v150h488l12 -44l-412 -635q45 0 135.5 1.5t135.5 2.5q50 1 82 31t44 70q6 -1 17.5 -3.5t17.5 -3.5q-3 -26 -9.5 -78t-9.5 -78h-513z" />
    <glyph glyph-name="bracketleft" unicode="[" horiz-adv-x="347" 
d="M115 -320v1174h158v-49h-100v-1076h100v-49h-158z" />
    <glyph glyph-name="backslash" unicode="\" horiz-adv-x="378" 
d="M344 -62h-64l-246 860h64z" />
    <glyph glyph-name="bracketright" unicode="]" horiz-adv-x="347" 
d="M75 -320v49h101v1076h-101v49h158v-1174h-158z" />
    <glyph glyph-name="asciicircum" unicode="^" horiz-adv-x="542" 
d="M66 394l175 413h73l156 -413h-64l-128 364l-152 -364h-60z" />
    <glyph glyph-name="underscore" unicode="_" horiz-adv-x="500" 
d="M0 -163v60h500v-60h-500z" />
    <glyph glyph-name="grave" unicode="`" horiz-adv-x="568" 
d="M397 623q-88 38 -209 141l56 64q72 -99 172 -175z" />
    <glyph glyph-name="a" unicode="a" horiz-adv-x="581" 
d="M172 -8q-57 0 -94.5 33t-37.5 94q0 36 15.5 64.5t37 45t56.5 29.5t61.5 18t65.5 11l84 11v92q0 59 -32 84t-106 25q-64 0 -133 -21l-12 40q96 39 172 39q30 0 49 -1t50.5 -9t50 -22t33 -42.5t14.5 -69.5v-140l7 -209h104l5 -29q-12 -12 -57 -26.5t-71 -14.5
q-25 0 -40.5 7t-22 21.5t-8.5 26t-2 30.5q-84 -87 -189 -87zM208 66q72 0 152 40v147l-78 -11q-149 -20 -149 -107q0 -27 18 -48t57 -21z" />
    <glyph glyph-name="b" unicode="b" horiz-adv-x="609" 
d="M295 -7q-124 0 -193 21l5 259v534h-102v35q88 22 149 22q21 0 30 -8t9 -28v-550l5 -220q52 -10 100 -10q85 0 127 62.5t42 161.5q0 230 -146 230q-49 0 -88 -11l-9 28q63 38 122 38q109 0 164 -63.5t55 -203.5q0 -129 -77 -213t-193 -84z" />
    <glyph glyph-name="c" unicode="c" horiz-adv-x="497" 
d="M297 -9q-139 0 -196 61.5t-57 215.5q0 114 72 202.5t187 88.5q162 0 162 -65q0 -43 -41 -70q-24 29 -60.5 54.5t-72.5 25.5q-81 0 -118.5 -51t-37.5 -166q0 -51 8 -90t27.5 -73.5t57.5 -53t92 -18.5q65 0 128 23l13 -36q-72 -48 -164 -48z" />
    <glyph glyph-name="d" unicode="d" horiz-adv-x="627" 
d="M264 -8q-43 0 -78.5 11t-69 37.5t-53 80t-19.5 130.5q0 135 74.5 219t182.5 84q61 0 111 -11v265h-102v33q92 23 149 23q21 0 30.5 -8t9.5 -28v-555l4 -208h101l4 -28q-76 -45 -144 -45q-17 0 -28 5.5t-15.5 17t-6 21.5t-1.5 26q-78 -70 -149 -70zM288 63q52 0 122 35
l2 175v209q-67 24 -114 24q-48 0 -80.5 -18.5t-49 -53.5t-23 -75.5t-6.5 -95.5q0 -97 39.5 -148.5t109.5 -51.5z" />
    <glyph glyph-name="e" unicode="e" horiz-adv-x="540" 
d="M308 -9q-68 0 -113.5 11t-81.5 40.5t-52.5 83.5t-16.5 137q0 126 69.5 211t178.5 85q204 0 204 -264v-28h-362q3 -65 18.5 -108.5t43.5 -65.5t60 -30.5t77 -8.5q68 0 138 18l13 -41q-26 -17 -76 -28.5t-100 -11.5zM135 314h259q0 46 -4.5 79t-16.5 62t-36 44t-60 15
q-61 0 -101.5 -50t-40.5 -150z" />
    <glyph glyph-name="f" unicode="f" horiz-adv-x="412" 
d="M43 0q-4 20 -4 30l43 18q47 19 47 66l3 159v221h-80v36l80 16v92q0 84 64 158t149 74q31 0 59.5 -5.5t53 -22t24.5 -42.5q0 -13 -5.5 -22.5t-10.5 -13.5t-18 -13q-70 66 -104 66q-66 0 -95 -42t-29 -126v-103h119v-52h-119v-221l7 -192q0 -15 11 -17l122 -26
q0 -22 -5 -38h-312z" />
    <glyph glyph-name="g" unicode="g" horiz-adv-x="609" 
d="M254 -303q-218 0 -218 135q0 46 31.5 92.5t74.5 76.5q-25 2 -43.5 17t-18.5 38q0 64 70 147q-34 19 -56 62.5t-22 84.5q0 85 62 146.5t147 61.5q103 0 144 -37l164 32v-72h-121q25 -42 25 -109q0 -81 -62 -139t-144 -58q-77 0 -123 22v-121h169q226 0 226 -156
q0 -68 -52 -121t-120 -77.5t-133 -24.5zM303 -240q74 0 121.5 34t47.5 94q0 58 -41.5 82t-121.5 24h-137q-46 -56 -46 -116q0 -32 10 -54.5t25 -34.5t40 -19t47 -8.5t55 -1.5zM291 222q53 0 80 40t27 96q0 60 -28.5 108t-84.5 48q-125 0 -125 -145q0 -68 32.5 -107.5
t98.5 -39.5z" />
    <glyph glyph-name="h" unicode="h" horiz-adv-x="716" 
d="M54 0q-3 25 -3 29l46 20q14 6 24 25t10 42l2 157v535h-101v33q92 23 149 23q21 0 30 -8t9 -28v-347q105 76 206 76q44 0 75 -9.5t48.5 -24t27 -40t12 -49.5t2.5 -61v-100l3 -200q0 -11 4 -15t15 -6l72 -14q0 -24 -5 -38h-248q-4 27 -3 34l43 19q12 5 20.5 24.5t8.5 34.5
l3 161v84q0 78 -23.5 105.5t-97.5 27.5q-75 0 -163 -44v-173l4 -189q0 -18 3 -24t16 -8l94 -16q0 -22 -5 -36h-278z" />
    <glyph glyph-name="i" unicode="i" horiz-adv-x="366" 
d="M47 0q-3 22 -3 30l63 22q11 4 21 22t11 32l3 166v222h-102v37q99 22 149 22q21 0 30.5 -8t9.5 -28v-245l3 -197q0 -19 17 -22l87 -16q0 -23 -5 -37h-284zM184 690q-12 0 -43 32t-31 43q0 12 31 43t43 31q11 0 43 -31.5t32 -42.5q0 -10 -31.5 -42.5t-43.5 -32.5z" />
    <glyph glyph-name="j" unicode="j" horiz-adv-x="360" 
d="M47 -303q-39 0 -60 8l10 59q39 -17 62 -17q50 0 66 29.5t16 97.5v620h-100v37q99 22 149 22q21 0 29.5 -8t8.5 -28v-245l5 -354q1 -99 -53 -160t-133 -61zM184 691q-11 0 -42.5 32t-31.5 43q0 12 31.5 43t42.5 31t43 -31.5t32 -42.5q0 -10 -31.5 -42.5t-43.5 -32.5z" />
    <glyph glyph-name="k" unicode="k" horiz-adv-x="618" 
d="M46 0q-3 25 -3 30l53 21q16 6 25.5 26t9.5 39l4 157v535h-101v34q88 22 149 22q39 0 39 -39v-552l3 -163q2 -50 30 -62l38 -17q0 -17 -5 -31h-242zM611 14l-1 -25q-149 0 -228 104l-145 191l162 164q14 14 14 26q0 22 -16 28l-41 16q-1 17 2 28h196v-24l-222 -205
l144 -193q56 -75 135 -110z" />
    <glyph glyph-name="l" unicode="l" horiz-adv-x="340" 
d="M43 0q-3 25 -3 30l53 19q35 13 35 56l5 168v535h-101v34q88 22 149 22q39 0 39 -39v-552l5 -201q0 -12 2 -14.5t10 -4.5l91 -17q0 -22 -5 -36h-280z" />
    <glyph glyph-name="m" unicode="m" horiz-adv-x="1039" 
d="M53 0q-4 12 -4 30l42 18q16 7 27.5 23.5t11.5 38.5l2 163v221h-102v36q95 21 149 21q21 0 29.5 -8t8.5 -28v-35q32 23 50 34.5t59.5 27t81.5 15.5q116 0 145 -75q106 75 199 75q54 0 88 -12.5t49 -40.5t19.5 -56t4.5 -75v-100l4 -197q0 -14 3.5 -17.5t16.5 -5.5l76 -15
q0 -27 -4 -38h-246q-5 19 -4 36l36 20q27 14 28 54l3 162v85q0 76 -19 104.5t-90 28.5q-78 0 -156 -39q5 -21 5 -65v-113l3 -197q0 -12 3.5 -16.5t12.5 -6.5l90 -15q0 -27 -4 -38h-251q-4 28 -4 33l36 18q22 11 24 44l3 177v85q0 40 -2.5 60.5t-12.5 39.5t-32 26t-59 7
q-43 0 -86 -15t-68 -30v-172l4 -190q0 -27 15 -29l79 -15q0 -28 -4 -39h-260z" />
    <glyph glyph-name="n" unicode="n" horiz-adv-x="705" 
d="M54 0q-3 25 -3 29l46 20q14 6 24 25t10 42l2 157v221h-101v34q99 22 149 22q21 0 30 -8t9 -28v-33q105 76 206 76q44 0 75 -9.5t48.5 -24t27 -40t12 -49.5t2.5 -61v-100l3 -200q0 -11 4 -15t15 -6l72 -14q0 -24 -5 -38h-248q-4 27 -3 34l43 19q12 5 20.5 24.5t8.5 34.5
l3 161v84q0 78 -23.5 105.5t-97.5 27.5q-75 0 -163 -44v-173l4 -189q0 -18 3 -24t16 -8l94 -16q0 -22 -5 -36h-278z" />
    <glyph glyph-name="o" unicode="o" horiz-adv-x="581" 
d="M284 -7q-240 0 -240 270q0 113 74 202t175 89q123 0 183.5 -67t60.5 -210q0 -112 -74 -198t-179 -86zM301 53q43 0 72 17.5t42.5 51t18.5 67.5t5 80q0 229 -157 229q-142 0 -142 -222q0 -223 161 -223z" />
    <glyph glyph-name="p" unicode="p" horiz-adv-x="628" 
d="M53 -294q-4 23 -3 33l36 15q37 16 37 63l3 458v219h-101v35q110 22 149 22q21 0 30 -8t9 -28v-22q70 59 146 59q224 0 224 -263q0 -82 -22.5 -142t-61.5 -92.5t-85 -47.5t-100 -15t-95 6l6 -218q0 -7 0.5 -10.5t5 -7t13.5 -4.5l80 -15q2 -22 -4 -37h-267zM317 44
q85 0 127 63t42 162q0 55 -13 104t-48 86.5t-87 37.5q-71 0 -124 -41v-183l3 -221q50 -8 100 -8z" />
    <glyph glyph-name="q" unicode="q" horiz-adv-x="587" 
d="M314 -294q-2 6 -3 14t-1 14v5l52 19q42 17 42 90l2 194l-12 -6q-12 -7 -14 -8t-13 -7t-15.5 -7.5t-14.5 -5.5t-16.5 -5.5t-16 -3.5t-18 -3t-17.5 -1q-33 0 -60 4.5t-59.5 21t-54 44t-36.5 78.5t-15 120q0 134 74 213.5t184 79.5q105 0 195 -25v-254l4 -481q0 -22 3 -28.5
t14 -8.5l78 -15q1 -17 -4 -38h-278zM281 62q65 0 125 22l2 192v211q-49 17 -107 17q-166 0 -166 -223q0 -219 146 -219z" />
    <glyph glyph-name="r" unicode="r" horiz-adv-x="444" 
d="M53 0q-5 23 -4 30l47 24q33 18 35 75l2 145v221h-101v37q94 21 149 21q21 0 29.5 -8t8.5 -28v-50q25 36 67.5 62.5t89.5 26.5q42 0 66 -8l-15 -86q-36 14 -76 14q-45 0 -72 -10t-59 -32v-160l4 -195q0 -24 15 -26l104 -16q0 -26 -4 -37h-286z" />
    <glyph glyph-name="s" unicode="s" horiz-adv-x="483" 
d="M226 -7q-98 0 -175 36l8 156l37 -1q1 -61 33.5 -102.5t104.5 -41.5q52 0 89 22t37 68q0 28 -29.5 49t-71.5 37.5t-84 37t-71.5 58.5t-29.5 90q0 72 55 114t137 42q85 0 155 -35l-17 -133l-27 4q-8 55 -34.5 85.5t-95.5 30.5q-107 0 -107 -78q0 -31 30 -55t73 -41.5
t86.5 -37.5t73.5 -55t30 -83q0 -45 -18 -78.5t-48 -52t-65.5 -27.5t-75.5 -9z" />
    <glyph glyph-name="t" unicode="t" horiz-adv-x="422" 
d="M296 -11q-102 0 -143 32.5t-40 127.5l3 345h-80v22l156 142h14v-112h183v-52h-183v-222l3 -136q1 -44 21 -67t66 -23q61 0 102 11l10 -42q-52 -26 -112 -26z" />
    <glyph glyph-name="u" unicode="u" horiz-adv-x="680" 
d="M263 -7q-91 0 -122 41.5t-31 122.5v337h-90v35q88 22 141 22q21 0 29.5 -8t8.5 -28v-236l3 -104q1 -24 2 -37t5.5 -31.5t13 -27.5t24 -16t38.5 -7q37 0 90 18.5t75 34.5l2 163v222h-101v34q89 23 149 23q21 0 30 -8t9 -28v-242l3 -209h111l3 -29q-75 -41 -131 -41
q-73 0 -73 76q-34 -25 -49.5 -35.5t-57 -26t-82.5 -15.5z" />
    <glyph glyph-name="v" unicode="v" horiz-adv-x="557" 
d="M242 -22l-169 460q-19 53 -53 76q0 22 4 32h201q0 -27 -4 -38h-66l138 -418l120 329q9 25 9 43q0 31 -27 41l-29 10q0 23 3 33h163q0 -20 -2 -27q-30 -24 -56 -91l-171 -432z" />
    <glyph glyph-name="w" unicode="w" horiz-adv-x="903" 
d="M601 -20l-156 439l-163 -421l-54 -17l-149 446q-12 36 -22.5 53.5t-30.5 31.5q0 22 5 34h206q0 -10 -1.5 -19.5t-3.5 -14.5l-1 -4h-76l121 -396l158 426l57 19l161 -448l111 343q12 40 -19 50l-33 11q0 26 2 33h164q0 -26 -2 -29q-4 -1 -10.5 -5t-21.5 -21.5t-24 -42.5
l-162 -452z" />
    <glyph glyph-name="x" unicode="x" horiz-adv-x="591" 
d="M26 0l-2 31q27 11 58 46l168 189l-157 216q-15 20 -49 35q-1 19 0 29h204q0 -30 -7 -43h-59l120 -176l99 126q24 32 3 45q-15 14 -30 21q0 20 4 27h169q0 -23 -5 -30q-36 -14 -72 -56l-140 -169l147 -199q26 -35 85 -58q2 -21 -3 -34h-215q-2 14 -2 30l17 5
q7 2 13.5 12.5t6.5 22.5q0 14 -10 28l-92 129l-121 -149q-10 -13 -8 -22t12 -10l52 -7q2 -26 -3 -39h-183z" />
    <glyph glyph-name="y" unicode="y" horiz-adv-x="570" 
d="M114 -316l-51 80q68 29 104 69t61 101l21 50l-166 454q-19 53 -53 76q0 22 4 32h201q0 -27 -4 -38h-66l138 -418l121 329q9 25 9 43q0 31 -27 41l-29 10q0 23 3 33h162q0 -20 -2 -27q-30 -24 -56 -91l-207 -523q-34 -85 -65.5 -129.5t-97.5 -91.5z" />
    <glyph glyph-name="z" unicode="z" horiz-adv-x="507" 
d="M32 0l-12 35l346 436h-226q-38 0 -89 -66l-25 10l34 131h386l15 -40l-337 -432h214q13 0 26 4.5t24 12.5t20.5 16.5t18 20.5t13.5 18.5t11 16.5t6 11l30 -9l-27 -165h-428z" />
    <glyph glyph-name="braceleft" unicode="{" horiz-adv-x="360" 
d="M292 -321q-92 -4 -145 32.5t-47 128.5l22 303q7 105 -82 108v44q90 3 82 96l-21 308q-6 86 41 127t139 39h32l-2 -48h-21q-73 0 -105 -25t-28 -86l22 -293q4 -60 -15.5 -91t-63.5 -48q85 -29 77 -136l-22 -295q-5 -61 26.5 -89t108.5 -28h21l1 -46z" />
    <glyph glyph-name="bar" unicode="|" horiz-adv-x="262" 
d="M97 -320v1174h58v-1174h-58z" />
    <glyph glyph-name="braceright" unicode="}" horiz-adv-x="361" 
d="M41 -320l1 46h21q77 0 108 27.5t26 89.5l-21 295q-8 107 77 136q-44 17 -63.5 48t-15.5 91l21 293q5 61 -27 86t-105 25h-21l-2 48h32q94 2 140 -38.5t40 -127.5l-22 -308q-3 -47 16 -71t67 -25v-44q-89 -3 -82 -108l22 -303q6 -92 -47 -128.5t-146 -32.5z" />
    <glyph glyph-name="asciitilde" unicode="~" horiz-adv-x="537" 
d="M374 288q-54 0 -118.5 26.5t-99.5 26.5q-50 0 -90 -26l-25 33q61 69 121 69q52 0 111.5 -27t100.5 -27q51 0 88 29l27 -33q-29 -35 -54.5 -53t-60.5 -18z" />
    <glyph glyph-name="uni00A0" unicode="&#xa0;" horiz-adv-x="250" 
 />
    <glyph glyph-name="exclamdown" unicode="&#xa1;" horiz-adv-x="328" 
d="M165 417q-13 0 -49 35.5t-36 48.5q0 11 35.5 47.5t49.5 36.5q13 0 48 -36t35 -48q0 -14 -35.5 -49t-47.5 -35zM164 -291l-58 30l23 571h71l23 -571z" />
    <glyph glyph-name="cent" unicode="&#xa2;" horiz-adv-x="541" 
d="M273 -167v158q-125 5 -177 68t-52 210q0 106 63.5 191.5t165.5 97.5v146h59v-145q133 -5 133 -64q0 -43 -41 -70q-24 29 -60.5 54.5t-72.5 25.5q-81 0 -118.5 -51t-37.5 -166q0 -51 8 -90t27.5 -73.5t57.5 -53.5t92 -19q65 0 128 23l13 -36q-56 -37 -129 -46v-160h-59z
" />
    <glyph glyph-name="sterling" unicode="&#xa3;" horiz-adv-x="588" 
d="M40 0q-4 19 -4 35l60 17q20 6 28 20t11 45l18 176h-76v40h81l7 77q7 70 68 135.5t134 65.5q145 0 145 -65q0 -5 -1 -10t-2.5 -8t-5 -7.5l-5 -6.5t-7 -7t-7.5 -7q-2 2 -10.5 8l-11.5 8l-11 7.5t-11.5 7.5t-10.5 6.5t-11.5 6.5t-10.5 5t-10.5 4.5t-10 2.5t-9.5 1
q-37 0 -60 -9t-35 -32.5t-16 -44.5t-9 -65l-7 -73h187v-40h-191l-22 -228l205 6q52 1 93 39l32 -29q-27 -40 -54 -60.5t-75 -20.5h-385z" />
    <glyph glyph-name="currency" unicode="&#xa4;" horiz-adv-x="496" 
d="M73 70l-33 34l72 70q-33 42 -33 104q0 66 32 104l-71 71l33 32l70 -70q53 34 105 34q63 0 105 -32l69 70l34 -35l-70 -70q32 -35 32 -104t-34 -106l70 -70l-31 -34l-70 70q-51 -30 -105 -30q-60 0 -103 32zM248 155q60 0 91.5 34t31.5 89q1 54 -31.5 89t-91.5 35
t-91.5 -35t-32.5 -89q0 -53 33 -88t91 -35z" />
    <glyph glyph-name="yen" unicode="&#xa5;" horiz-adv-x="662" 
d="M267 0l10 106v31h-198v53h198v14q-24 49 -50 91h-148v53h116q-33 53 -69 104q-21 30 -61 41l-3 35q78 24 115 24q20 -24 76 -139.5t82 -178.5q121 217 187 310q44 -2 89 -22l-13 -36q-42 -7 -52 -21q-37 -46 -85 -117h122v-53h-157q-40 -61 -54 -85v-20h211v-53h-211v-33
l10 -104h-115z" />
    <glyph glyph-name="brokenbar" unicode="&#xa6;" horiz-adv-x="277" 
d="M110 -320v462h57v-462h-57zM110 392v462h57v-462h-57z" />
    <glyph glyph-name="section" unicode="&#xa7;" horiz-adv-x="547" 
d="M176 -82q-104 0 -104 63q0 35 27 45q71 -58 80 -58q52 0 52 90l-109 330q0 105 70 164t180 59q107 0 107 -57q0 -12 -4.5 -21t-8.5 -13t-17 -16q-71 53 -97 53q-51 0 -51 -76l118 -327q0 -112 -73 -174t-170 -62zM281 -21q42 25 58 53t16 74q0 37 -59 186t-59 176
q0 43 22 76l-2 3q-69 -39 -69 -116q0 -30 55 -184.5t55 -182.5q0 -56 -19 -83z" />
    <glyph glyph-name="dieresis" unicode="&#xa8;" horiz-adv-x="408" 
d="M95 665q-10 0 -36 26.5t-26 35.5q0 10 26.5 36t35.5 26q10 0 36.5 -26t26.5 -36q0 -8 -26 -35t-37 -27zM313 665q-10 0 -36 26.5t-26 35.5q0 10 26.5 36t35.5 26q10 0 36.5 -26t26.5 -36q0 -8 -26 -35t-37 -27z" />
    <glyph glyph-name="copyright" unicode="&#xa9;" horiz-adv-x="761" 
d="M394 101q-180 0 -180 175q0 78 50.5 130t127.5 52q49 0 100 -20v-71q-12 -2 -24 -1q-10 31 -28.5 44t-49.5 13q-116 0 -116 -142q0 -68 36 -105t93 -37q46 0 83 12l8 -27q-55 -23 -100 -23zM383 -15q-53 0 -103 15t-95 46t-72.5 89t-27.5 134q0 134 84 211.5t212 77.5
q56 0 107 -16t94 -49t68.5 -90.5t25.5 -133.5q0 -133 -83 -208.5t-210 -75.5zM389 19q108 0 176.5 66t68.5 184q0 124 -73.5 189t-177.5 65q-111 0 -182.5 -62t-71.5 -187q0 -62 19.5 -110t47.5 -74.5t65.5 -43.5t68 -22t59.5 -5z" />
    <glyph glyph-name="ordfeminine" unicode="&#xaa;" horiz-adv-x="418" 
d="M297 460q-19 0 -29.5 8.5t-12.5 18t-3 24.5q-50 -50 -109 -50q-34 0 -56.5 19.5t-22.5 54.5q0 82 115 100q61 9 73 9v47q0 32 -17.5 44t-61.5 12q-30 0 -78 -12l-9 37q51 20 103 20q18 0 30 -1t30 -5.5t29.5 -13t20 -25t8.5 -40.5v-82l4 -116h62l4 -23q-9 -8 -36.5 -17
t-43.5 -9zM166 512q15 0 36.5 6.5t35 13t14.5 7.5v73q-41 -4 -68 -11q-61 -14 -61 -56q0 -14 10.5 -23.5t32.5 -9.5zM65 371v47h302v-47h-302z" />
    <glyph glyph-name="guillemotleft" unicode="&#xab;" horiz-adv-x="513" 
d="M182 56q-30 84 -116 216q89 121 127 214l49 -10q-44 -133 -93 -204q61 -116 85 -205q-25 -5 -52 -11zM387 67q-29 78 -111 205q88 118 122 200q46 -10 49 -11q-41 -122 -88 -189q56 -106 80 -194q-25 -5 -52 -11z" />
    <glyph glyph-name="logicalnot" unicode="&#xac;" 
d="M540 121h-76v149h-404v65h480v-214z" />
    <glyph glyph-name="registered" unicode="&#xae;" horiz-adv-x="614" 
d="M422 511q-52 0 -76 27q-25 25 -53 70q-6 -1 -15 -1h-9l2 -91h-50l2 93v145h86q79 0 79 -72q0 -49 -46 -68q27 -36 43 -51q18 -19 41 -29zM309 404q-41 0 -79.5 11.5t-73 35.5t-55.5 68t-21 103q0 103 64.5 162.5t163.5 59.5q93 0 159.5 -55t66.5 -167q0 -102 -63.5 -160
t-161.5 -58zM314 433q82 0 133.5 49.5t51.5 139.5q0 95 -55.5 144t-134.5 49q-84 0 -138 -47t-54 -142q0 -48 14.5 -84t35.5 -56t49.5 -32.5t51.5 -16.5t46 -4zM269 639h16q54 0 54 41q0 23 -11 32.5t-38 9.5h-21v-83z" />
    <glyph glyph-name="macron" unicode="&#xaf;" horiz-adv-x="540" 
d="M118 704v60h298v-60h-298z" />
    <glyph glyph-name="macron" unicode="&#x2c9;" horiz-adv-x="540" 
d="M118 704v60h298v-60h-298z" />
    <glyph glyph-name="degree" unicode="&#xb0;" horiz-adv-x="411" 
d="M351 597q0 -60 -44 -101t-104 -41q-143 0 -143 122q0 60 43.5 100.5t102.5 40.5q63 0 104 -31t41 -90zM279 587q0 39 -19.5 61t-54.5 22t-54.5 -22t-19.5 -61q0 -85 74 -85t74 85z" />
    <glyph glyph-name="plusminus" unicode="&#xb1;" 
d="M540 0h-480v65h480v-65zM334 393l196 2v-64l-196 2l2 -192h-72l2 192l-196 -2v64l196 -2l-2 193h72z" />
    <glyph glyph-name="twosuperior" unicode="&#xb2;" horiz-adv-x="307" 
d="M31 454v52q4 4 25.5 23.5l32 29.5l30.5 29.5t31 33.5t23.5 31.5t18 33t5.5 28.5q0 57 -63 57q-40 0 -76 -24l-27 38q56 39 112 39q122 0 122 -112q0 -48 -52.5 -103t-121.5 -100h187v-56h-247z" />
    <glyph glyph-name="threesuperior" unicode="&#xb3;" horiz-adv-x="300" 
d="M131 450q-52 0 -112 27l16 50q50 -31 90 -31q32 0 50.5 15.5t18.5 42.5q0 37 -23.5 52.5t-75.5 16.5v43q83 5 83 64q0 20 -15.5 35.5t-38.5 15.5q-40 0 -67 -19l-21 35q41 31 99 31q49 0 81.5 -23.5t32.5 -67.5q0 -57 -65 -85q36 -9 60 -32t24 -56q0 -59 -39 -86.5
t-98 -27.5z" />
    <glyph glyph-name="acute" unicode="&#xb4;" horiz-adv-x="568" 
d="M217 623l-19 30q100 76 172 175l56 -64q-121 -103 -209 -141z" />
    <glyph glyph-name="mu" unicode="&#xb5;" horiz-adv-x="664" 
d="M503 -6q-70 0 -84 63q-90 -70 -169 -70q-50 0 -70 10q5 -36 5 -40l5 -251h-100l4 569v271h89l2 -366q1 -76 19 -102.5t66 -26.5q62 0 146 47l1 172v276h87v-273l3 -136q1 -41 15 -58.5t43 -17.5q21 0 61 10l8 -40q-67 -37 -131 -37z" />
    <glyph glyph-name="paragraph" unicode="&#xb6;" horiz-adv-x="657" 
d="M279 -304q-104 0 -104 63q0 23 18 37q65 -48 87 -48q80 0 80 173v816h75v-831q0 -88 -45 -137l2 -3q44 10 72 51t28 91v829h75v-807q0 -56 -30.5 -103t-76 -74t-93 -42t-88.5 -15zM262 300q-106 0 -164 55t-58 167q0 215 222 215h10v-437h-10z" />
    <glyph glyph-name="periodcentered" unicode="&#xb7;" horiz-adv-x="277" 
d="M151 333q-12 0 -43.5 32t-31.5 43q0 12 32 43t43 31t42.5 -31.5t31.5 -42.5q0 -10 -31 -42.5t-43 -32.5z" />
    <glyph glyph-name="cedilla" unicode="&#xb8;" horiz-adv-x="453" 
d="M221 -288q-52 0 -96 30l35 62q24 -18 57 -26.5t58 -4.5q34 5 34 29q0 30 -34 46.5t-99 27.5l54 128h46l-41 -74q65 -14 94 -35.5t29 -62.5q0 -45 -42.5 -82.5t-94.5 -37.5z" />
    <glyph glyph-name="onesuperior" unicode="&#xb9;" horiz-adv-x="235" 
d="M110 454v326h-93v38l166 13v-377h-73z" />
    <glyph glyph-name="ordmasculine" unicode="&#xba;" horiz-adv-x="418" 
d="M205 456q-146 0 -146 164q0 68 45 120.5t106 52.5q149 0 149 -169q0 -67 -45 -117.5t-109 -50.5zM215 503q48 0 64.5 33.5t16.5 90.5q0 35 -6 59.5t-27.5 43.5t-58.5 19q-83 0 -83 -129q0 -56 20.5 -86.5t73.5 -30.5zM58 371v47h302v-47h-302z" />
    <glyph glyph-name="guillemotright" unicode="&#xbb;" horiz-adv-x="513" 
d="M331 56q-27 6 -52 11q26 91 85 205q-49 71 -93 204l49 10q38 -93 127 -214q-86 -132 -116 -216zM126 67q-27 6 -52 11q24 88 80 194q-47 67 -88 189q11 3 29 7t20 4q35 -82 122 -200q-82 -127 -111 -205z" />
    <glyph glyph-name="onequarter" unicode="&#xbc;" horiz-adv-x="763" 
d="M93 94l-40 40l533 532l39 -39zM120 454v326h-93v38l166 13v-377h-73zM586 0v90h-142l-19 47l121 230h112v-229h65v-48h-65v-90h-72zM477 138h109v213z" />
    <glyph glyph-name="onehalf" unicode="&#xbd;" horiz-adv-x="767" 
d="M93 94l-40 40l533 532l39 -39zM120 454v326h-93v38l166 13v-377h-73zM481 0v52q4 4 25.5 23.5l32 29.5l30.5 29.5t31 33.5t23.5 31.5t18 33t5.5 28.5q0 57 -63 57q-40 0 -76 -24l-27 38q56 39 112 39q122 0 122 -112q0 -48 -52.5 -103t-121.5 -100h187v-56h-247z" />
    <glyph glyph-name="threequarters" unicode="&#xbe;" horiz-adv-x="785" 
d="M132 94l-40 40l533 532l39 -39zM153 450q-52 0 -112 27l16 50q50 -31 90 -31q32 0 50.5 15.5t18.5 42.5q0 37 -23.5 52.5t-75.5 16.5v43q83 5 83 64q0 20 -15.5 35.5t-38.5 15.5q-40 0 -67 -19l-21 35q41 31 99 31q49 0 81.5 -23.5t32.5 -67.5q0 -57 -65 -85
q36 -9 60 -32t24 -56q0 -59 -39 -86.5t-98 -27.5zM608 0v90h-142l-19 47l121 230h112v-229h65v-48h-65v-90h-72zM499 138h109v213z" />
    <glyph glyph-name="questiondown" unicode="&#xbf;" horiz-adv-x="462" 
d="M313 322q20 -36 20 -60q0 -38 -32.5 -92t-71 -101t-71 -103t-32.5 -97q0 -24 30.5 -54.5t89.5 -30.5q19 0 36.5 2.5t25.5 4.5t33 10.5t36 11.5q13 -25 13 -43q0 -68 -119 -68q-97 0 -160 39t-63 97q0 50 32 110.5t70.5 106t70.5 97t32 87.5q0 8 -3 23.5t-6 26.5l-3 11z
M263 582q13 0 48 -36t35 -49t-35.5 -48t-47.5 -35q-13 0 -49 35t-36 48q0 11 35.5 48t49.5 37z" />
    <glyph glyph-name="Agrave" unicode="&#xc0;" horiz-adv-x="733" 
d="M27 0q-4 11 -4 30l24 19q25 19 43 61l258 629l72 26l212 -638q19 -54 52 -82l17 -15q0 -16 -5 -30h-264q-3 22 -3 30l71 21q18 5 25 29t0 46l-55 190h-236l-76 -200q-8 -23 4.5 -41.5t42.5 -28.5l51 -16q0 -16 -5 -30h-224zM253 367h202l-65 221l-20 78h-7l-25 -76z
M440 776q-96 10 -240 73l31 71q97 -65 219 -110z" />
    <glyph glyph-name="Aacute" unicode="&#xc1;" horiz-adv-x="733" 
d="M27 0q-4 11 -4 30q4 3 12 9.5t12 9.5q25 19 43 61l258 629l72 26l212 -638q19 -54 52 -82q3 -3 8.5 -8t8.5 -7q0 -16 -5 -30h-264q-2 14 -2 15q-1 4 -1 15l71 21q18 5 25 29t0 46l-55 190h-236l-76 -200q-8 -23 4.5 -41.5t42.5 -28.5q9 -2 26 -8t25 -8q0 -16 -5 -30h-224
zM253 367h202l-65 221l-20 78h-7q-4 -12 -12 -38l-6.5 -19l-6.5 -19zM321 776l-5.5 17t-4.5 17q122 45 219 110l31 -71q-144 -63 -240 -73z" />
    <glyph glyph-name="Acircumflex" unicode="&#xc2;" horiz-adv-x="733" 
d="M27 0q-4 11 -4 30q4 3 12 9.5t12 9.5q25 19 43 61l258 629l72 26l212 -638q19 -54 52 -82q3 -3 8.5 -8t8.5 -7q0 -16 -5 -30h-264q-2 14 -2 15q-1 4 -1 15l71 21q18 5 25 29t0 46l-55 190h-236l-76 -200q-8 -23 4.5 -41.5t42.5 -28.5q9 -2 26 -8t25 -8q0 -16 -5 -30h-224
zM221 761l-20 33q43 22 91 60t74 65l27 27q105 -112 181 -150l-25 -33q-31 9 -72 29.5t-67 36.5l-26 16q-66 -49 -163 -84zM253 367h202l-65 221l-20 78h-7q-4 -12 -12 -38l-6.5 -19l-6.5 -19z" />
    <glyph glyph-name="Atilde" unicode="&#xc3;" horiz-adv-x="733" 
d="M27 0q-4 11 -4 30q4 3 12 9.5t12 9.5q25 19 43 61l258 629l72 26l212 -638q19 -54 52 -82q3 -3 8.5 -8t8.5 -7q0 -16 -5 -30h-264q-2 14 -2 15q-1 4 -1 15l71 21q18 5 25 29t0 46l-55 190h-236l-76 -200q-8 -23 4.5 -41.5t42.5 -28.5q9 -2 26 -8t25 -8q0 -16 -5 -30h-224
zM462 785q-21 0 -90 23q-66 22 -85 22q-42 0 -67 -23l-20 21q48 73 96 73q27 0 100 -21.5t95 -21.5v0q27 0 52 17l20 -21q-14 -24 -41.5 -46.5t-59.5 -22.5zM253 367h202l-65 221l-20 78h-7q-4 -12 -12 -38l-6.5 -19l-6.5 -19z" />
    <glyph glyph-name="Adieresis" unicode="&#xc4;" horiz-adv-x="733" 
d="M27 0q-4 11 -4 30q4 3 12 9.5t12 9.5q25 19 43 61l258 629l72 26l212 -638q19 -54 52 -82q3 -3 8.5 -8t8.5 -7q0 -16 -5 -30h-264q-2 14 -2 15q-1 4 -1 15l71 21q18 5 25 29t0 46l-55 190h-236l-76 -200q-8 -23 4.5 -41.5t42.5 -28.5q9 -2 26 -8t25 -8q0 -16 -5 -30h-224
zM253 367h202l-65 221l-20 78h-7q-4 -12 -12 -38l-6.5 -19l-6.5 -19zM273 771q-10 0 -36 26.5t-26 35.5q0 10 26.5 36t35.5 26q10 0 36.5 -26t26.5 -36q0 -8 -26 -35t-37 -27zM491 771q-10 0 -36 26.5t-26 35.5q0 10 26.5 36t35.5 26q10 0 36.5 -26t26.5 -36q0 -8 -26 -35
t-37 -27z" />
    <glyph glyph-name="Aring" unicode="&#xc5;" horiz-adv-x="733" 
d="M27 0q-4 11 -4 30q4 3 12 9.5t12 9.5q25 19 43 61l250 607q-78 19 -78 97q0 54 36.5 84t87.5 30q125 0 125 -105q0 -36 -22 -63t-55 -39q3 -7 7 -21t7 -21l184 -552q19 -54 52 -82q3 -3 8.5 -8t8.5 -7q0 -16 -5 -30h-264q-2 14 -2 15q-1 4 -1 15l71 21q18 5 25 29t0 46
l-55 190h-236l-76 -200q-8 -23 4.5 -41.5t42.5 -28.5q9 -2 26 -8t25 -8q0 -16 -5 -30h-224zM253 367h202l-65 221l-20 78h-7q-4 -12 -12 -38l-6.5 -19l-6.5 -19zM389 743q27 0 42 22.5t15 53.5q0 35 -17 55.5t-45 20.5t-42.5 -20.5t-14.5 -53.5q0 -36 16 -57t46 -21z" />
    <glyph glyph-name="AE" unicode="&#xc6;" horiz-adv-x="988" 
d="M8 0q-4 12 -4 30q4 2 12 7.5t12 8.5q47 31 68 64l374 627h438v-146q-6 -2 -22 -2q-4 0 -10.5 0.5t-9.5 0.5q-9 47 -26.5 68t-53.5 22l-202 6v-290q46 1 136 2.5t136 2.5v-62q-46 1 -136 2.5t-136 2.5v-71q1 -37 2.5 -110.5t2.5 -110.5l198 3q50 1 82 31.5t46 71.5
q5 -1 16.5 -3.5t17.5 -3.5l-18 -151h-514q-1 8 -3 18q-1 7 0 17l38 18q37 17 39 58l3 163v70h-197l-133 -228q-28 -47 47 -70q9 -2 25.5 -8t25.5 -8q0 -16 -5 -30h-249zM327 396h167v284z" />
    <glyph glyph-name="Ccedilla" unicode="&#xc7;" horiz-adv-x="672" 
d="M380 -288q-52 0 -96 30l35 62q24 -18 57 -26.5t58 -4.5q34 5 34 29q0 20 -18 36q-26 22 -115 38l50 118q-160 9 -245 103t-85 268q0 94 45.5 181.5t130 145t185.5 57.5q104 0 168 -26q11 -4 29 -12v-146h-35q-43 121 -166 121q-119 0 -189 -73t-70 -228q0 -150 80 -237
t205 -87q84 0 165 22q2 -7 6.5 -21.5t6.5 -21.5q-90 -45 -187 -47l-35 -63q65 -14 94 -35.5t29 -62.5q0 -45 -42.5 -82.5t-94.5 -37.5z" />
    <glyph glyph-name="Egrave" unicode="&#xc8;" horiz-adv-x="641" 
d="M32 0q-1 8 -3 18q-1 7 0 17l68 18q37 10 39 58l3 163v372q0 31 -24 40l-75 26q-1 9 5 25h508v-146q-6 -2 -22 -2q-4 0 -10.5 0.5t-9.5 0.5q-9 47 -26.5 68t-53.5 22l-202 6v-290q45 1 135.5 2.5t136.5 2.5v-62q-46 1 -136.5 2.5t-135.5 2.5v-71q1 -37 2.5 -110.5
t2.5 -110.5l198 3q50 1 82 31.5t46 71.5q6 -1 17 -3.5t17 -3.5l-18 -151h-544zM408 776q-32 3 -66 12q-74 18 -174 61l31 71q97 -65 219 -110q-1 -6 -4.5 -17.5t-5.5 -16.5z" />
    <glyph glyph-name="Eacute" unicode="&#xc9;" horiz-adv-x="641" 
d="M32 0q-1 8 -3 18q-1 7 0 17l68 18q37 10 39 58l3 163v372q0 31 -24 40l-75 26q-1 9 5 25h508v-146q-6 -2 -22 -2q-4 0 -10.5 0.5t-9.5 0.5q-9 47 -26.5 68t-53.5 22l-202 6v-290q45 1 135.5 2.5t136.5 2.5v-62q-46 1 -136.5 2.5t-135.5 2.5v-71q1 -37 2.5 -110.5
t2.5 -110.5l198 3q50 1 82 31.5t46 71.5q6 -1 17 -3.5t17 -3.5l-18 -151h-544zM255 776q-2 6 -5 17t-5 17q122 45 219 110l31 -71q-144 -63 -240 -73z" />
    <glyph glyph-name="Ecircumflex" unicode="&#xca;" horiz-adv-x="641" 
d="M32 0q-1 8 -3 18q-1 7 0 17l68 18q37 10 39 58l3 163v372q0 31 -24 40l-75 26q-1 9 5 25h508v-146q-6 -2 -22 -2q-4 0 -10.5 0.5t-9.5 0.5q-9 47 -26.5 68t-53.5 22l-202 6v-290q45 1 135.5 2.5t136.5 2.5v-62q-46 1 -136.5 2.5t-135.5 2.5v-71q1 -37 2.5 -110.5
t2.5 -110.5l198 3q50 1 82 31.5t46 71.5q6 -1 17 -3.5t17 -3.5l-18 -151h-544zM166 761l-20 33q43 22 91 60t75 65l26 27q105 -112 181 -150l-25 -33q-31 9 -72 29.5t-67 36.5l-26 16q-66 -49 -163 -84z" />
    <glyph glyph-name="Edieresis" unicode="&#xcb;" horiz-adv-x="641" 
d="M32 0q-1 8 -3 18q-1 7 0 17l68 18q37 10 39 58l3 163v372q0 31 -24 40l-75 26q-1 9 5 25h508v-146q-6 -2 -22 -2q-4 0 -10.5 0.5t-9.5 0.5q-9 47 -26.5 68t-53.5 22l-202 6v-290q45 1 135.5 2.5t136.5 2.5v-62q-46 1 -136.5 2.5t-135.5 2.5v-71q1 -37 2.5 -110.5
t2.5 -110.5l198 3q50 1 82 31.5t46 71.5q6 -1 17 -3.5t17 -3.5l-18 -151h-544zM431 771q-10 0 -36 26.5t-26 35.5q0 10 26.5 36t35.5 26q10 0 36.5 -26t26.5 -36q0 -8 -26 -35t-37 -27zM213 771q-10 0 -36 26.5t-26 35.5q0 10 26.5 36t35.5 26q10 0 36.5 -26t26.5 -36
q0 -8 -26 -35t-37 -27z" />
    <glyph glyph-name="Igrave" unicode="&#xcc;" horiz-adv-x="360" 
d="M40 0q-3 25 -3 30l53 21q36 14 38 69l2 153v344q0 61 -50 78l-40 15q-3 13 1 27h262q4 -19 3 -31l-41 -9q-22 -5 -33 -27.5t-11 -49.5v-347l3 -184q0 -19 4.5 -26t20.5 -10l80 -17q0 -22 -5 -36h-284zM261 776q-96 10 -240 73l31 71q97 -65 219 -110z" />
    <glyph glyph-name="Iacute" unicode="&#xcd;" horiz-adv-x="360" 
d="M40 0q-3 25 -3 30l53 21q36 14 38 69l2 153v344q0 61 -50 78l-40 15q-3 13 1 27h262q4 -19 3 -31l-41 -9q-22 -5 -33 -27.5t-11 -49.5v-347l3 -184q0 -19 4.5 -26t20.5 -10l80 -17q0 -22 -5 -36h-284zM85 776l-10 34q122 45 219 110l31 -71q-144 -63 -240 -73z" />
    <glyph glyph-name="Icircumflex" unicode="&#xce;" horiz-adv-x="360" 
d="M40 0q-3 25 -3 30l53 21q36 14 38 69l2 153v344q0 61 -50 78l-40 15q-3 13 1 27h262q4 -19 3 -31l-41 -9q-22 -5 -33 -27.5t-11 -49.5v-347l3 -184q0 -19 4.5 -26t20.5 -10l80 -17q0 -22 -5 -36h-284zM6 761l-20 33q43 22 91 60t75 65l26 27q105 -112 181 -150l-25 -33
q-31 9 -72 29.5t-67 36.5l-26 16q-66 -49 -163 -84z" />
    <glyph glyph-name="Idieresis" unicode="&#xcf;" horiz-adv-x="360" 
d="M40 0q-3 25 -3 30l53 21q36 14 38 69l2 153v344q0 61 -50 78l-40 15q-3 13 1 27h262q4 -19 3 -31l-41 -9q-22 -5 -33 -27.5t-11 -49.5v-347l3 -184q0 -19 4.5 -26t20.5 -10l80 -17q0 -22 -5 -36h-284zM73 771q-10 0 -36 26.5t-26 35.5q0 10 26.5 36t35.5 26
q10 0 36.5 -26t26.5 -36q0 -8 -26 -35t-37 -27zM291 771q-10 0 -36 26.5t-26 35.5q0 10 26.5 36t35.5 26q10 0 36.5 -26t26.5 -36q0 -8 -26 -35t-37 -27z" />
    <glyph glyph-name="Eth" unicode="&#xd0;" horiz-adv-x="788" 
d="M32 0q-4 27 -3 34l68 18q37 10 39 68l2 154v79h-97v52h97v244q0 28 -23 36l-74 24q-2 13 4 28h281q72 0 130 -9.5t110 -34t86.5 -63.5t54.5 -100.5t20 -143.5q0 -181 -107 -283.5t-287 -102.5h-301zM235 52h108q272 0 274 316q0 152 -75.5 233.5t-217.5 81.5h-95v-278
h160v-52h-160v-80z" />
    <glyph glyph-name="Ntilde" unicode="&#xd1;" horiz-adv-x="827" 
d="M620 -21l-424 656h-7l9 -80v-282l3 -174q0 -19 4 -25.5t20 -12.5l85 -29q0 -18 -5 -32h-271q-5 23 -4 30l58 18q22 6 34.5 31.5t13.5 52.5l2 141v365q0 40 -29 51l-61 21q0 20 2 27h202l386 -587h7l-9 105v370q0 19 -11 38.5t-26 25.5l-63 21q0 16 4 27h252q1 -6 2.5 -12
t1.5 -13l-59 -17q-18 -5 -29.5 -25.5t-11.5 -43.5v-625zM500 785q-25 0 -90.5 22.5t-84.5 22.5q-42 0 -67 -23l-20 21q48 73 96 73q27 0 100 -21.5t95 -21.5q27 0 52 17l20 -21q-14 -24 -41.5 -46.5t-59.5 -22.5z" />
    <glyph glyph-name="Ograve" unicode="&#xd2;" horiz-adv-x="818" 
d="M401 -12q-163 0 -254.5 94t-91.5 257q0 171 102.5 290t262.5 119q166 0 254.5 -94t88.5 -254q0 -110 -42.5 -203t-126.5 -151t-193 -58zM404 47q68 0 118 26.5t77.5 72.5t40.5 101.5t13 121.5q0 88 -23.5 158t-79.5 117t-139 47q-65 0 -114 -26.5t-77 -72.5t-41.5 -101
t-13.5 -120q0 -63 13 -118.5t40 -103t74.5 -75t111.5 -27.5zM502 776q-96 10 -240 73l31 71q97 -65 219 -110z" />
    <glyph glyph-name="Oacute" unicode="&#xd3;" horiz-adv-x="818" 
d="M401 -12q-163 0 -254.5 94t-91.5 257q0 171 102.5 290t262.5 119q166 0 254.5 -94t88.5 -254q0 -110 -42.5 -203t-126.5 -151t-193 -58zM404 47q68 0 118 26.5t77.5 72.5t40.5 101.5t13 121.5q0 88 -23.5 158t-79.5 117t-139 47q-65 0 -114 -26.5t-77 -72.5t-41.5 -101
t-13.5 -120q0 -63 13 -118.5t40 -103t74.5 -75t111.5 -27.5zM323 776l-10 34q122 45 219 110l31 -71q-144 -63 -240 -73z" />
    <glyph glyph-name="Ocircumflex" unicode="&#xd4;" horiz-adv-x="818" 
d="M401 -12q-163 0 -254.5 94t-91.5 257q0 171 102.5 290t262.5 119q166 0 254.5 -94t88.5 -254q0 -110 -42.5 -203t-126.5 -151t-193 -58zM404 47q68 0 118 26.5t77.5 72.5t40.5 101.5t13 121.5q0 88 -23.5 158t-79.5 117t-139 47q-65 0 -114 -26.5t-77 -72.5t-41.5 -101
t-13.5 -120q0 -63 13 -118.5t40 -103t74.5 -75t111.5 -27.5zM255 761l-20 33q43 22 91 60t74 65l27 27q105 -112 181 -150l-25 -33q-31 9 -72 29.5t-67 36.5l-26 16q-66 -49 -163 -84z" />
    <glyph glyph-name="Otilde" unicode="&#xd5;" horiz-adv-x="818" 
d="M401 -12q-163 0 -254.5 94t-91.5 257q0 171 102.5 290t262.5 119q166 0 254.5 -94t88.5 -254q0 -110 -42.5 -203t-126.5 -151t-193 -58zM404 47q68 0 118 26.5t77.5 72.5t40.5 101.5t13 121.5q0 88 -23.5 158t-79.5 117t-139 47q-65 0 -114 -26.5t-77 -72.5t-41.5 -101
t-13.5 -120q0 -63 13 -118.5t40 -103t74.5 -75t111.5 -27.5zM496 785q-25 0 -90.5 22.5t-84.5 22.5q-42 0 -67 -23l-20 21q48 73 96 73q27 0 100 -21.5t95 -21.5q27 0 52 17l20 -21q-14 -24 -41.5 -46.5t-59.5 -22.5z" />
    <glyph glyph-name="Odieresis" unicode="&#xd6;" horiz-adv-x="818" 
d="M401 -12q-163 0 -254.5 94t-91.5 257q0 171 102.5 290t262.5 119q166 0 254.5 -94t88.5 -254q0 -110 -42.5 -203t-126.5 -151t-193 -58zM404 47q68 0 118 26.5t77.5 72.5t40.5 101.5t13 121.5q0 88 -23.5 158t-79.5 117t-139 47q-65 0 -114 -26.5t-77 -72.5t-41.5 -101
t-13.5 -120q0 -63 13 -118.5t40 -103t74.5 -75t111.5 -27.5zM302 771q-10 0 -36 26.5t-26 35.5q0 10 26.5 36t35.5 26q10 0 36.5 -26t26.5 -36q0 -8 -26 -35t-37 -27zM520 771q-10 0 -36 26.5t-26 35.5q0 10 26.5 36t35.5 26q10 0 36.5 -26t26.5 -36q0 -8 -26 -35t-37 -27z
" />
    <glyph glyph-name="multiply" unicode="&#xd7;" 
d="M102 40l-47 44l201 219l-200 218l47 44l197 -215l197 215l47 -44l-201 -218l202 -219l-47 -44l-198 215z" />
    <glyph glyph-name="Oslash" unicode="&#xd8;" horiz-adv-x="817" 
d="M65 -18l-32 30l94 92q-72 90 -72 235q0 171 102.5 290t262.5 119q158 0 248 -87l72 81l32 -29l-75 -85q66 -88 66 -228q0 -110 -42.5 -203t-126.5 -151t-193 -58q-152 0 -244 84zM202 178l398 410q-65 103 -189 103q-65 0 -114 -26.5t-77 -72.5t-41.5 -101t-13.5 -120
q0 -112 37 -193zM404 47q68 0 118 26.5t77.5 72.5t40.5 101.5t13 121.5q0 101 -32 177l-396 -408q63 -91 179 -91z" />
    <glyph glyph-name="Ugrave" unicode="&#xd9;" horiz-adv-x="778" 
d="M381 -13q-269 0 -269 253v397q0 17 -8 32.5t-21 19.5l-63 21q0 12 4 27h269q3 -16 2 -32l-57 -12q-26 -5 -26 -32v-414q0 -100 55.5 -152.5t129.5 -52.5q87 0 135.5 56.5t48.5 172.5v358q0 52 -56 68l-43 13q0 23 1 27h262q3 -15 3 -29l-50 -16q-9 -3 -13.5 -6t-9 -11.5
t-4.5 -22.5v-385q0 -70 -27.5 -125.5t-71 -88t-93 -49.5t-98.5 -17zM486 776q-96 10 -240 73l31 71q97 -65 219 -110z" />
    <glyph glyph-name="Uacute" unicode="&#xda;" horiz-adv-x="778" 
d="M381 -13q-269 0 -269 253v397q0 17 -8 32.5t-21 19.5l-63 21q0 12 4 27h269q3 -16 2 -32l-57 -12q-26 -5 -26 -32v-414q0 -100 55.5 -152.5t129.5 -52.5q87 0 135.5 56.5t48.5 172.5v358q0 52 -56 68l-43 13q0 23 1 27h262q3 -15 3 -29l-50 -16q-9 -3 -13.5 -6t-9 -11.5
t-4.5 -22.5v-385q0 -70 -27.5 -125.5t-71 -88t-93 -49.5t-98.5 -17zM322 776l-10 34q122 45 219 110l31 -71q-144 -63 -240 -73z" />
    <glyph glyph-name="Ucircumflex" unicode="&#xdb;" horiz-adv-x="778" 
d="M381 -13q-269 0 -269 253v397q0 17 -8 32.5t-21 19.5l-63 21q0 12 4 27h269q3 -16 2 -32l-57 -12q-26 -5 -26 -32v-414q0 -100 55.5 -152.5t129.5 -52.5q87 0 135.5 56.5t48.5 172.5v358q0 52 -56 68l-43 13q0 23 1 27h262q3 -15 3 -29l-50 -16q-9 -3 -13.5 -6t-9 -11.5
t-4.5 -22.5v-385q0 -70 -27.5 -125.5t-71 -88t-93 -49.5t-98.5 -17zM235 761l-20 33q43 22 91 60t74 65l27 27q105 -112 181 -150l-25 -33q-31 9 -72 29.5t-67 36.5l-26 16q-66 -49 -163 -84z" />
    <glyph glyph-name="Udieresis" unicode="&#xdc;" horiz-adv-x="778" 
d="M381 -13q-269 0 -269 253v397q0 17 -8 32.5t-21 19.5l-63 21q0 12 4 27h269q3 -16 2 -32l-57 -12q-26 -5 -26 -32v-414q0 -100 55.5 -152.5t129.5 -52.5q87 0 135.5 56.5t48.5 172.5v358q0 52 -56 68l-43 13q0 23 1 27h262q3 -15 3 -29l-50 -16q-9 -3 -13.5 -6t-9 -11.5
t-4.5 -22.5v-385q0 -70 -27.5 -125.5t-71 -88t-93 -49.5t-98.5 -17zM282 771q-10 0 -36 26.5t-26 35.5q0 10 26.5 36t35.5 26q10 0 36.5 -26t26.5 -36q0 -8 -26 -35t-37 -27zM500 771q-10 0 -36 26.5t-26 35.5q0 10 26.5 36t35.5 26q10 0 36.5 -26t26.5 -36q0 -8 -26 -35
t-37 -27z" />
    <glyph glyph-name="Yacute" unicode="&#xdd;" horiz-adv-x="662" 
d="M174 0q-5 24 -4 36l70 18q37 9 37 57l3 193l-195 334q-12 20 -24 33t-31.5 27t-22.5 16q0 16 2 23h241q4 -20 4 -26l-51 -19q-14 -4 -14 -26q0 -20 12 -43l141 -265l151 271q8 15 4 32t-17 24l-56 27q0 17 3 25h219q3 -19 3 -25q-57 -23 -78 -60l-200 -341l3 -203
q0 -18 8 -33.5t21 -19.5l84 -23q0 -17 -4 -32h-309zM254 776l-10 34q122 45 219 110l31 -71q-144 -63 -240 -73z" />
    <glyph glyph-name="Thorn" unicode="&#xde;" horiz-adv-x="621" 
d="M334 0h-284q-3 25 -3 30l53 21q36 14 38 69l2 153v344q0 61 -50 78l-40 15q-3 13 1 27h262q4 -19 3 -31l-41 -9q-21 -4 -33 -27q-11 -21 -11 -56h137q108 0 168 -54t60 -162q0 -102 -71.5 -171.5t-208.5 -69.5h-19v48l25 1q175 8 175 172q0 77 -38 129.5t-117 53.5
l-111 2v-290l3 -184q0 -19 4.5 -26t20.5 -10l80 -17q0 -22 -5 -36z" />
    <glyph glyph-name="germandbls" unicode="&#xdf;" horiz-adv-x="723" 
d="M472 -10q-98 0 -175 36l8 156l37 -1q1 -61 33.5 -102.5t104.5 -41.5q52 0 89 22t37 68q0 28 -29.5 49.5t-71.5 38.5t-84 37.5t-71.5 59t-29.5 90.5q0 40 17.5 73t43 55.5l50.5 43t42.5 46.5t17.5 56q0 62 -35 101.5t-103 39.5q-43 0 -71 -12.5t-41 -37t-17.5 -49
t-4.5 -58.5v-387l8 -273h-185q-4 20 -4 30l43 18q47 19 47 66l3 159v221h-80v36l80 16v103q0 83 65.5 152t156.5 69q228 0 228 -180q0 -34 -14.5 -63.5t-36 -49.5t-47 -39.5l-47 -34.5t-36 -33.5t-14.5 -37.5q0 -27 21.5 -48.5t54.5 -35.5t70.5 -32t70.5 -36.5t54.5 -50
t21.5 -72.5q0 -45 -18 -78.5t-48 -52t-65.5 -27.5t-75.5 -9z" />
    <glyph glyph-name="agrave" unicode="&#xe0;" horiz-adv-x="581" 
d="M172 -8q-57 0 -94.5 33t-37.5 94q0 36 15.5 64.5t37 45t56.5 29.5t61.5 18t65.5 11l84 11v92q0 59 -32 84t-106 25q-64 0 -133 -21l-12 40q96 39 172 39q30 0 49 -1t50.5 -9t50 -22t33 -42.5t14.5 -69.5v-140l7 -209h104l5 -29q-12 -12 -57 -26.5t-71 -14.5
q-25 0 -40.5 7t-22 21.5t-8.5 26t-2 30.5q-84 -87 -189 -87zM208 66q72 0 152 40v147l-78 -11q-149 -20 -149 -107q0 -27 18 -48t57 -21zM339 623q-88 38 -209 141l56 64q72 -99 172 -175z" />
    <glyph glyph-name="aacute" unicode="&#xe1;" horiz-adv-x="581" 
d="M172 -8q-57 0 -94.5 33t-37.5 94q0 36 15.5 64.5t37 45t56.5 29.5t61.5 18t65.5 11l84 11v92q0 59 -32 84t-106 25q-64 0 -133 -21l-12 40q96 39 172 39q30 0 49 -1t50.5 -9t50 -22t33 -42.5t14.5 -69.5v-140l7 -209h104l5 -29q-12 -12 -57 -26.5t-71 -14.5
q-25 0 -40.5 7t-22 21.5t-8.5 26t-2 30.5q-84 -87 -189 -87zM208 66q72 0 152 40v147l-78 -11q-149 -20 -149 -107q0 -27 18 -48t57 -21zM203 623l-19 30q100 76 172 175l56 -64q-121 -103 -209 -141z" />
    <glyph glyph-name="acircumflex" unicode="&#xe2;" horiz-adv-x="581" 
d="M172 -8q-57 0 -94.5 33t-37.5 94q0 36 15.5 64.5t37 45t56.5 29.5t61.5 18t65.5 11l84 11v92q0 59 -32 84t-106 25q-64 0 -133 -21l-12 40q96 39 172 39q30 0 49 -1t50.5 -9t50 -22t33 -42.5t14.5 -69.5v-140l7 -209h104l5 -29q-12 -12 -57 -26.5t-71 -14.5
q-25 0 -40.5 7t-22 21.5t-8.5 26t-2 30.5q-84 -87 -189 -87zM208 66q72 0 152 40v147l-78 -11q-149 -20 -149 -107q0 -27 18 -48t57 -21zM390 622q-46 28 -134 106q-85 -74 -130 -106l-26 29q96 84 168 180q89 -113 157 -173z" />
    <glyph glyph-name="atilde" unicode="&#xe3;" horiz-adv-x="581" 
d="M172 -8q-57 0 -94.5 33t-37.5 94q0 36 15.5 64.5t37 45t56.5 29.5t61.5 18t65.5 11l84 11v92q0 59 -32 84t-106 25q-64 0 -133 -21l-12 40q96 39 172 39q30 0 49 -1t50.5 -9t50 -22t33 -42.5t14.5 -69.5v-140l7 -209h104l5 -29q-12 -12 -57 -26.5t-71 -14.5
q-25 0 -40.5 7t-22 21.5t-8.5 26t-2 30.5q-84 -87 -189 -87zM208 66q72 0 152 40v147l-78 -11q-149 -20 -149 -107q0 -27 18 -48t57 -21zM349 662q-25 0 -90.5 22.5t-84.5 22.5q-42 0 -67 -23l-20 21q48 73 96 73q27 0 100 -21.5t95 -21.5q27 0 52 17l20 -21
q-14 -24 -41.5 -46.5t-59.5 -22.5z" />
    <glyph glyph-name="adieresis" unicode="&#xe4;" horiz-adv-x="581" 
d="M172 -8q-57 0 -94.5 33t-37.5 94q0 36 15.5 64.5t37 45t56.5 29.5t61.5 18t65.5 11l84 11v92q0 59 -32 84t-106 25q-64 0 -133 -21l-12 40q96 39 172 39q30 0 49 -1t50.5 -9t50 -22t33 -42.5t14.5 -69.5v-140l7 -209h104l5 -29q-12 -12 -57 -26.5t-71 -14.5
q-25 0 -40.5 7t-22 21.5t-8.5 26t-2 30.5q-84 -87 -189 -87zM208 66q72 0 152 40v147l-78 -11q-149 -20 -149 -107q0 -27 18 -48t57 -21zM153 665q-10 0 -36 26.5t-26 35.5q0 10 26.5 36t35.5 26q10 0 36.5 -26t26.5 -36q0 -8 -26 -35t-37 -27zM371 665q-10 0 -36 26.5
t-26 35.5q0 10 26.5 36t35.5 26q10 0 36.5 -26t26.5 -36q0 -8 -26 -35t-37 -27z" />
    <glyph glyph-name="aring" unicode="&#xe5;" horiz-adv-x="581" 
d="M172 -8q-57 0 -94.5 33t-37.5 94q0 36 15.5 64.5t37 45t56.5 29.5t61.5 18t65.5 11l84 11v92q0 59 -32 84t-106 25q-64 0 -133 -21l-12 40q96 39 172 39q30 0 49 -1t50.5 -9t50 -22t33 -42.5t14.5 -69.5v-140l7 -209h104l5 -29q-12 -12 -57 -26.5t-71 -14.5
q-25 0 -40.5 7t-22 21.5t-8.5 26t-2 30.5q-84 -87 -189 -87zM208 66q72 0 152 40v147l-78 -11q-149 -20 -149 -107q0 -27 18 -48t57 -21zM271 621q-17 0 -32.5 2.5t-40 11t-39.5 31.5t-15 57q0 54 36.5 84t87.5 30q125 0 125 -105q0 -49 -39 -80t-83 -31zM271 652
q28 0 44.5 21.5t16.5 54.5q0 35 -19 55.5t-47 20.5t-44.5 -20.5t-16.5 -53.5q0 -38 17.5 -58t48.5 -20z" />
    <glyph glyph-name="ae" unicode="&#xe6;" horiz-adv-x="855" 
d="M623 -9q-92 0 -149.5 23t-85.5 83q-116 -105 -216 -105q-57 0 -94.5 33t-37.5 94q0 130 190 161q85 12 130 15v101q0 55 -32 78.5t-106 23.5q-64 0 -133 -21l-12 39q89 41 172 41q30 0 50 -1.5t50 -8t51 -23.5t33 -43q68 78 172 78q108 0 157 -65t49 -191v-28l-361 -18
q4 -203 198 -203q72 0 138 17l13 -40q-26 -17 -76 -28.5t-100 -11.5zM208 65q58 0 171 54q-19 66 -20 130q-73 -5 -123 -16q-103 -24 -103 -98q0 -27 18 -48.5t57 -21.5zM449 302l260 22q0 189 -112 189q-72 0 -108.5 -50t-39.5 -161z" />
    <glyph glyph-name="ccedilla" unicode="&#xe7;" horiz-adv-x="497" 
d="M256 -288q-52 0 -96 30l35 62q24 -18 57 -26.5t58 -4.5q34 5 34 29q0 30 -34 46.5t-99 27.5l49 116q-118 7 -167 69.5t-49 206.5q0 114 72 202.5t187 88.5q162 0 162 -65q0 -43 -41 -70q-24 29 -60.5 54.5t-72.5 25.5q-81 0 -118.5 -51t-37.5 -166q0 -51 8 -90
t27.5 -73.5t57.5 -53t92 -18.5q65 0 128 23l13 -36q-69 -46 -157 -48l-34 -61q65 -14 94 -35.5t29 -62.5q0 -45 -42.5 -82.5t-94.5 -37.5z" />
    <glyph glyph-name="egrave" unicode="&#xe8;" horiz-adv-x="540" 
d="M308 -9q-68 0 -113.5 11t-81.5 40.5t-52.5 83.5t-16.5 137q0 126 69.5 211t178.5 85q204 0 204 -264v-28h-362q3 -65 18.5 -108.5t43.5 -65.5t60 -30.5t77 -8.5q68 0 138 18l13 -41q-26 -17 -76 -28.5t-100 -11.5zM135 314h259q0 46 -4.5 79t-16.5 62t-36 44t-60 15
q-61 0 -101.5 -50t-40.5 -150zM353 623q-88 38 -209 141l56 64q72 -99 172 -175z" />
    <glyph glyph-name="eacute" unicode="&#xe9;" horiz-adv-x="540" 
d="M308 -9q-68 0 -113.5 11t-81.5 40.5t-52.5 83.5t-16.5 137q0 126 69.5 211t178.5 85q204 0 204 -264v-28h-362q3 -65 18.5 -108.5t43.5 -65.5t60 -30.5t77 -8.5q68 0 138 18l13 -41q-26 -17 -76 -28.5t-100 -11.5zM135 314h259q0 46 -4.5 79t-16.5 62t-36 44t-60 15
q-61 0 -101.5 -50t-40.5 -150zM213 623l-19 30q100 76 172 175l56 -64q-121 -103 -209 -141z" />
    <glyph glyph-name="ecircumflex" unicode="&#xea;" horiz-adv-x="540" 
d="M308 -9q-68 0 -113.5 11t-81.5 40.5t-52.5 83.5t-16.5 137q0 126 69.5 211t178.5 85q204 0 204 -264v-28h-362q3 -65 18.5 -108.5t43.5 -65.5t60 -30.5t77 -8.5q68 0 138 18l13 -41q-26 -17 -76 -28.5t-100 -11.5zM135 314h259q0 46 -4.5 79t-16.5 62t-36 44t-60 15
q-61 0 -101.5 -50t-40.5 -150zM411 622q-46 28 -134 106q-85 -74 -130 -106l-26 29q96 84 168 180q89 -113 157 -173z" />
    <glyph glyph-name="edieresis" unicode="&#xeb;" horiz-adv-x="540" 
d="M308 -9q-68 0 -113.5 11t-81.5 40.5t-52.5 83.5t-16.5 137q0 126 69.5 211t178.5 85q204 0 204 -264v-28h-362q3 -65 18.5 -108.5t43.5 -65.5t60 -30.5t77 -8.5q68 0 138 18l13 -41q-26 -17 -76 -28.5t-100 -11.5zM135 314h259q0 46 -4.5 79t-16.5 62t-36 44t-60 15
q-61 0 -101.5 -50t-40.5 -150zM161 665q-10 0 -36 26.5t-26 35.5q0 10 26.5 36t35.5 26q10 0 36.5 -26t26.5 -36q0 -8 -26 -35t-37 -27zM379 665q-10 0 -36 26.5t-26 35.5q0 10 26.5 36t35.5 26q10 0 36.5 -26t26.5 -36q0 -8 -26 -35t-37 -27z" />
    <glyph glyph-name="igrave" unicode="&#xec;" horiz-adv-x="366" 
d="M47 0q-3 22 -3 30l63 22q11 4 21 22t11 32l3 166v222h-102v37q99 22 149 22q21 0 30.5 -8t9.5 -28v-245l3 -197q0 -19 17 -22l87 -16q0 -23 -5 -37h-284zM222 623q-88 38 -209 141l56 64q72 -99 172 -175z" />
    <glyph glyph-name="iacute" unicode="&#xed;" horiz-adv-x="366" 
d="M47 0q-3 22 -3 30l63 22q11 4 21 22t11 32l3 166v222h-102v37q99 22 149 22q21 0 30.5 -8t9.5 -28v-245l3 -197q0 -19 17 -22l87 -16q0 -23 -5 -37h-284zM132 623l-19 30q100 76 172 175l56 -64q-121 -103 -209 -141z" />
    <glyph glyph-name="icircumflex" unicode="&#xee;" horiz-adv-x="366" 
d="M47 0q-3 22 -3 30l63 22q11 4 21 22t11 32l3 166v222h-102v37q99 22 149 22q21 0 30.5 -8t9.5 -28v-245l3 -197q0 -19 17 -22l87 -16q0 -23 -5 -37h-284zM303 622q-46 28 -134 106q-85 -74 -130 -106l-26 29q96 84 168 180q89 -113 157 -173z" />
    <glyph glyph-name="idieresis" unicode="&#xef;" horiz-adv-x="366" 
d="M47 0q-3 22 -3 30l63 22q11 4 21 22t11 32l3 166v222h-102v37q99 22 149 22q21 0 30.5 -8t9.5 -28v-245l3 -197q0 -19 17 -22l87 -16q0 -23 -5 -37h-284zM71 665q-10 0 -36 26.5t-26 35.5q0 10 26.5 36t35.5 26q10 0 36.5 -26t26.5 -36q0 -8 -26 -35t-37 -27zM289 665
q-10 0 -36 26.5t-26 35.5q0 10 26.5 36t35.5 26q10 0 36.5 -26t26.5 -36q0 -8 -26 -35t-37 -27z" />
    <glyph glyph-name="eth" unicode="&#xf0;" horiz-adv-x="596" 
d="M284 -7q-240 0 -240 270q0 113 74 202t175 89q72 0 120 -22q-20 83 -64 151l-149 -54l-17 47l136 49q-37 44 -106 98l38 43q87 -57 139 -115l146 53l17 -46l-130 -48q112 -155 114 -433q1 -112 -73.5 -198t-179.5 -86zM301 53q43 0 72 17.5t42.5 51t18.5 67.5t5 80
q0 229 -157 229q-142 0 -142 -222q0 -223 161 -223z" />
    <glyph glyph-name="ntilde" unicode="&#xf1;" horiz-adv-x="705" 
d="M54 0q-3 25 -3 29l46 20q14 6 24 25t10 42l2 157v221h-101v34q99 22 149 22q21 0 30 -8t9 -28v-33q105 76 206 76q44 0 75 -9.5t48.5 -24t27 -40t12 -49.5t2.5 -61v-100l3 -200q0 -11 4 -15t15 -6l72 -14q0 -24 -5 -38h-248q-4 27 -3 34l43 19q12 5 20.5 24.5t8.5 34.5
l3 161v84q0 78 -23.5 105.5t-97.5 27.5q-75 0 -163 -44v-173l4 -189q0 -18 3 -24t16 -8l94 -16q0 -22 -5 -36h-278zM434 662q-25 0 -90.5 22.5t-84.5 22.5q-42 0 -67 -23l-20 21q48 73 96 73q27 0 100 -21.5t95 -21.5q27 0 52 17l20 -21q-14 -24 -41.5 -46.5t-59.5 -22.5z
" />
    <glyph glyph-name="ograve" unicode="&#xf2;" horiz-adv-x="581" 
d="M284 -7q-240 0 -240 270q0 113 74 202t175 89q123 0 183.5 -67t60.5 -210q0 -112 -74 -198t-179 -86zM301 53q43 0 72 17.5t42.5 51t18.5 67.5t5 80q0 229 -157 229q-142 0 -142 -222q0 -223 161 -223zM368 623q-88 38 -209 141l56 64q72 -99 172 -175z" />
    <glyph glyph-name="oacute" unicode="&#xf3;" horiz-adv-x="581" 
d="M284 -7q-240 0 -240 270q0 113 74 202t175 89q123 0 183.5 -67t60.5 -210q0 -112 -74 -198t-179 -86zM301 53q43 0 72 17.5t42.5 51t18.5 67.5t5 80q0 229 -157 229q-142 0 -142 -222q0 -223 161 -223zM223 623l-19 30q100 76 172 175l56 -64q-121 -103 -209 -141z" />
    <glyph glyph-name="ocircumflex" unicode="&#xf4;" horiz-adv-x="581" 
d="M284 -7q-240 0 -240 270q0 113 74 202t175 89q123 0 183.5 -67t60.5 -210q0 -112 -74 -198t-179 -86zM301 53q43 0 72 17.5t42.5 51t18.5 67.5t5 80q0 229 -157 229q-142 0 -142 -222q0 -223 161 -223zM429 622q-46 28 -134 106q-85 -74 -130 -106l-26 29q96 84 168 180
q89 -113 157 -173z" />
    <glyph glyph-name="otilde" unicode="&#xf5;" horiz-adv-x="581" 
d="M284 -7q-240 0 -240 270q0 113 74 202t175 89q123 0 183.5 -67t60.5 -210q0 -112 -74 -198t-179 -86zM301 53q43 0 72 17.5t42.5 51t18.5 67.5t5 80q0 229 -157 229q-142 0 -142 -222q0 -223 161 -223zM372 662q-25 0 -90.5 22.5t-84.5 22.5q-42 0 -67 -23l-20 21
q48 73 96 73q27 0 100 -21.5t95 -21.5q27 0 52 17l20 -21q-14 -24 -41.5 -46.5t-59.5 -22.5z" />
    <glyph glyph-name="odieresis" unicode="&#xf6;" horiz-adv-x="581" 
d="M284 -7q-240 0 -240 270q0 113 74 202t175 89q123 0 183.5 -67t60.5 -210q0 -112 -74 -198t-179 -86zM301 53q43 0 72 17.5t42.5 51t18.5 67.5t5 80q0 229 -157 229q-142 0 -142 -222q0 -223 161 -223zM181 665q-10 0 -36 26.5t-26 35.5q0 10 26.5 36t35.5 26
q10 0 36.5 -26t26.5 -36q0 -8 -26 -35t-37 -27zM399 665q-10 0 -36 26.5t-26 35.5q0 10 26.5 36t35.5 26q10 0 36.5 -26t26.5 -36q0 -8 -26 -35t-37 -27z" />
    <glyph glyph-name="divide" unicode="&#xf7;" 
d="M305 36q-10 0 -37 28t-27 38t27.5 37t36.5 27q10 0 37.5 -27t27.5 -37q0 -9 -27 -37.5t-38 -28.5zM304 427q-10 0 -37 28t-27 38t27.5 37t36.5 27q10 0 37.5 -27t27.5 -37q0 -9 -27 -37.5t-38 -28.5zM60 270v65h480v-65h-480z" />
    <glyph glyph-name="oslash" unicode="&#xf8;" horiz-adv-x="581" 
d="M45 -33l-31 27l76 83q-46 66 -46 186q0 113 74 202t175 89q107 0 167 -50l64 79l32 -27l-68 -84q49 -67 49 -195q0 -112 -74 -198t-179 -86q-107 0 -166 52zM301 53q43 0 72 17.5t42.5 51t18.5 67.5t5 80q0 76 -16 124l-245 -282q41 -58 123 -58zM158 152l245 284
q-39 62 -121 62q-142 0 -142 -222q0 -73 18 -124z" />
    <glyph glyph-name="ugrave" unicode="&#xf9;" horiz-adv-x="680" 
d="M263 -7q-91 0 -122 41.5t-31 122.5v337h-90v35q88 22 141 22q21 0 29.5 -8t8.5 -28v-236l3 -104q1 -24 2 -37t5.5 -31.5t13 -27.5t24 -16t38.5 -7q37 0 90 18.5t75 34.5l2 163v222h-101v34q89 23 149 23q21 0 30 -8t9 -28v-242l3 -209h111l3 -29q-75 -41 -131 -41
q-73 0 -73 76q-34 -25 -49.5 -35.5t-57 -26t-82.5 -15.5zM392 623q-88 38 -209 141l56 64q72 -99 172 -175z" />
    <glyph glyph-name="uacute" unicode="&#xfa;" horiz-adv-x="680" 
d="M263 -7q-91 0 -122 41.5t-31 122.5v337h-90v35q88 22 141 22q21 0 29.5 -8t8.5 -28v-236l3 -104q1 -24 2 -37t5.5 -31.5t13 -27.5t24 -16t38.5 -7q37 0 90 18.5t75 34.5l2 163v222h-101v34q89 23 149 23q21 0 30 -8t9 -28v-242l3 -209h111l3 -29q-75 -41 -131 -41
q-73 0 -73 76q-34 -25 -49.5 -35.5t-57 -26t-82.5 -15.5zM273 623l-19 30q100 76 172 175l56 -64q-121 -103 -209 -141z" />
    <glyph glyph-name="ucircumflex" unicode="&#xfb;" horiz-adv-x="680" 
d="M263 -7q-91 0 -122 41.5t-31 122.5v337h-90v35q88 22 141 22q21 0 29.5 -8t8.5 -28v-236l3 -104q1 -24 2 -37t5.5 -31.5t13 -27.5t24 -16t38.5 -7q37 0 90 18.5t75 34.5l2 163v222h-101v34q89 23 149 23q21 0 30 -8t9 -28v-242l3 -209h111l3 -29q-75 -41 -131 -41
q-73 0 -73 76q-34 -25 -49.5 -35.5t-57 -26t-82.5 -15.5zM460 622q-46 28 -134 106q-85 -74 -130 -106l-26 29q96 84 168 180q89 -113 157 -173z" />
    <glyph glyph-name="udieresis" unicode="&#xfc;" horiz-adv-x="680" 
d="M263 -7q-91 0 -122 41.5t-31 122.5v337h-90v35q88 22 141 22q21 0 29.5 -8t8.5 -28v-236l3 -104q1 -24 2 -37t5.5 -31.5t13 -27.5t24 -16t38.5 -7q37 0 90 18.5t75 34.5l2 163v222h-101v34q89 23 149 23q21 0 30 -8t9 -28v-242l3 -209h111l3 -29q-75 -41 -131 -41
q-73 0 -73 76q-34 -25 -49.5 -35.5t-57 -26t-82.5 -15.5zM217 665q-10 0 -36 26.5t-26 35.5q0 10 26.5 36t35.5 26q10 0 36.5 -26t26.5 -36q0 -8 -26 -35t-37 -27zM435 665q-10 0 -36 26.5t-26 35.5q0 10 26.5 36t35.5 26q10 0 36.5 -26t26.5 -36q0 -8 -26 -35t-37 -27z" />
    <glyph glyph-name="yacute" unicode="&#xfd;" horiz-adv-x="570" 
d="M114 -316l-51 80q68 29 104 69t61 101l21 50l-166 454q-19 53 -53 76q0 22 4 32h201q0 -27 -4 -38h-66l138 -418l121 329q9 25 9 43q0 31 -27 41l-29 10q0 23 3 33h162q0 -20 -2 -27q-30 -24 -56 -91l-207 -523q-34 -85 -65.5 -129.5t-97.5 -91.5zM260 623l-19 30
q100 76 172 175l56 -64q-121 -103 -209 -141z" />
    <glyph glyph-name="thorn" unicode="&#xfe;" horiz-adv-x="628" 
d="M53 -294q-4 22 -3 33l36 15q37 16 37 63l3 458v532h-101v35q110 22 149 22q21 0 30 -8t9 -28v-335q70 59 146 59q224 0 224 -263q0 -82 -22.5 -142t-61.5 -92.5t-85 -47.5t-100 -15t-95 6l6 -218q0 -7 0.5 -10.5t5 -7t13.5 -4.5l80 -15q2 -22 -4 -37h-267zM317 44
q85 0 127 63t42 162q0 55 -13 104t-48 86.5t-87 37.5q-71 0 -124 -41v-183l3 -221q50 -8 100 -8z" />
    <glyph glyph-name="ydieresis" unicode="&#xff;" horiz-adv-x="570" 
d="M114 -316l-51 80q68 29 104 69t61 101l21 50l-166 454q-19 53 -53 76q0 22 4 32h201q0 -27 -4 -38h-66l138 -418l121 329q9 25 9 43q0 31 -27 41l-29 10q0 23 3 33h162q0 -20 -2 -27q-30 -24 -56 -91l-207 -523q-34 -85 -65.5 -129.5t-97.5 -91.5zM176 665
q-10 0 -36 26.5t-26 35.5q0 10 26.5 36t35.5 26q10 0 36.5 -26t26.5 -36q0 -8 -26 -35t-37 -27zM394 665q-10 0 -36 26.5t-26 35.5q0 10 26.5 36t35.5 26q10 0 36.5 -26t26.5 -36q0 -8 -26 -35t-37 -27z" />
    <glyph glyph-name="Amacron" unicode="&#x100;" horiz-adv-x="733" 
d="M27 0q-4 11 -4 30q4 3 12 9.5t12 9.5q25 19 43 61l258 629l72 26l212 -638q19 -54 52 -82q3 -3 8.5 -8t8.5 -7q0 -16 -5 -30h-264q-2 14 -2 15q-1 4 -1 15l71 21q18 5 25 29t0 46l-55 190h-236l-76 -200q-8 -23 4.5 -41.5t42.5 -28.5q9 -2 26 -8t25 -8q0 -16 -5 -30h-224
zM228 802v62h298v-62h-298zM253 367h202l-65 221l-20 78h-7q-4 -12 -12 -38l-6.5 -19l-6.5 -19z" />
    <glyph glyph-name="amacron" unicode="&#x101;" horiz-adv-x="581" 
d="M172 -8q-57 0 -94.5 33t-37.5 94q0 36 15.5 64.5t37 45t56.5 29.5t61.5 18t65.5 11l84 11v92q0 59 -32 84t-106 25q-64 0 -133 -21l-12 40q96 39 172 39q30 0 49 -1t50.5 -9t50 -22t33 -42.5t14.5 -69.5v-140l7 -209h104l5 -29q-12 -12 -57 -26.5t-71 -14.5
q-25 0 -40.5 7t-22 21.5t-8.5 26t-2 30.5q-84 -87 -189 -87zM208 66q72 0 152 40v147l-78 -11q-149 -20 -149 -107q0 -27 18 -48t57 -21zM106 704v60h298v-60h-298z" />
    <glyph glyph-name="Abreve" unicode="&#x102;" horiz-adv-x="733" 
d="M27 0q-4 11 -4 30q4 3 12 9.5t12 9.5q25 19 43 61l258 629l72 26l212 -638q19 -54 52 -82q3 -3 8.5 -8t8.5 -7q0 -16 -5 -30h-264q-2 14 -2 15q-1 4 -1 15l71 21q18 5 25 29t0 46l-55 190h-236l-76 -200q-8 -23 4.5 -41.5t42.5 -28.5q9 -2 26 -8t25 -8q0 -16 -5 -30h-224
zM387 804q-38 0 -70.5 11.5t-53 30t-29.5 29.5t-14 20l39 37q13 -16 48.5 -35.5t83.5 -19.5q33 0 64 12t45 23t21 19l14 -14.5l14 -14.5q-57 -98 -162 -98zM253 367h202l-65 221l-20 78h-7q-4 -12 -12 -38l-6.5 -19l-6.5 -19z" />
    <glyph glyph-name="abreve" unicode="&#x103;" horiz-adv-x="581" 
d="M172 -8q-57 0 -94.5 33t-37.5 94q0 36 15.5 64.5t37 45t56.5 29.5t61.5 18t65.5 11l84 11v92q0 59 -32 84t-106 25q-64 0 -133 -21l-12 40q96 39 172 39q30 0 49 -1t50.5 -9t50 -22t33 -42.5t14.5 -69.5v-140l7 -209h104l5 -29q-12 -12 -57 -26.5t-71 -14.5
q-25 0 -40.5 7t-22 21.5t-8.5 26t-2 30.5q-84 -87 -189 -87zM208 66q72 0 152 40v147l-78 -11q-149 -20 -149 -107q0 -27 18 -48t57 -21zM262 666q-38 0 -70.5 11.5t-53 30t-29.5 29.5t-14 20l39 37q13 -16 48.5 -35.5t83.5 -19.5q33 0 64 12t45 23t21 19l28 -29
q-57 -98 -162 -98z" />
    <glyph glyph-name="Aogonek" unicode="&#x104;" horiz-adv-x="733" 
d="M500 -261q-60 0 -90.5 29t-30.5 76q0 78 80 145q27 23 58 46q17 14 17 42q0 15 -9 49l-55 190h-236l-76 -200q-8 -23 4.5 -41.5t42.5 -28.5q9 -2 26 -8t25 -8q0 -16 -5 -30h-224q-4 11 -4 30q4 3 12 9.5t12 9.5q25 19 43 61l258 629l72 26l212 -638q19 -54 52 -82
q3 -3 8.5 -8t8.5 -7q0 -16 -5 -30h-83q-158 0 -158 -130q0 -44 23 -64.5t52 -20.5v0q27 0 64 21l8.5 -20.5t7.5 -20.5q-46 -26 -110 -26zM253 367h202l-65 221l-20 78h-7q-4 -12 -12 -38l-6.5 -19l-6.5 -19z" />
    <glyph glyph-name="aogonek" unicode="&#x105;" horiz-adv-x="581" 
d="M460 -261q-60 0 -90.5 29.5t-30.5 76.5q0 75 92 149q-23 0 -38 7.5t-21.5 21.5t-8.5 25.5t-2 30.5q-15 -16 -35.5 -32.5t-65 -35.5t-88.5 -19q-57 0 -94.5 33t-37.5 94q0 130 190 161l130 19v91q0 59 -32 84t-106 25q-64 0 -133 -21l-12 40q96 39 172 39q30 0 49 -1
t50.5 -9t50 -22t33 -42.5t14.5 -69.5v-140l7 -209h104l5 -29q-59 -23 -103 -70t-44 -99q0 -34 18.5 -54.5t52.5 -20.5q30 0 66 20l18 -45q-47 -27 -110 -27zM208 66q64 0 152 40v147q-73 -8 -124 -20q-103 -24 -103 -98q0 -27 18 -48t57 -21z" />
    <glyph glyph-name="Cacute" unicode="&#x106;" horiz-adv-x="672" 
d="M420 -7q-176 0 -270.5 94.5t-94.5 277.5q0 94 45.5 181.5t130 145t185.5 57.5q98 0 157 -21l23.5 -10t16.5 -7v-146h-35q-43 121 -166 121q-119 0 -189 -73t-70 -228q0 -150 80 -237t205 -87q84 0 165 22q2 -7 6.5 -21.5t6.5 -21.5q-26 -13 -43 -20q-66 -27 -153 -27z
M314 776q-2 6 -5 17t-5 17q122 45 219 110l31 -71q-144 -63 -240 -73z" />
    <glyph glyph-name="cacute" unicode="&#x107;" horiz-adv-x="497" 
d="M297 -9q-139 0 -196 61.5t-57 215.5q0 114 72 202.5t187 88.5q162 0 162 -65q0 -43 -41 -70q-24 29 -60.5 54.5t-72.5 25.5q-81 0 -118.5 -51t-37.5 -166q0 -51 8 -90t27.5 -73.5t57.5 -53t92 -18.5q65 0 128 23l13 -36q-72 -48 -164 -48zM223 623l-19 30q100 76 172 175
l56 -64q-121 -103 -209 -141z" />
    <glyph glyph-name="Ccircumflex" unicode="&#x108;" horiz-adv-x="672" 
d="M420 -7q-176 0 -270.5 94.5t-94.5 277.5q0 94 45.5 181.5t130 145t185.5 57.5q98 0 157 -21l23.5 -10t16.5 -7v-146h-35q-43 121 -166 121q-119 0 -189 -73t-70 -228q0 -150 80 -237t205 -87q84 0 165 22q2 -7 6.5 -21.5t6.5 -21.5q-26 -13 -43 -20q-66 -27 -153 -27z
M262 761l-20 33q43 22 91 60t75 65l26 27q105 -112 181 -150l-25 -33q-31 9 -72 29.5t-67 36.5l-26 16q-66 -49 -163 -84z" />
    <glyph glyph-name="ccircumflex" unicode="&#x109;" horiz-adv-x="497" 
d="M297 -9q-139 0 -196 61.5t-57 215.5q0 114 72 202.5t187 88.5q162 0 162 -65q0 -43 -41 -70q-24 29 -60.5 54.5t-72.5 25.5q-81 0 -118.5 -51t-37.5 -166q0 -51 8 -90t27.5 -73.5t57.5 -53t92 -18.5q65 0 128 23l13 -36q-72 -48 -164 -48zM436 622q-46 28 -134 106
q-85 -74 -130 -106l-26 29q96 84 168 180q89 -113 157 -173z" />
    <glyph glyph-name="Cdotaccent" unicode="&#x10a;" horiz-adv-x="672" 
d="M420 -7q-176 0 -270.5 94.5t-94.5 277.5q0 94 45.5 181.5t130 145t185.5 57.5q98 0 157 -21l23.5 -10t16.5 -7v-146h-35q-43 121 -166 121q-119 0 -189 -73t-70 -228q0 -150 80 -237t205 -87q84 0 165 22q2 -7 6.5 -21.5t6.5 -21.5q-26 -13 -43 -20q-66 -27 -153 -27z
M422 787q-10 0 -37.5 28t-27.5 38q0 11 28 38t37 27q10 0 38 -27.5t28 -37.5q0 -9 -27.5 -37.5t-38.5 -28.5z" />
    <glyph glyph-name="cdotaccent" unicode="&#x10b;" horiz-adv-x="497" 
d="M297 -9q-139 0 -196 61.5t-57 215.5q0 114 72 202.5t187 88.5q162 0 162 -65q0 -43 -41 -70q-24 29 -60.5 54.5t-72.5 25.5q-81 0 -118.5 -51t-37.5 -166q0 -51 8 -90t27.5 -73.5t57.5 -53t92 -18.5q65 0 128 23l13 -36q-72 -48 -164 -48zM315 690q-12 0 -43 32t-31 43
q0 12 31 43t43 31q11 0 43 -31.5t32 -42.5q0 -10 -31.5 -42.5t-43.5 -32.5z" />
    <glyph glyph-name="Ccaron" unicode="&#x10c;" horiz-adv-x="672" 
d="M420 -7q-176 0 -270.5 94.5t-94.5 277.5q0 94 45.5 181.5t130 145t185.5 57.5q98 0 157 -21l23.5 -10t16.5 -7v-146h-35q-43 121 -166 121q-119 0 -189 -73t-70 -228q0 -150 80 -237t205 -87q84 0 165 22q2 -7 6.5 -21.5t6.5 -21.5q-26 -13 -43 -20q-66 -27 -153 -27z
M401 761l-8 8q-102 106 -173 142l25 33q31 -9 72 -29.5t67 -36.5l26 -16q66 49 163 84l20 -33q-43 -22 -91 -60t-74 -65z" />
    <glyph glyph-name="ccaron" unicode="&#x10d;" horiz-adv-x="497" 
d="M297 -9q-139 0 -196 61.5t-57 215.5q0 114 72 202.5t187 88.5q162 0 162 -65q0 -43 -41 -70q-24 29 -60.5 54.5t-72.5 25.5q-81 0 -118.5 -51t-37.5 -166q0 -51 8 -90t27.5 -73.5t57.5 -53t92 -18.5q65 0 128 23l13 -36q-72 -48 -164 -48zM288 606q-89 113 -157 173
l35 36q46 -28 134 -106q85 74 130 106l26 -29q-96 -84 -168 -180z" />
    <glyph glyph-name="Dcaron" unicode="&#x10e;" horiz-adv-x="788" 
d="M32 0q-1 8 -3 18q-1 7 0 16l68 18q37 10 39 68q0 25 1 76.5t1 77.5v375q0 28 -23 36l-74 24q-2 13 4 28h281q72 0 130 -9.5t110 -34t86.5 -63.5t54.5 -100.5t20 -143.5q0 -181 -107 -283.5t-287 -102.5h-301zM235 52h108q272 0 274 316q0 152 -75.5 233.5t-217.5 81.5
h-95v-410zM350 761l-8 8q-102 106 -173 142l25 33q31 -9 72 -29.5t67 -36.5l26 -16q66 49 163 84l20 -33q-43 -22 -91 -60t-75 -65z" />
    <glyph glyph-name="dcaron" unicode="&#x10f;" horiz-adv-x="657" 
d="M264 -8q-43 0 -78.5 11t-69 37.5t-53 80t-19.5 130.5q0 135 74.5 219t182.5 84q61 0 111 -11v265h-102v33q92 23 149 23q21 0 30.5 -8t9.5 -28v-555l4 -208h101l4 -28q-76 -45 -144 -45q-17 0 -28 5.5t-15.5 17t-6 21.5t-1.5 26q-78 -70 -149 -70zM288 63q52 0 122 35
l2 175v209q-67 24 -114 24q-48 0 -80.5 -18.5t-49 -53.5t-23 -75.5t-6.5 -95.5q0 -97 39.5 -148.5t109.5 -51.5zM597 618l-34 9q24 111 24 237l83 -4q-5 -118 -73 -242z" />
    <glyph glyph-name="Dcroat" unicode="&#x110;" horiz-adv-x="788" 
d="M32 0q-1 8 -3 18q-1 7 0 16l68 18q37 10 39 68q0 25 1 76.5t1 77.5v79h-97v52h97v244q0 28 -23 36l-74 24q-2 13 4 28h281q72 0 130 -9.5t110 -34t86.5 -63.5t54.5 -100.5t20 -143.5q0 -181 -107 -283.5t-287 -102.5h-301zM235 52h108q272 0 274 316q0 152 -75.5 233.5
t-217.5 81.5h-95v-278h160v-52h-160v-80z" />
    <glyph glyph-name="dcroat" unicode="&#x111;" horiz-adv-x="627" 
d="M264 -8q-43 0 -78.5 11t-69 37.5t-53 80t-19.5 130.5q0 135 74.5 219t182.5 84q61 0 111 -11v112h-178v53h178v100h-102v33q92 23 149 23q21 0 30.5 -8t9.5 -28v-120h83v-53h-83v-382l4 -208h101l4 -28q-76 -45 -144 -45q-17 0 -28 5.5t-15.5 17t-6 21.5t-1.5 26
q-78 -70 -149 -70zM288 63q52 0 122 35l2 175v209q-67 24 -114 24q-48 0 -80.5 -18.5t-49 -53.5t-23 -75.5t-6.5 -95.5q0 -97 39.5 -148.5t109.5 -51.5z" />
    <glyph glyph-name="Emacron" unicode="&#x112;" horiz-adv-x="641" 
d="M32 0q-1 8 -3 18q-1 7 0 17l68 18q37 10 39 58l3 163v372q0 31 -24 40l-75 26q-1 9 5 25h508v-146q-6 -2 -22 -2q-4 0 -10.5 0.5t-9.5 0.5q-9 47 -26.5 68t-53.5 22l-202 6v-290q45 1 135.5 2.5t136.5 2.5v-62q-46 1 -136.5 2.5t-135.5 2.5v-71q1 -37 2.5 -110.5
t2.5 -110.5l198 3q50 1 82 31.5t46 71.5q6 -1 17 -3.5t17 -3.5l-18 -151h-544zM187 802v62h298v-62h-298z" />
    <glyph glyph-name="emacron" unicode="&#x113;" horiz-adv-x="540" 
d="M308 -9q-68 0 -113.5 11t-81.5 40.5t-52.5 83.5t-16.5 137q0 126 69.5 211t178.5 85q204 0 204 -264v-28h-362q3 -65 18.5 -108.5t43.5 -65.5t60 -30.5t77 -8.5q68 0 138 18l13 -41q-26 -17 -76 -28.5t-100 -11.5zM135 314h259q0 46 -4.5 79t-16.5 62t-36 44t-60 15
q-61 0 -101.5 -50t-40.5 -150zM118 704v60h298v-60h-298z" />
    <glyph glyph-name="Ebreve" unicode="&#x114;" horiz-adv-x="641" 
d="M32 0q-1 8 -3 18q-1 7 0 17l68 18q37 10 39 58l3 163v372q0 31 -24 40l-75 26q-1 9 5 25h508v-146q-6 -2 -22 -2q-4 0 -10.5 0.5t-9.5 0.5q-9 47 -26.5 68t-53.5 22l-202 6v-290q45 1 135.5 2.5t136.5 2.5v-62q-46 1 -136.5 2.5t-135.5 2.5v-71q1 -37 2.5 -110.5
t2.5 -110.5l198 3q50 1 82 31.5t46 71.5q6 -1 17 -3.5t17 -3.5l-18 -151h-544zM332 804q-38 0 -70.5 11.5t-53 30t-29.5 29.5t-14 20l39 37q13 -16 48.5 -35.5t83.5 -19.5q33 0 64 12t45 23t21 19l14.5 -14.5t13.5 -14.5q-57 -98 -162 -98z" />
    <glyph glyph-name="ebreve" unicode="&#x115;" horiz-adv-x="540" 
d="M308 -9q-68 0 -113.5 11t-81.5 40.5t-52.5 83.5t-16.5 137q0 126 69.5 211t178.5 85q204 0 204 -264v-28h-362q3 -65 18.5 -108.5t43.5 -65.5t60 -30.5t77 -8.5q68 0 138 18l13 -41q-26 -17 -76 -28.5t-100 -11.5zM135 314h259q0 46 -4.5 79t-16.5 62t-36 44t-60 15
q-61 0 -101.5 -50t-40.5 -150zM286 666q-38 0 -70.5 11.5t-53 30t-29.5 29.5t-14 20l39 37q13 -16 48.5 -35.5t83.5 -19.5q33 0 64 12t45 23t21 19l28 -29q-57 -98 -162 -98z" />
    <glyph glyph-name="Edotaccent" unicode="&#x116;" horiz-adv-x="641" 
d="M32 0q-1 8 -3 18q-1 7 0 17l68 18q37 10 39 58l3 163v372q0 31 -24 40l-75 26q-1 9 5 25h508v-146q-6 -2 -22 -2q-4 0 -10.5 0.5t-9.5 0.5q-9 47 -26.5 68t-53.5 22l-202 6v-290q45 1 135.5 2.5t136.5 2.5v-62q-46 1 -136.5 2.5t-135.5 2.5v-71q1 -37 2.5 -110.5
t2.5 -110.5l198 3q50 1 82 31.5t46 71.5q6 -1 17 -3.5t17 -3.5l-18 -151h-544zM333 787q-10 0 -37.5 28t-27.5 38q0 11 28 38t37 27q10 0 38 -27.5t28 -37.5q0 -9 -27.5 -37.5t-38.5 -28.5z" />
    <glyph glyph-name="edotaccent" unicode="&#x117;" horiz-adv-x="540" 
d="M308 -9q-68 0 -113.5 11t-81.5 40.5t-52.5 83.5t-16.5 137q0 126 69.5 211t178.5 85q204 0 204 -264v-28h-362q3 -65 18.5 -108.5t43.5 -65.5t60 -30.5t77 -8.5q68 0 138 18l13 -41q-26 -17 -76 -28.5t-100 -11.5zM135 314h259q0 46 -4.5 79t-16.5 62t-36 44t-60 15
q-61 0 -101.5 -50t-40.5 -150zM280 690q-12 0 -43 32t-31 43q0 12 31 43t43 31q11 0 43 -31.5t32 -42.5q0 -10 -31.5 -42.5t-43.5 -32.5z" />
    <glyph glyph-name="Eogonek" unicode="&#x118;" horiz-adv-x="641" 
d="M479 -261q-124 0 -124 93q0 50 38.5 93t100.5 75h-462q-1 8 -3 18q-1 7 0 17l68 18q37 10 39 58l3 163v372q0 31 -24 40l-75 26q-1 9 5 25h508v-146q-6 -2 -22 -2q-4 0 -10.5 0.5t-9.5 0.5q-9 47 -26.5 68t-53.5 22l-202 6v-290q45 1 135.5 2.5t136.5 2.5v-62
q-46 1 -136.5 2.5t-135.5 2.5v-71q1 -37 2.5 -110.5t2.5 -110.5l198 3q50 1 82 31.5t46 71.5q6 -1 17 -3.5t17 -3.5l-18 -151q-145 -51 -145 -141q0 -23 7 -40q17 -38 61 -38q34 0 72 30l18 -43q-51 -29 -110 -29z" />
    <glyph glyph-name="eogonek" unicode="&#x119;" horiz-adv-x="540" 
d="M387 -261q-60 0 -90.5 29.5t-30.5 76.5q0 75 98 149q-26 -3 -56 -3q-68 0 -113.5 11t-81.5 40.5t-52.5 83.5t-16.5 137q0 126 69.5 211t178.5 85q204 0 204 -264v-28h-362q3 -65 18.5 -108.5t43.5 -65.5t60 -30.5t77 -8.5q68 0 138 18l13 -42q-39 -15 -74 -45
q-66 -57 -66 -123q0 -38 18.5 -59t44.5 -21q38 0 73 27l17 -43q-47 -27 -110 -27zM135 314h259q0 46 -4.5 79t-16.5 62t-36 44t-60 15q-61 0 -101.5 -50t-40.5 -150z" />
    <glyph glyph-name="Ecaron" unicode="&#x11a;" horiz-adv-x="641" 
d="M32 0q-1 8 -3 18q-1 7 0 17l68 18q37 10 39 58l3 163v372q0 31 -24 40l-75 26q-1 9 5 25h508v-146q-6 -2 -22 -2q-4 0 -10.5 0.5t-9.5 0.5q-9 47 -26.5 68t-53.5 22l-202 6v-290q45 1 135.5 2.5t136.5 2.5v-62q-46 1 -136.5 2.5t-135.5 2.5v-71q1 -37 2.5 -110.5
t2.5 -110.5l198 3q50 1 82 31.5t46 71.5q6 -1 17 -3.5t17 -3.5l-18 -151h-544zM329 761l-8 8q-102 106 -173 142l25 33q31 -9 72 -29.5t67 -36.5l26 -16q66 49 163 84l20 -33q-43 -22 -91 -60t-74 -65z" />
    <glyph glyph-name="ecaron" unicode="&#x11b;" horiz-adv-x="540" 
d="M308 -9q-68 0 -113.5 11t-81.5 40.5t-52.5 83.5t-16.5 137q0 126 69.5 211t178.5 85q204 0 204 -264v-28h-362q3 -65 18.5 -108.5t43.5 -65.5t60 -30.5t77 -8.5q68 0 138 18l13 -41q-26 -17 -76 -28.5t-100 -11.5zM135 314h259q0 46 -4.5 79t-16.5 62t-36 44t-60 15
q-61 0 -101.5 -50t-40.5 -150zM274 606q-89 113 -157 173l35 36q46 -28 134 -106q85 74 130 106l26 -29q-96 -84 -168 -180z" />
    <glyph glyph-name="Gcircumflex" unicode="&#x11c;" horiz-adv-x="731" 
d="M420 -7q-176 0 -270.5 94.5t-94.5 277.5q0 93 48 181.5t135 146t188 57.5q118 0 227 -44v-141h-35q-21 58 -73 89.5t-123 31.5q-120 0 -194.5 -73.5t-74.5 -227.5q0 -151 80 -239t205 -88q80 0 123 12v242h91v-253q-102 -66 -232 -66zM266 761l-20 33q43 22 91 60t75 65
l26 27q105 -112 181 -150l-25 -33q-31 9 -72 29.5t-67 36.5l-26 16q-66 -49 -163 -84z" />
    <glyph glyph-name="gcircumflex" unicode="&#x11d;" horiz-adv-x="609" 
d="M254 -303q-218 0 -218 135q0 46 31.5 92.5t74.5 76.5q-25 2 -43.5 17t-18.5 38q0 64 70 147q-34 19 -56 62.5t-22 84.5q0 85 62 146.5t147 61.5q103 0 144 -37l164 32v-72h-121q25 -42 25 -109q0 -81 -62 -139t-144 -58q-77 0 -123 22v-121h169q226 0 226 -156
q0 -68 -52 -121t-120 -77.5t-133 -24.5zM303 -240q74 0 121.5 34t47.5 94q0 58 -41.5 82t-121.5 24h-137q-46 -56 -46 -116q0 -32 10 -54.5t25 -34.5t40 -19t47 -8.5t55 -1.5zM291 222q53 0 80 40t27 96q0 60 -28.5 108t-84.5 48q-125 0 -125 -145q0 -68 32.5 -107.5
t98.5 -39.5zM411 622q-46 28 -134 106q-85 -74 -130 -106l-26 29q96 84 168 180q89 -113 157 -173z" />
    <glyph glyph-name="Gbreve" unicode="&#x11e;" horiz-adv-x="731" 
d="M420 -7q-176 0 -270.5 94.5t-94.5 277.5q0 93 48 181.5t135 146t188 57.5q118 0 227 -44v-141h-35q-21 58 -73 89.5t-123 31.5q-120 0 -194.5 -73.5t-74.5 -227.5q0 -151 80 -239t205 -88q80 0 123 12v242h91v-253q-102 -66 -232 -66zM414 804q-38 0 -70.5 11.5t-53 30
t-29.5 29.5t-14 20l39 37q13 -16 48.5 -35.5t83.5 -19.5q33 0 64 12t45 23t21 19q4 -5 13.5 -14.5l14.5 -14.5q-57 -98 -162 -98z" />
    <glyph glyph-name="gbreve" unicode="&#x11f;" horiz-adv-x="609" 
d="M254 -303q-218 0 -218 135q0 46 31.5 92.5t74.5 76.5q-25 2 -43.5 17t-18.5 38q0 64 70 147q-34 19 -56 62.5t-22 84.5q0 85 62 146.5t147 61.5q103 0 144 -37l164 32v-72h-121q25 -42 25 -109q0 -81 -62 -139t-144 -58q-77 0 -123 22v-121h169q226 0 226 -156
q0 -68 -52 -121t-120 -77.5t-133 -24.5zM303 -240q74 0 121.5 34t47.5 94q0 58 -41.5 82t-121.5 24h-137q-46 -56 -46 -116q0 -32 10 -54.5t25 -34.5t40 -19t47 -8.5t55 -1.5zM291 222q53 0 80 40t27 96q0 60 -28.5 108t-84.5 48q-125 0 -125 -145q0 -68 32.5 -107.5
t98.5 -39.5zM283 666q-38 0 -70.5 11.5t-53 30t-29.5 29.5t-14 20l39 37q13 -16 48.5 -35.5t83.5 -19.5q33 0 64 12t45 23t21 19l28 -29q-57 -98 -162 -98z" />
    <glyph glyph-name="Gdotaccent" unicode="&#x120;" horiz-adv-x="731" 
d="M420 -7q-176 0 -270.5 94.5t-94.5 277.5q0 93 48 181.5t135 146t188 57.5q118 0 227 -44v-141h-35q-21 58 -73 89.5t-123 31.5q-120 0 -194.5 -73.5t-74.5 -227.5q0 -151 80 -239t205 -88q80 0 123 12v242h91v-253q-102 -66 -232 -66zM436 787q-10 0 -37.5 28t-27.5 38
q0 11 28 38t37 27q10 0 38 -27.5t28 -37.5q0 -9 -27.5 -37.5t-38.5 -28.5z" />
    <glyph glyph-name="gdotaccent" unicode="&#x121;" horiz-adv-x="609" 
d="M254 -303q-218 0 -218 135q0 46 31.5 92.5t74.5 76.5q-25 2 -43.5 17t-18.5 38q0 64 70 147q-34 19 -56 62.5t-22 84.5q0 85 62 146.5t147 61.5q103 0 144 -37l164 32v-72h-121q25 -42 25 -109q0 -81 -62 -139t-144 -58q-77 0 -123 22v-121h169q226 0 226 -156
q0 -68 -52 -121t-120 -77.5t-133 -24.5zM303 -240q74 0 121.5 34t47.5 94q0 58 -41.5 82t-121.5 24h-137q-46 -56 -46 -116q0 -32 10 -54.5t25 -34.5t40 -19t47 -8.5t55 -1.5zM291 222q53 0 80 40t27 96q0 60 -28.5 108t-84.5 48q-125 0 -125 -145q0 -68 32.5 -107.5
t98.5 -39.5zM291 690q-12 0 -43 32t-31 43q0 12 31 43t43 31q11 0 43 -31.5t32 -42.5q0 -10 -31.5 -42.5t-43.5 -32.5z" />
    <glyph glyph-name="Gcommaaccent" unicode="&#x122;" horiz-adv-x="731" 
d="M420 -7q-176 0 -270.5 94.5t-94.5 277.5q0 93 48 181.5t135 146t188 57.5q118 0 227 -44v-141h-35q-21 58 -73 89.5t-123 31.5q-120 0 -194.5 -73.5t-74.5 -227.5q0 -151 80 -239t205 -88q80 0 123 12v242h91v-253q-102 -66 -232 -66zM412 -286l-34 9q24 111 24 237
q14 -1 41.5 -2.5t41.5 -1.5q-5 -118 -73 -242z" />
    <glyph glyph-name="gcommaaccent" unicode="&#x123;" horiz-adv-x="609" 
d="M254 -303q-218 0 -218 135q0 46 31.5 92.5t74.5 76.5q-25 2 -43.5 17t-18.5 38q0 64 70 147q-34 19 -56 62.5t-22 84.5q0 85 62 146.5t147 61.5q103 0 144 -37l164 32v-72h-121q25 -42 25 -109q0 -81 -62 -139t-144 -58q-77 0 -123 22v-121h169q226 0 226 -156
q0 -68 -52 -121t-120 -77.5t-133 -24.5zM303 -240q74 0 121.5 34t47.5 94q0 58 -41.5 82t-121.5 24h-137q-46 -56 -46 -116q0 -32 10 -54.5t25 -34.5t40 -19t47 -8.5t55 -1.5zM291 222q53 0 80 40t27 96q0 60 -28.5 108t-84.5 48q-125 0 -125 -145q0 -68 32.5 -107.5
t98.5 -39.5zM309 856l34 -9q-24 -111 -24 -237l-83 4q5 118 73 242z" />
    <glyph glyph-name="Hcircumflex" unicode="&#x124;" horiz-adv-x="850" 
d="M29 0q-1 8 -3 16t-1 14l58 21q20 8 31.5 32t11.5 48q0 23 1 70.5t1 71.5v352q0 55 -30 64l-73 21q0 12 4 27h272q1 -3 1.5 -6t1.5 -6t1 -4q1 -5 0 -15l-28 -6.5l-28 -6.5q-20 -5 -25.5 -13t-5.5 -28v-256h390v219q0 22 -11 46t-30 31l-49 18q0 3 -0.5 7t-0.5 6q0 8 2 14
h262v-17q0 -7 -2 -14l-52 -12q-17 -5 -23 -12.5t-6 -26.5v-382q0 -29 2 -87.5t2 -87.5q0 -36 19 -40q14 -3 42 -9.5t42 -9.5q0 -25 -5 -39h-286q-1 8 -3 18t-1 16l42 12q29 8 41.5 36t12.5 57q0 22 1 66.5t1 67.5v71h-390v-71q0 -29 2 -87t2 -87q1 -32 22 -37l96 -26
q0 -22 -5 -36h-306zM244 761l-20 33q43 22 91 60t75 65l26 27q105 -112 181 -150l-25 -33q-31 9 -72 29.5t-67 36.5l-26 16q-66 -49 -163 -84z" />
    <glyph glyph-name="hcircumflex" unicode="&#x125;" horiz-adv-x="716" 
d="M54 0q-3 25 -3 29l46 20q14 6 24 25t10 42l2 157v535h-101v33q92 23 149 23q21 0 30 -8t9 -28v-347q105 76 206 76q44 0 75 -9.5t48.5 -24t27 -40t12 -49.5t2.5 -61v-100l3 -200q0 -11 4 -15t15 -6l72 -14q0 -24 -5 -38h-248q-4 27 -3 34l43 19q12 5 20.5 24.5t8.5 34.5
l3 161v84q0 78 -23.5 105.5t-97.5 27.5q-75 0 -163 -44v-173l4 -189q0 -18 3 -24t16 -8l94 -16q0 -22 -5 -36h-278zM9 868l-20 33q43 22 91 60t74 65l27 27q105 -112 181 -150l-25 -33q-31 9 -72 29.5t-67 36.5l-26 16q-66 -49 -163 -84z" />
    <glyph glyph-name="Hbar" unicode="&#x126;" horiz-adv-x="850" 
d="M29 0q-1 8 -3 16t-1 14l58 21q20 8 31.5 32t11.5 48q0 23 1 70.5t1 71.5v239h-83v49h83v64q0 55 -30 64l-73 21q0 12 4 27h272q1 -3 1.5 -6t1.5 -6t1 -4q1 -5 0 -15l-28 -6.5l-28 -6.5q-20 -5 -25.5 -13t-5.5 -28v-91h390v54q0 22 -11 46t-30 31l-49 18q0 3 -0.5 7
t-0.5 6q0 8 2 14h262v-17q0 -7 -2 -14l-52 -12q-17 -5 -23 -12.5t-6 -26.5v-94h84v-49h-84v-239q0 -29 2 -87.5t2 -87.5q0 -36 19 -40q14 -3 42 -9.5t42 -9.5q0 -25 -5 -39h-286q-1 8 -3 18t-1 16l42 12q29 8 41.5 36t12.5 57q0 22 1 66.5t1 67.5v71h-390v-71q0 -29 2 -87
t2 -87q1 -32 22 -37l96 -26q0 -22 -5 -36h-306zM218 396h390v116h-390v-116z" />
    <glyph glyph-name="hbar" unicode="&#x127;" horiz-adv-x="716" 
d="M54 0q-3 25 -3 29l46 20q14 6 24 25t10 42l2 157v371h-103v54h103v110h-101v33q92 23 149 23q21 0 30 -8t9 -28v-130h225v-54h-225v-163q105 76 206 76q44 0 75 -9.5t48.5 -24t27 -40t12 -49.5t2.5 -61v-100l3 -200q0 -11 4 -15t15 -6l72 -14q0 -24 -5 -38h-248
q-4 27 -3 34l43 19q12 5 20.5 24.5t8.5 34.5l3 161v84q0 78 -23.5 105.5t-97.5 27.5q-75 0 -163 -44v-173l4 -189q0 -18 3 -24t16 -8l94 -16q0 -22 -5 -36h-278z" />
    <glyph glyph-name="Itilde" unicode="&#x128;" horiz-adv-x="360" 
d="M40 0q-3 25 -3 30l53 21q36 14 38 69l2 153v344q0 61 -50 78l-40 15q-3 13 1 27h262q4 -19 3 -31l-41 -9q-22 -5 -33 -27.5t-11 -49.5v-347l3 -184q0 -19 4.5 -26t20.5 -10l80 -17q0 -22 -5 -36h-284zM261 785q-25 0 -90.5 22.5t-84.5 22.5q-42 0 -67 -23l-20 21
q48 73 96 73q27 0 100 -21.5t95 -21.5q26 0 52 17l20 -21q-14 -24 -41.5 -46.5t-59.5 -22.5z" />
    <glyph glyph-name="itilde" unicode="&#x129;" horiz-adv-x="366" 
d="M47 0q-3 22 -3 30l63 22q11 4 21 22t11 32l3 166v222h-102v37q99 22 149 22q21 0 30.5 -8t9.5 -28v-245l3 -197q0 -19 17 -22l87 -16q0 -23 -5 -37h-284zM266 662q-25 0 -90.5 22.5t-84.5 22.5q-42 0 -67 -23l-20 21q48 73 96 73q27 0 100 -21.5t95 -21.5q27 0 52 17
l20 -21q-14 -24 -41.5 -46.5t-59.5 -22.5z" />
    <glyph glyph-name="Imacron" unicode="&#x12a;" horiz-adv-x="360" 
d="M40 0q-3 25 -3 30l53 21q36 14 38 69l2 153v344q0 61 -50 78l-40 15q-3 13 1 27h262q4 -19 3 -31l-41 -9q-22 -5 -33 -27.5t-11 -49.5v-347l3 -184q0 -19 4.5 -26t20.5 -10l80 -17q0 -22 -5 -36h-284zM24 802v62h298v-62h-298z" />
    <glyph glyph-name="imacron" unicode="&#x12b;" horiz-adv-x="366" 
d="M47 0q-3 22 -3 30l63 22q11 4 21 22t11 32l3 166v222h-102v37q99 22 149 22q21 0 30.5 -8t9.5 -28v-245l3 -197q0 -19 17 -22l87 -16q0 -23 -5 -37h-284zM33 704v60h298v-60h-298z" />
    <glyph glyph-name="Ibreve" unicode="&#x12c;" horiz-adv-x="360" 
d="M40 0q-3 25 -3 30l53 21q36 14 38 69l2 153v344q0 61 -50 78l-40 15q-3 13 1 27h262q4 -19 3 -31l-41 -9q-22 -5 -33 -27.5t-11 -49.5v-347l3 -184q0 -19 4.5 -26t20.5 -10l80 -17q0 -22 -5 -36h-284zM179 804q-38 0 -70.5 11.5t-53 30t-29.5 29.5t-14 20l39 37
q13 -16 48.5 -35.5t83.5 -19.5q33 0 64 12t45 23t21 19l28 -29q-57 -98 -162 -98z" />
    <glyph glyph-name="ibreve" unicode="&#x12d;" horiz-adv-x="366" 
d="M47 0q-3 22 -3 30l63 22q11 4 21 22t11 32l3 166v222h-102v37q99 22 149 22q21 0 30.5 -8t9.5 -28v-245l3 -197q0 -19 17 -22l87 -16q0 -23 -5 -37h-284zM186 666q-38 0 -70.5 11.5t-53 30t-29.5 29.5t-14 20l39 37q13 -16 48.5 -35.5t83.5 -19.5q33 0 64 12t45 23t21 19
l28 -29q-57 -98 -162 -98z" />
    <glyph glyph-name="Iogonek" unicode="&#x12e;" horiz-adv-x="360" 
d="M98 -261q-61 0 -94 32t-33 87q0 59 31.5 98.5t93.5 79.5q21 14 26 28.5t6 69.5l2 139v344q0 61 -50 78l-40 15q-3 13 1 27h262q4 -19 3 -31l-41 -9q-22 -5 -33 -27.5t-11 -49.5v-347l3 -184q0 -19 4.5 -26t20.5 -10l80 -17q0 -22 -5 -36h-140q-138 0 -138 -130
q0 -45 23.5 -66.5t53.5 -21.5q31 0 67 29l18 -45q-47 -27 -110 -27z" />
    <glyph glyph-name="iogonek" unicode="&#x12f;" horiz-adv-x="366" 
d="M78 -261q-61 0 -92.5 27t-31.5 73q0 51 37 96.5t89 76.5q31 19 44 40t15 54l3 166v222h-102v37q99 22 149 22q21 0 30.5 -8t9.5 -28v-245l3 -197q0 -19 17 -22l87 -16q0 -23 -5 -37h-117q-92 0 -137 -39.5t-45 -97.5q0 -40 18.5 -60.5t45.5 -20.5q36 0 74 29l18 -45
q-47 -27 -110 -27zM184 690q-12 0 -43 32t-31 43q0 12 31 43t43 31q11 0 43 -31.5t32 -42.5q0 -10 -31.5 -42.5t-43.5 -32.5z" />
    <glyph glyph-name="Idotaccent" unicode="&#x130;" horiz-adv-x="360" 
d="M40 0q-3 25 -3 30l53 21q36 14 38 69l2 153v344q0 61 -50 78l-40 15q-3 13 1 27h262q4 -19 3 -31l-41 -9q-22 -5 -33 -27.5t-11 -49.5v-347l3 -184q0 -19 4.5 -26t20.5 -10l80 -17q0 -22 -5 -36h-284zM175 787q-10 0 -37.5 28t-27.5 38q0 11 28 38t37 27q10 0 38 -27.5
t28 -37.5q0 -9 -27.5 -37.5t-38.5 -28.5z" />
    <glyph glyph-name="dotlessi" unicode="&#x131;" horiz-adv-x="366" 
d="M47 0q-3 22 -3 30l63 22q11 4 21 22t11 32l3 166v222h-102v37q99 22 149 22q21 0 30.5 -8t9.5 -28v-245l3 -197q0 -19 17 -22l87 -16q0 -23 -5 -37h-284z" />
    <glyph glyph-name="IJ" unicode="&#x132;" horiz-adv-x="701" 
d="M40 0q-3 25 -3 30l53 21q36 14 38 69l2 153v344q0 61 -50 78l-40 15q-3 13 1 27h262q4 -19 3 -31l-41 -9q-22 -5 -33 -27.5t-11 -49.5v-347l3 -184q0 -19 4.5 -26t20.5 -10l80 -17q0 -22 -5 -36h-284zM366 -216l-19 34q78 47 107.5 105t29.5 163v535q0 22 -13 44t-35 30
l-44 15q0 13 5 27h262q3 -25 3 -30l-48 -12q-23 -5 -30.5 -14t-7.5 -30v-604q0 -181 -210 -263z" />
    <glyph glyph-name="ij" unicode="&#x133;" horiz-adv-x="731" 
d="M47 0q-3 22 -3 30l63 22q11 4 21 22t11 32l3 166v222h-102v37q99 22 149 22q21 0 30.5 -8t9.5 -28v-245l3 -197q0 -19 17 -22l87 -16q0 -23 -5 -37h-284zM184 690q-12 0 -43 32t-31 43q0 12 31 43t43 31q11 0 43 -31.5t32 -42.5q0 -10 -31.5 -42.5t-43.5 -32.5zM418 -303
q-39 0 -60 8l10 59q39 -17 62 -17q50 0 66 29.5t16 97.5v620h-100v37q99 22 149 22q21 0 29.5 -8t8.5 -28v-245l5 -354q1 -99 -53 -160t-133 -61zM555 691q-11 0 -42.5 32t-31.5 43q0 12 31.5 43t42.5 31t43 -31.5t32 -42.5q0 -10 -31.5 -42.5t-43.5 -32.5z" />
    <glyph glyph-name="Jcircumflex" unicode="&#x134;" horiz-adv-x="341" 
d="M10 -216l-19 34q78 47 107.5 105t29.5 163v535q0 22 -13 44t-35 30l-44 15q0 13 5 27h262q3 -25 3 -30l-48 -12q-23 -5 -30.5 -14t-7.5 -30v-604q0 -181 -210 -263zM6 761l-20 33q43 22 91 60t75 65l26 27q105 -112 181 -150l-25 -33q-31 9 -72 29.5t-67 36.5l-26 16
q-66 -49 -163 -84z" />
    <glyph glyph-name="jcircumflex" unicode="&#x135;" horiz-adv-x="360" 
d="M47 -303q-39 0 -60 8l10 59q39 -17 62 -17q50 0 66 29.5t16 97.5v620h-100v37q99 22 149 22q21 0 29.5 -8t8.5 -28v-245l5 -354q1 -99 -53 -160t-133 -61zM312 622q-46 28 -134 106q-85 -74 -130 -106l-26 29q96 84 168 180q89 -113 157 -173z" />
    <glyph glyph-name="Kcommaaccent" unicode="&#x136;" horiz-adv-x="728" 
d="M27 0q-3 25 -3 29l66 23q36 13 38 67l2 154v354q0 20 -8 38t-22 24l-60 21q-3 13 1 27h262q4 -21 4 -25l-50 -19q-17 -7 -26.5 -27.5t-9.5 -43.5v-341l2 -188q0 -30 20 -36l66 -21q0 -22 -5 -36h-277zM706 -13q-126 0 -203 85l-256 285v24l244 251q20 20 20 36
q0 19 -17 24l-48 15q0 19 4 30h206v-30l-319 -303l243 -269q75 -83 132 -116zM376 -286l-34 9q24 111 24 237l83 -4q-5 -118 -73 -242z" />
    <glyph glyph-name="kcommaaccent" unicode="&#x137;" horiz-adv-x="618" 
d="M46 0q-3 25 -3 30l53 21q16 6 25.5 26t9.5 39l4 157v535h-101v34q88 22 149 22q39 0 39 -39v-552l3 -163q2 -50 30 -62l38 -17q0 -17 -5 -31h-242zM611 14l-1 -25q-149 0 -228 104l-145 191l162 164q14 14 14 26q0 22 -16 28l-41 16q-1 17 2 28h196v-24l-222 -205
l144 -193q56 -75 135 -110zM321 -286l-34 9q24 111 24 237l83 -4q-5 -118 -73 -242z" />
    <glyph glyph-name="Lacute" unicode="&#x139;" horiz-adv-x="577" 
d="M32 0q-4 27 -3 34l64 18q17 4 27 20.5t10 37.5l3 162v355q0 20 -7.5 38.5t-22.5 23.5l-63 21q0 12 4 27h262q5 -23 4 -30l-48 -12q-23 -5 -30.5 -11.5t-7.5 -27.5v-383l5 -218l178 4q48 7 78.5 34.5t42.5 64.5l31 -7l-20 -151h-507zM111 776l-10 34q122 45 219 110
l31 -71q-144 -63 -240 -73z" />
    <glyph glyph-name="lacute" unicode="&#x13a;" horiz-adv-x="347" 
d="M74 0q-3 25 -3 30l53 19q35 13 35 56l5 168v535h-101v34q88 22 149 22q39 0 39 -39v-552l5 -201q0 -12 2 -14.5t10 -4.5l91 -17q0 -22 -5 -36h-280zM123 887l-10 34q122 45 219 110l31 -71q-144 -63 -240 -73z" />
    <glyph glyph-name="Lcommaaccent" unicode="&#x13b;" horiz-adv-x="577" 
d="M32 0q-4 27 -3 34l64 18q17 4 27 20.5t10 37.5l3 162v355q0 20 -7.5 38.5t-22.5 23.5l-63 21q0 12 4 27h262q5 -23 4 -30l-48 -12q-23 -5 -30.5 -11.5t-7.5 -27.5v-383l5 -218l178 4q48 7 78.5 34.5t42.5 64.5l31 -7l-20 -151h-507zM280 -286l-34 9q24 111 24 237l83 -4
q-5 -118 -73 -242z" />
    <glyph glyph-name="lcommaaccent" unicode="&#x13c;" horiz-adv-x="340" 
d="M43 0q-3 25 -3 30l53 19q35 13 35 56l5 168v535h-101v34q88 22 149 22q39 0 39 -39v-552l5 -201q0 -12 2 -14.5t10 -4.5l91 -17q0 -22 -5 -36h-280zM163 -286l-34 9q24 111 24 237l83 -4q-5 -118 -73 -242z" />
    <glyph glyph-name="Lcaron" unicode="&#x13d;" horiz-adv-x="577" 
d="M32 0q-4 27 -3 34l64 18q17 4 27 20.5t10 37.5l3 162v355q0 20 -7.5 38.5t-22.5 23.5l-63 21q0 12 4 27h262q5 -23 4 -30l-48 -12q-23 -5 -30.5 -11.5t-7.5 -27.5v-383l5 -218l178 4q48 7 78.5 34.5t42.5 64.5l31 -7l-20 -151h-507zM421 617l-34 9q24 111 24 237l83 -4
q-5 -118 -73 -242z" />
    <glyph glyph-name="lcaron" unicode="&#x13e;" horiz-adv-x="386" 
d="M43 0q-3 25 -3 30l53 19q35 13 35 56l5 168v535h-101v34q88 22 149 22q39 0 39 -39v-552l5 -201q0 -12 2 -14.5t10 -4.5l91 -17q0 -22 -5 -36h-280zM311 617l-34 9q24 111 24 237l83 -4q-5 -118 -73 -242z" />
    <glyph glyph-name="Ldot" unicode="&#x13f;" horiz-adv-x="577" 
d="M32 0q-4 27 -3 34l64 18q17 4 27 20.5t10 37.5l3 162v355q0 20 -7.5 38.5t-22.5 23.5l-63 21q0 12 4 27h262q5 -23 4 -30l-48 -12q-23 -5 -30.5 -11.5t-7.5 -27.5v-383l5 -218l178 4q48 7 78.5 34.5t42.5 64.5l31 -7l-20 -151h-507zM464 340q-12 0 -43.5 32t-31.5 43
q0 12 32 43t43 31t42.5 -31.5t31.5 -42.5q0 -10 -31 -42.5t-43 -32.5z" />
    <glyph glyph-name="ldot" unicode="&#x140;" horiz-adv-x="380" 
d="M43 0q-3 25 -3 30l53 19q35 13 35 56l5 168v535h-101v34q88 22 149 22q39 0 39 -39v-552l5 -201q0 -12 2 -14.5t10 -4.5l91 -17q0 -22 -5 -36h-280zM361 333q-12 0 -43.5 32t-31.5 43q0 12 32 43t43 31t42.5 -31.5t31.5 -42.5q0 -10 -31 -42.5t-43 -32.5z" />
    <glyph glyph-name="Lslash" unicode="&#x141;" horiz-adv-x="577" 
d="M32 0q-4 27 -3 34l64 18q17 4 27 20.5t10 37.5l3 162v57l-97 -51v53l97 51v245q0 20 -7.5 38.5t-22.5 23.5l-63 21q0 12 4 27h262q5 -23 4 -30l-48 -12q-23 -5 -30.5 -11.5t-7.5 -27.5v-226l192 102v-53l-192 -102v-104l5 -218l178 4q48 7 78.5 34.5t42.5 64.5l31 -7
l-20 -151h-507z" />
    <glyph glyph-name="lslash" unicode="&#x142;" horiz-adv-x="347" 
d="M43 0q-3 25 -3 30l53 19q35 13 35 56l5 168v130l-112 -57v53l112 57v352h-101v34q88 22 149 22q39 0 39 -39v-324l114 59v-53l-114 -59v-175l5 -201q0 -12 2 -14.5t10 -4.5l91 -17q0 -22 -5 -36h-280z" />
    <glyph glyph-name="Nacute" unicode="&#x143;" horiz-adv-x="827" 
d="M620 -21l-424 656h-7l9 -80v-282l3 -174q0 -19 4 -25.5t20 -12.5l85 -29q0 -18 -5 -32h-271q-5 23 -4 30l58 18q22 6 34.5 31.5t13.5 52.5l2 141v365q0 40 -29 51l-61 21q0 20 2 27h202l386 -587h7l-9 105v370q0 19 -11 38.5t-26 25.5l-63 21q0 16 4 27h252q1 -6 2.5 -12
t1.5 -13l-59 -17q-18 -5 -29.5 -25.5t-11.5 -43.5v-625zM346 776l-10 34q122 45 219 110l31 -71q-144 -63 -240 -73z" />
    <glyph glyph-name="nacute" unicode="&#x144;" horiz-adv-x="705" 
d="M54 0q-3 25 -3 29l46 20q14 6 24 25t10 42l2 157v221h-101v34q99 22 149 22q21 0 30 -8t9 -28v-33q105 76 206 76q44 0 75 -9.5t48.5 -24t27 -40t12 -49.5t2.5 -61v-100l3 -200q0 -11 4 -15t15 -6l72 -14q0 -24 -5 -38h-248q-4 27 -3 34l43 19q12 5 20.5 24.5t8.5 34.5
l3 161v84q0 78 -23.5 105.5t-97.5 27.5q-75 0 -163 -44v-173l4 -189q0 -18 3 -24t16 -8l94 -16q0 -22 -5 -36h-278zM303 623l-19 30q100 76 172 175l56 -64q-121 -103 -209 -141z" />
    <glyph glyph-name="Ncommaaccent" unicode="&#x145;" horiz-adv-x="827" 
d="M620 -21l-424 656h-7l9 -80v-282l3 -174q0 -19 4 -25.5t20 -12.5l85 -29q0 -18 -5 -32h-271q-5 23 -4 30l58 18q22 6 34.5 31.5t13.5 52.5l2 141v365q0 40 -29 51l-61 21q0 20 2 27h202l386 -587h7l-9 105v370q0 19 -11 38.5t-26 25.5l-63 21q0 16 4 27h252q1 -6 2.5 -12
t1.5 -13l-59 -17q-18 -5 -29.5 -25.5t-11.5 -43.5v-625zM410 -286l-34 9q24 111 24 237l83 -4q-5 -118 -73 -242z" />
    <glyph glyph-name="ncommaaccent" unicode="&#x146;" horiz-adv-x="705" 
d="M54 0q-3 25 -3 29l46 20q14 6 24 25t10 42l2 157v221h-101v34q99 22 149 22q21 0 30 -8t9 -28v-33q105 76 206 76q44 0 75 -9.5t48.5 -24t27 -40t12 -49.5t2.5 -61v-100l3 -200q0 -11 4 -15t15 -6l72 -14q0 -24 -5 -38h-248q-4 27 -3 34l43 19q12 5 20.5 24.5t8.5 34.5
l3 161v84q0 78 -23.5 105.5t-97.5 27.5q-75 0 -163 -44v-173l4 -189q0 -18 3 -24t16 -8l94 -16q0 -22 -5 -36h-278zM351 -286l-34 9q24 111 24 237l83 -4q-5 -118 -73 -242z" />
    <glyph glyph-name="Ncaron" unicode="&#x147;" horiz-adv-x="827" 
d="M620 -21l-424 656h-7l9 -80v-282l3 -174q0 -19 4 -25.5t20 -12.5l85 -29q0 -18 -5 -32h-271q-5 23 -4 30l58 18q22 6 34.5 31.5t13.5 52.5l2 141v365q0 40 -29 51l-61 21q0 20 2 27h202l386 -587h7l-9 105v370q0 19 -11 38.5t-26 25.5l-63 21q0 16 4 27h252q1 -6 2.5 -12
t1.5 -13l-59 -17q-18 -5 -29.5 -25.5t-11.5 -43.5v-625zM409 761q-105 112 -181 150l25 33q31 -9 72 -29.5t67 -36.5l26 -16q66 49 163 84l20 -33q-43 -22 -91 -60t-74 -65z" />
    <glyph glyph-name="ncaron" unicode="&#x148;" horiz-adv-x="705" 
d="M54 0q-3 25 -3 29l46 20q14 6 24 25t10 42l2 157v221h-101v34q99 22 149 22q21 0 30 -8t9 -28v-33q105 76 206 76q44 0 75 -9.5t48.5 -24t27 -40t12 -49.5t2.5 -61v-100l3 -200q0 -11 4 -15t15 -6l72 -14q0 -24 -5 -38h-248q-4 27 -3 34l43 19q12 5 20.5 24.5t8.5 34.5
l3 161v84q0 78 -23.5 105.5t-97.5 27.5q-75 0 -163 -44v-173l4 -189q0 -18 3 -24t16 -8l94 -16q0 -22 -5 -36h-278zM359 606q-89 113 -157 173l35 36q46 -28 134 -106q85 74 130 106l26 -29q-96 -84 -168 -180z" />
    <glyph glyph-name="napostrophe" unicode="&#x149;" horiz-adv-x="705" 
d="M54 0q-3 25 -3 29l46 20q14 6 24 25t10 42l2 157v221h-101v34q99 22 149 22q21 0 30 -8t9 -28v-33q105 76 206 76q44 0 75 -9.5t48.5 -24t27 -40t12 -49.5t2.5 -61v-100l3 -200q0 -11 4 -15t15 -6l72 -14q0 -24 -5 -38h-248q-4 27 -3 34l43 19q12 5 20.5 24.5t8.5 34.5
l3 161v84q0 78 -23.5 105.5t-97.5 27.5q-75 0 -163 -44v-173l4 -189q0 -18 3 -24t16 -8l94 -16q0 -22 -5 -36h-278zM-64 548l-23 20q72 77 81 120q-19 12 -48 41.5t-29 39.5q0 14 35.5 49t47.5 35q17 0 48 -34t31 -54q0 -57 -44.5 -119t-98.5 -98z" />
    <glyph glyph-name="Eng" unicode="&#x14a;" horiz-adv-x="827" 
d="M515 -303q-39 0 -60 8l10 59q39 -17 62 -17q53 0 81.5 42t28.5 121v73l-17 -6l-424 658h-7l9 -80v-282l3 -174q0 -19 4 -25.5t20 -12.5l85 -29q0 -18 -5 -32h-271q-5 23 -4 30l58 18q46 13 48 84l2 141v365q0 40 -29 51l-61 21q0 20 2 27h202l386 -587h7l-9 105v370
q0 19 -11 38.5t-26 25.5l-63 21q0 16 4 27h252q1 -6 2.5 -12t1.5 -13l-59 -17q-18 -5 -29.5 -25.5t-11.5 -43.5v-354l5 -354q1 -99 -53 -160t-133 -61z" />
    <glyph glyph-name="eng" unicode="&#x14b;" horiz-adv-x="678" 
d="M407 -303q-39 0 -60 8l10 59q39 -17 62 -17q50 0 67.5 30t17.5 97v483q0 78 -23.5 105.5t-97.5 27.5q-75 0 -163 -44v-173l4 -189q0 -18 3 -24t16 -8l94 -16q0 -22 -5 -36h-278q-3 25 -3 29l46 20q14 6 24 25t10 42l2 157v221h-101v34q99 22 149 22q21 0 30 -8t9 -28v-33
q105 76 206 76q44 0 75 -9.5t48.5 -24t27 -40t12 -49.5t2.5 -61v-224l2 -231q1 -99 -53 -160t-133 -61z" />
    <glyph glyph-name="Omacron" unicode="&#x14c;" horiz-adv-x="818" 
d="M401 -12q-163 0 -254.5 94t-91.5 257q0 171 102.5 290t262.5 119q166 0 254.5 -94t88.5 -254q0 -110 -42.5 -203t-126.5 -151t-193 -58zM404 47q68 0 118 26.5t77.5 72.5t40.5 101.5t13 121.5q0 88 -23.5 158t-79.5 117t-139 47q-65 0 -114 -26.5t-77 -72.5t-41.5 -101
t-13.5 -120q0 -63 13 -118.5t40 -103t74.5 -75t111.5 -27.5zM260 802v62h298v-62h-298z" />
    <glyph glyph-name="omacron" unicode="&#x14d;" horiz-adv-x="581" 
d="M284 -7q-240 0 -240 270q0 113 74 202t175 89q123 0 183.5 -67t60.5 -210q0 -112 -74 -198t-179 -86zM301 53q43 0 72 17.5t42.5 51t18.5 67.5t5 80q0 229 -157 229q-142 0 -142 -222q0 -223 161 -223zM138 704v60h298v-60h-298z" />
    <glyph glyph-name="Obreve" unicode="&#x14e;" horiz-adv-x="818" 
d="M401 -12q-163 0 -254.5 94t-91.5 257q0 171 102.5 290t262.5 119q166 0 254.5 -94t88.5 -254q0 -110 -42.5 -203t-126.5 -151t-193 -58zM404 47q68 0 118 26.5t77.5 72.5t40.5 101.5t13 121.5q0 88 -23.5 158t-79.5 117t-139 47q-65 0 -114 -26.5t-77 -72.5t-41.5 -101
t-13.5 -120q0 -63 13 -118.5t40 -103t74.5 -75t111.5 -27.5zM421 804q-38 0 -70.5 11.5t-53 30t-29.5 29.5t-14 20l39 37q13 -16 48.5 -35.5t83.5 -19.5q33 0 64 12t45 23t21 19l28 -29q-57 -98 -162 -98z" />
    <glyph glyph-name="obreve" unicode="&#x14f;" horiz-adv-x="581" 
d="M284 -7q-240 0 -240 270q0 113 74 202t175 89q123 0 183.5 -67t60.5 -210q0 -112 -74 -198t-179 -86zM301 53q43 0 72 17.5t42.5 51t18.5 67.5t5 80q0 229 -157 229q-142 0 -142 -222q0 -223 161 -223zM293 666q-38 0 -70.5 11.5t-53 30t-29.5 29.5t-14 20l39 37
q13 -16 48.5 -35.5t83.5 -19.5q33 0 64 12t45 23t21 19l28 -29q-57 -98 -162 -98z" />
    <glyph glyph-name="Ohungarumlaut" unicode="&#x150;" horiz-adv-x="818" 
d="M401 -12q-163 0 -254.5 94t-91.5 257q0 171 102.5 290t262.5 119q166 0 254.5 -94t88.5 -254q0 -110 -42.5 -203t-126.5 -151t-193 -58zM404 47q68 0 118 26.5t77.5 72.5t40.5 101.5t13 121.5q0 88 -23.5 158t-79.5 117t-139 47q-65 0 -114 -26.5t-77 -72.5t-41.5 -101
t-13.5 -120q0 -63 13 -118.5t40 -103t74.5 -75t111.5 -27.5zM258 775l-15 32q117 64 200 141l41 -66q-135 -84 -226 -107zM457 776l-10 34q122 45 219 110l31 -71q-144 -63 -240 -73z" />
    <glyph glyph-name="ohungarumlaut" unicode="&#x151;" horiz-adv-x="581" 
d="M284 -7q-240 0 -240 270q0 113 74 202t175 89q123 0 183.5 -67t60.5 -210q0 -112 -74 -198t-179 -86zM301 53q43 0 72 17.5t42.5 51t18.5 67.5t5 80q0 229 -157 229q-142 0 -142 -222q0 -223 161 -223zM166 622l-26 24q81 101 126 211l70 -49q-94 -129 -170 -186z
M342 623l-19 30q100 76 172 175l56 -64q-121 -103 -209 -141z" />
    <glyph glyph-name="OE" unicode="&#x152;" horiz-adv-x="1015" 
d="M401 -12q-163 0 -254.5 94t-91.5 257q0 171 102.5 290t262.5 119q52 0 101 -11h413v-146q-3 -1 -42 -1q-9 47 -26.5 68t-53.5 22l-202 6v-290l272 5v-62l-272 5v-71l5 -221l198 3q50 1 82 31.5t46 71.5l34 -7l-18 -151h-464q-43 -12 -92 -12zM404 47q62 0 87 16t26 48
l3 163v385q-32 32 -109 32q-65 0 -114 -26.5t-77 -72.5t-41.5 -101t-13.5 -120q0 -63 13 -118.5t40 -103t74.5 -75t111.5 -27.5z" />
    <glyph glyph-name="oe" unicode="&#x153;" horiz-adv-x="940" 
d="M709 -9q-92 0 -149 22.5t-85 81.5q-77 -102 -191 -102q-240 0 -240 270q0 113 74 202t175 89q150 0 206 -101q72 106 194 106q204 0 204 -264v-28h-362q3 -65 18.5 -108.5t43.5 -65.5t60 -30.5t77 -8.5q68 0 138 18l13 -41q-26 -17 -76 -28.5t-100 -11.5zM301 53
q43 0 72 17.5t42.5 51t18.5 67.5t5 80q0 229 -157 229q-142 0 -142 -222q0 -223 161 -223zM536 314h259q0 46 -4.5 79t-16.5 62t-36 44t-60 15q-61 0 -101.5 -50t-40.5 -150z" />
    <glyph glyph-name="Racute" unicode="&#x154;" horiz-adv-x="719" 
d="M743 -18q-31 2 -49.5 4t-57 10t-71 26t-57.5 45q-27 29 -57.5 79.5t-62 113.5l-33.5 67q-18 -3 -39 -3h-88l4 -240q0 -24 17 -27l81 -19q0 -27 -4 -38h-276q-3 25 -3 30l48 18q33 11 40 63l3 162v384q-6 22 -23 29l-75 26q-1 9 5 25h302q242 0 242 -196q0 -64 -34.5 -119
t-95.5 -74l32.5 -56.5t56 -92.5t47.5 -64q88 -94 157 -118zM228 376h93q81 0 123 40t43 111q0 68 -42.5 112t-122.5 45l-94 2v-310zM250 776l-10 34q122 45 219 110l31 -71q-144 -63 -240 -73z" />
    <glyph glyph-name="racute" unicode="&#x155;" horiz-adv-x="444" 
d="M53 0q-5 23 -4 30l47 24q33 18 35 75l2 145v221h-101v37q94 21 149 21q21 0 29.5 -8t8.5 -28v-50q25 36 67.5 62.5t89.5 26.5q42 0 66 -8l-15 -86q-36 14 -76 14q-45 0 -72 -10t-59 -32v-160l4 -195q0 -24 15 -26l104 -16q0 -26 -4 -37h-286zM188 623l-19 30
q100 76 172 175l56 -64q-121 -103 -209 -141z" />
    <glyph glyph-name="Rcommaaccent" unicode="&#x156;" horiz-adv-x="719" 
d="M743 -18q-31 2 -49.5 4t-57 10t-71 26t-57.5 45q-27 29 -57.5 79.5t-62 113.5l-33.5 67q-18 -3 -39 -3h-88l4 -240q0 -24 17 -27l81 -19q0 -27 -4 -38h-276q-3 25 -3 30l48 18q33 11 40 63l3 162v384q-6 22 -23 29l-75 26q-1 9 5 25h302q242 0 242 -196q0 -64 -34.5 -119
t-95.5 -74l32.5 -56.5t56 -92.5t47.5 -64q88 -94 157 -118zM228 376h93q81 0 123 40t43 111q0 68 -42.5 112t-122.5 45l-94 2v-310zM357 -286l-34 9q24 111 24 237l83 -4q-5 -118 -73 -242z" />
    <glyph glyph-name="rcommaaccent" unicode="&#x157;" horiz-adv-x="444" 
d="M53 0q-5 23 -4 30l47 24q33 18 35 75l2 145v221h-101v37q94 21 149 21q21 0 29.5 -8t8.5 -28v-50q25 36 67.5 62.5t89.5 26.5q42 0 66 -8l-15 -86q-36 14 -76 14q-45 0 -72 -10t-59 -32v-160l4 -195q0 -24 15 -26l104 -16q0 -26 -4 -37h-286zM143 -286l-34 9
q24 111 24 237l83 -4q-5 -118 -73 -242z" />
    <glyph glyph-name="Rcaron" unicode="&#x158;" horiz-adv-x="719" 
d="M743 -18q-31 2 -49.5 4t-57 10t-71 26t-57.5 45q-27 29 -57.5 79.5t-62 113.5l-33.5 67q-18 -3 -39 -3h-88l4 -240q0 -24 17 -27l81 -19q0 -27 -4 -38h-276q-3 25 -3 30l48 18q33 11 40 63l3 162v384q-6 22 -23 29l-75 26q-1 9 5 25h302q242 0 242 -196q0 -64 -34.5 -119
t-95.5 -74l32.5 -56.5t56 -92.5t47.5 -64q88 -94 157 -118zM228 376h93q81 0 123 40t43 111q0 68 -42.5 112t-122.5 45l-94 2v-310zM325 761q-105 112 -181 150l25 33q31 -9 72 -29.5t67 -36.5l26 -16q66 49 163 84l20 -33q-43 -22 -91 -60t-74 -65z" />
    <glyph glyph-name="rcaron" unicode="&#x159;" horiz-adv-x="444" 
d="M53 0q-5 23 -4 30l47 24q33 18 35 75l2 145v221h-101v37q94 21 149 21q21 0 29.5 -8t8.5 -28v-50q25 36 67.5 62.5t89.5 26.5q42 0 66 -8l-15 -86q-36 14 -76 14q-45 0 -72 -10t-59 -32v-160l4 -195q0 -24 15 -26l104 -16q0 -26 -4 -37h-286zM247 606q-89 113 -157 173
l35 36q46 -28 134 -106q85 74 130 106l26 -29q-96 -84 -168 -180z" />
    <glyph glyph-name="Sacute" unicode="&#x15a;" horiz-adv-x="572" 
d="M255 -11q-95 0 -209 50l8 150h39q36 -145 192 -145q61 0 104 41t43 97q0 35 -26.5 62t-66 44.5t-85.5 40t-85.5 46t-66 65.5t-26.5 96q0 94 73 152.5t169 58.5q102 0 176 -43v-131h-32q-14 59 -57 87.5t-102 28.5q-71 0 -111.5 -30.5t-40.5 -87.5q0 -39 38 -69.5
t91.5 -55t107.5 -53.5t92 -79t38 -116q0 -101 -77.5 -155t-185.5 -54zM234 771l-10 34q122 45 219 110l31 -71q-144 -63 -240 -73z" />
    <glyph glyph-name="sacute" unicode="&#x15b;" horiz-adv-x="483" 
d="M226 -7q-98 0 -175 36l8 156l37 -1q1 -61 33.5 -102.5t104.5 -41.5q52 0 89 22t37 68q0 28 -29.5 49t-71.5 37.5t-84 37t-71.5 58.5t-29.5 90q0 72 55 114t137 42q85 0 155 -35l-17 -133l-27 4q-8 55 -34.5 85.5t-95.5 30.5q-107 0 -107 -78q0 -31 30 -55t73 -41.5
t86.5 -37.5t73.5 -55t30 -83q0 -45 -18 -78.5t-48 -52t-65.5 -27.5t-75.5 -9zM206 623l-19 30q100 76 172 175l56 -64q-121 -103 -209 -141z" />
    <glyph glyph-name="Scircumflex" unicode="&#x15c;" horiz-adv-x="572" 
d="M255 -11q-95 0 -209 50l8 150h39q36 -145 192 -145q61 0 104 41t43 97q0 35 -26.5 62t-66 44.5t-85.5 40t-85.5 46t-66 65.5t-26.5 96q0 94 73 152.5t169 58.5q102 0 176 -43v-131h-32q-14 59 -57 87.5t-102 28.5q-71 0 -111.5 -30.5t-40.5 -87.5q0 -39 38 -69.5
t91.5 -55t107.5 -53.5t92 -79t38 -116q0 -101 -77.5 -155t-185.5 -54zM142 761l-20 33q43 22 91 60t75 65l26 27q105 -112 181 -150l-25 -33q-31 9 -72 29.5t-67 36.5l-26 16q-66 -49 -163 -84z" />
    <glyph glyph-name="scircumflex" unicode="&#x15d;" horiz-adv-x="483" 
d="M226 -7q-98 0 -175 36l8 156l37 -1q1 -61 33.5 -102.5t104.5 -41.5q52 0 89 22t37 68q0 28 -29.5 49t-71.5 37.5t-84 37t-71.5 58.5t-29.5 90q0 72 55 114t137 42q85 0 155 -35l-17 -133l-27 4q-8 55 -34.5 85.5t-95.5 30.5q-107 0 -107 -78q0 -31 30 -55t73 -41.5
t86.5 -37.5t73.5 -55t30 -83q0 -45 -18 -78.5t-48 -52t-65.5 -27.5t-75.5 -9zM387 622q-46 28 -134 106q-85 -74 -130 -106l-26 29q96 84 168 180q89 -113 157 -173z" />
    <glyph glyph-name="Scedilla" unicode="&#x15e;" horiz-adv-x="572" 
d="M255 -11q-95 0 -209 50l8 150h39q36 -145 192 -145q61 0 104 41t43 97q0 35 -26.5 62t-66 44.5t-85.5 40t-85.5 46t-66 65.5t-26.5 96q0 94 73 152.5t169 58.5q102 0 176 -43v-131h-32q-14 59 -57 87.5t-102 28.5q-71 0 -111.5 -30.5t-40.5 -87.5q0 -39 38 -69.5
t91.5 -55t107.5 -53.5t92 -79t38 -116q0 -88 -58.5 -140t-148.5 -65l-35 -63q65 -14 94 -35.5t29 -62.5q0 -45 -42.5 -82.5t-94.5 -37.5t-96 30l35 62q24 -18 57 -26.5t58 -4.5q34 5 34 29q0 30 -34 46.5t-99 27.5l47 113h-9z" />
    <glyph glyph-name="scedilla" unicode="&#x15f;" horiz-adv-x="483" 
d="M221 -288q-52 0 -96 30l35 62q24 -18 57 -26.5t58 -4.5q34 5 34 29q0 30 -34 46.5t-99 27.5l49 117q-97 0 -174 36l8 156l37 -1q1 -61 33.5 -102.5t104.5 -41.5q52 0 89 22t37 68q0 28 -29.5 49t-71.5 37.5t-84 37t-71.5 58.5t-29.5 90q0 72 55 114t137 42q85 0 155 -35
l-17 -133l-27 4q-8 55 -34.5 85.5t-95.5 30.5q-107 0 -107 -78q0 -31 30 -55t73 -41.5t86.5 -37.5t73.5 -55t30 -83q0 -75 -45.5 -115t-116.5 -49l-36 -66q65 -14 94 -35.5t29 -62.5q0 -45 -42.5 -82.5t-94.5 -37.5z" />
    <glyph glyph-name="Scaron" unicode="&#x160;" horiz-adv-x="572" 
d="M255 -11q-95 0 -209 50l8 150h39q36 -145 192 -145q61 0 104 41t43 97q0 35 -26.5 62t-66 44.5t-85.5 40t-85.5 46t-66 65.5t-26.5 96q0 94 73 152.5t169 58.5q102 0 176 -43v-131h-32q-14 59 -57 87.5t-102 28.5q-71 0 -111.5 -30.5t-40.5 -87.5q0 -39 38 -69.5
t91.5 -55t107.5 -53.5t92 -79t38 -116q0 -101 -77.5 -155t-185.5 -54zM295 761q-105 112 -181 150l25 33q31 -9 72 -29.5t67 -36.5l26 -16q66 49 163 84l20 -33q-43 -22 -91 -60t-74 -65z" />
    <glyph glyph-name="scaron" unicode="&#x161;" horiz-adv-x="483" 
d="M226 -7q-98 0 -175 36l8 156l37 -1q1 -61 33.5 -102.5t104.5 -41.5q52 0 89 22t37 68q0 28 -29.5 49t-71.5 37.5t-84 37t-71.5 58.5t-29.5 90q0 72 55 114t137 42q85 0 155 -35l-17 -133l-27 4q-8 55 -34.5 85.5t-95.5 30.5q-107 0 -107 -78q0 -31 30 -55t73 -41.5
t86.5 -37.5t73.5 -55t30 -83q0 -45 -18 -78.5t-48 -52t-65.5 -27.5t-75.5 -9zM244 606q-89 113 -157 173l35 36q46 -28 134 -106q85 74 130 106l26 -29q-96 -84 -168 -180z" />
    <glyph glyph-name="Tcommaaccent" unicode="&#x162;" horiz-adv-x="632" 
d="M156 0q-5 24 -4 35l74 19q16 4 28 25.5t13 43.5l3 136v424h-151q-64 0 -83 -100q-14 -3 -32 3v151h624v-151q-14 -4 -31 -3q-19 100 -94 100h-142v-424l5 -170q0 -19 3.5 -26t17.5 -10l95 -18q0 -20 -4 -35h-322zM286 -286l-34 9q24 111 24 237l83 -4q-5 -118 -73 -242z
" />
    <glyph glyph-name="tcommaaccent" unicode="&#x163;" horiz-adv-x="422" 
d="M296 -11q-102 0 -143 32.5t-40 127.5l3 345h-80v22l156 142h14v-112h183v-52h-183v-222l3 -136q1 -44 21 -67t66 -23q61 0 102 11l10 -42q-52 -26 -112 -26zM232 -286l-34 9q24 111 24 237l83 -4q-5 -118 -73 -242z" />
    <glyph glyph-name="tcommaaccent" unicode="&#x21b;" horiz-adv-x="422" 
d="M296 -11q-102 0 -143 32.5t-40 127.5l3 345h-80v22l156 142h14v-112h183v-52h-183v-222l3 -136q1 -44 21 -67t66 -23q61 0 102 11l10 -42q-52 -26 -112 -26zM232 -286l-34 9q24 111 24 237l83 -4q-5 -118 -73 -242z" />
    <glyph glyph-name="Tcaron" unicode="&#x164;" horiz-adv-x="632" 
d="M156 0q-5 24 -4 35l74 19q16 4 28 25.5t13 43.5l3 136v424h-151q-64 0 -83 -100q-14 -3 -32 3v151h624v-151q-14 -4 -31 -3q-19 100 -94 100h-142v-424l5 -170q0 -19 3.5 -26t17.5 -10l95 -18q0 -20 -4 -35h-322zM309 761q-105 112 -181 150l25 33q31 -9 72 -29.5
t67 -36.5l26 -16q66 49 163 84l20 -33q-43 -22 -91 -60t-74 -65z" />
    <glyph glyph-name="tcaron" unicode="&#x165;" horiz-adv-x="422" 
d="M296 -11q-102 0 -143 32.5t-40 127.5l3 345h-80v22l156 142h14v-112h183v-52h-183v-222l3 -136q1 -44 21 -67t66 -23q61 0 102 11l10 -42q-52 -26 -112 -26zM334 629l-34 9q24 111 24 237l83 -4q-5 -118 -73 -242z" />
    <glyph glyph-name="Tbar" unicode="&#x166;" horiz-adv-x="632" 
d="M156 0q-5 24 -4 35l74 19q16 4 28 25.5t13 43.5l3 136v96h-144v52h144v276h-151q-64 0 -83 -100q-14 -3 -32 3v151h624v-151q-14 -4 -31 -3q-19 100 -94 100h-142v-276h153v-52h-153v-96l5 -170q0 -19 3.5 -26t17.5 -10l95 -18q0 -20 -4 -35h-322z" />
    <glyph glyph-name="tbar" unicode="&#x167;" horiz-adv-x="422" 
d="M296 -11q-102 0 -143 32.5t-40 127.5l1 136h-68v54h68l2 155h-80v22l156 142h14v-112h183v-52h-183v-155h128v-54h-128l3 -149q1 -44 21 -67t66 -23q61 0 102 11l10 -42q-52 -26 -112 -26z" />
    <glyph glyph-name="Utilde" unicode="&#x168;" horiz-adv-x="778" 
d="M381 -13q-269 0 -269 253v397q0 17 -8 32.5t-21 19.5l-63 21q0 12 4 27h269q3 -16 2 -32l-57 -12q-26 -5 -26 -32v-414q0 -100 55.5 -152.5t129.5 -52.5q87 0 135.5 56.5t48.5 172.5v358q0 52 -56 68l-43 13q0 23 1 27h262q3 -15 3 -29l-50 -16q-9 -3 -13.5 -6t-9 -11.5
t-4.5 -22.5v-385q0 -70 -27.5 -125.5t-71 -88t-93 -49.5t-98.5 -17zM479 785q-25 0 -90.5 22.5t-84.5 22.5q-42 0 -67 -23l-20 21q48 73 96 73q27 0 100 -21.5t95 -21.5q26 0 52 17l20 -21q-14 -24 -41.5 -46.5t-59.5 -22.5z" />
    <glyph glyph-name="utilde" unicode="&#x169;" horiz-adv-x="680" 
d="M263 -7q-91 0 -122 41.5t-31 122.5v337h-90v35q88 22 141 22q21 0 29.5 -8t8.5 -28v-236l3 -104q1 -24 2 -37t5.5 -31.5t13 -27.5t24 -16t38.5 -7q37 0 90 18.5t75 34.5l2 163v222h-101v34q89 23 149 23q21 0 30 -8t9 -28v-242l3 -209h111l3 -29q-75 -41 -131 -41
q-73 0 -73 76q-34 -25 -49.5 -35.5t-57 -26t-82.5 -15.5zM406 662q-25 0 -90.5 22.5t-84.5 22.5q-42 0 -67 -23l-20 21q48 73 96 73q27 0 100 -21.5t95 -21.5q27 0 52 17l20 -21q-14 -24 -41.5 -46.5t-59.5 -22.5z" />
    <glyph glyph-name="Umacron" unicode="&#x16a;" horiz-adv-x="778" 
d="M381 -13q-269 0 -269 253v397q0 17 -8 32.5t-21 19.5l-63 21q0 12 4 27h269q3 -16 2 -32l-57 -12q-26 -5 -26 -32v-414q0 -100 55.5 -152.5t129.5 -52.5q87 0 135.5 56.5t48.5 172.5v358q0 52 -56 68l-43 13q0 23 1 27h262q3 -15 3 -29l-50 -16q-9 -3 -13.5 -6t-9 -11.5
t-4.5 -22.5v-385q0 -70 -27.5 -125.5t-71 -88t-93 -49.5t-98.5 -17zM240 802v62h298v-62h-298z" />
    <glyph glyph-name="umacron" unicode="&#x16b;" horiz-adv-x="680" 
d="M263 -7q-91 0 -122 41.5t-31 122.5v337h-90v35q88 22 141 22q21 0 29.5 -8t8.5 -28v-236l3 -104q1 -24 2 -37t5.5 -31.5t13 -27.5t24 -16t38.5 -7q37 0 90 18.5t75 34.5l2 163v222h-101v34q89 23 149 23q21 0 30 -8t9 -28v-242l3 -209h111l3 -29q-75 -41 -131 -41
q-73 0 -73 76q-34 -25 -49.5 -35.5t-57 -26t-82.5 -15.5zM172 704v60h298v-60h-298z" />
    <glyph glyph-name="Ubreve" unicode="&#x16c;" horiz-adv-x="778" 
d="M381 -13q-269 0 -269 253v397q0 17 -8 32.5t-21 19.5l-63 21q0 12 4 27h269q3 -16 2 -32l-57 -12q-26 -5 -26 -32v-414q0 -100 55.5 -152.5t129.5 -52.5q87 0 135.5 56.5t48.5 172.5v358q0 52 -56 68l-43 13q0 23 1 27h262q3 -15 3 -29l-50 -16q-9 -3 -13.5 -6t-9 -11.5
t-4.5 -22.5v-385q0 -70 -27.5 -125.5t-71 -88t-93 -49.5t-98.5 -17zM401 804q-38 0 -70.5 11.5t-53 30t-29.5 29.5t-14 20l39 37q13 -16 48.5 -35.5t83.5 -19.5q33 0 64 12t45 23t21 19l28 -29q-57 -98 -162 -98z" />
    <glyph glyph-name="ubreve" unicode="&#x16d;" horiz-adv-x="680" 
d="M263 -7q-91 0 -122 41.5t-31 122.5v337h-90v35q88 22 141 22q21 0 29.5 -8t8.5 -28v-236l3 -104q1 -24 2 -37t5.5 -31.5t13 -27.5t24 -16t38.5 -7q37 0 90 18.5t75 34.5l2 163v222h-101v34q89 23 149 23q21 0 30 -8t9 -28v-242l3 -209h111l3 -29q-75 -41 -131 -41
q-73 0 -73 76q-34 -25 -49.5 -35.5t-57 -26t-82.5 -15.5zM320 666q-38 0 -70.5 11.5t-53 30t-29.5 29.5t-14 20l39 37q13 -16 48.5 -35.5t83.5 -19.5q33 0 64 12t45 23t21 19l28 -29q-57 -98 -162 -98z" />
    <glyph glyph-name="Uring" unicode="&#x16e;" horiz-adv-x="778" 
d="M389 -13q-61 0 -108 11.5t-86.5 38.5t-60.5 78t-21 125v396q0 17 -8 32.5t-21 19.5l-63 21q0 13 4 28h239q4 -17 2 -37l-30 -8q-14 -4 -18.5 -10.5t-4.5 -21.5v-413q0 -100 55 -152.5t129 -52.5q86 0 135.5 56.5t49.5 172.5v422q-18 -11 -54 -18.5t-64 -7.5
q-17 0 -36 3.5t-43.5 14t-40 35t-15.5 59.5q0 59 50 100t112 41q64 0 106.5 -31.5t42.5 -85.5v-6l-84 -7q1 5 1 15q0 35 -22 57.5t-55 22.5q-37 0 -59 -23.5t-22 -64.5q0 -39 24.5 -63.5t63.5 -24.5q19 0 37 2t30.5 4t31.5 7.5l27.5 8t30 10.5t28.5 10v-484
q0 -68 -26.5 -123t-68.5 -88.5t-90.5 -51t-97.5 -17.5z" />
    <glyph glyph-name="uring" unicode="&#x16f;" horiz-adv-x="680" 
d="M263 -7q-91 0 -122 41.5t-31 122.5v337h-90v35q88 22 141 22q21 0 29.5 -8t8.5 -28v-236l3 -104q1 -24 2 -37t5.5 -31.5t13 -27.5t24 -16t38.5 -7q37 0 90 18.5t75 34.5l2 163v222h-101v34q89 23 149 23q21 0 30 -8t9 -28v-242l3 -209h111l3 -29q-75 -41 -131 -41
q-73 0 -73 76q-34 -25 -49.5 -35.5t-57 -26t-82.5 -15.5zM318 614q-58 0 -97 24.5t-39 80.5t44 89t102 33q47 0 84 -24.5t47 -77.5l-68 -30q0 35 -22.5 65t-56.5 30q-32 0 -49 -20t-17 -50q0 -40 21.5 -60.5t53.5 -20.5q43 0 73 25l23 -24q-43 -40 -99 -40z" />
    <glyph glyph-name="Uhungarumlaut" unicode="&#x170;" horiz-adv-x="778" 
d="M381 -13q-269 0 -269 253v397q0 17 -8 32.5t-21 19.5l-63 21q0 12 4 27h269q3 -16 2 -32l-57 -12q-26 -5 -26 -32v-414q0 -100 55.5 -152.5t129.5 -52.5q87 0 135.5 56.5t48.5 172.5v358q0 52 -56 68l-43 13q0 23 1 27h262q3 -15 3 -29l-50 -16q-9 -3 -13.5 -6t-9 -11.5
t-4.5 -22.5v-385q0 -70 -27.5 -125.5t-71 -88t-93 -49.5t-98.5 -17zM232 775l-15 32q117 64 200 141l41 -66q-135 -84 -226 -107zM431 776l-10 34q122 45 219 110l31 -71q-144 -63 -240 -73z" />
    <glyph glyph-name="uhungarumlaut" unicode="&#x171;" horiz-adv-x="680" 
d="M263 -7q-91 0 -122 41.5t-31 122.5v337h-90v35q88 22 141 22q21 0 29.5 -8t8.5 -28v-236l3 -104q1 -24 2 -37t5.5 -31.5t13 -27.5t24 -16t38.5 -7q37 0 90 18.5t75 34.5l2 163v222h-101v34q89 23 149 23q21 0 30 -8t9 -28v-242l3 -209h111l3 -29q-75 -41 -131 -41
q-73 0 -73 76q-34 -25 -49.5 -35.5t-57 -26t-82.5 -15.5zM182 622l-26 24q81 101 126 211l70 -49q-94 -129 -170 -186zM358 623l-19 30q100 76 172 175l56 -64q-121 -103 -209 -141z" />
    <glyph glyph-name="Uogonek" unicode="&#x172;" horiz-adv-x="778" 
d="M450 -261q-61 0 -93 26.5t-32 71.5q0 74 92 153q-18 -3 -36 -3q-269 0 -269 253v397q0 17 -8 32.5t-21 19.5l-63 21q0 12 4 27h269q3 -16 2 -32l-57 -12q-26 -5 -26 -32v-414q0 -100 55.5 -152.5t129.5 -52.5q87 0 135.5 56.5t48.5 172.5v358q0 52 -56 68l-43 13
q0 23 1 27h262q3 -15 3 -29l-50 -16q-9 -3 -13.5 -6t-9 -11.5t-4.5 -22.5v-385q0 -55 -15 -98.5t-38.5 -70t-52 -48t-57 -39.5t-52 -37t-38.5 -47.5t-15 -64.5t16.5 -58t49.5 -22q35 0 73 29l18 -45q-47 -27 -110 -27z" />
    <glyph glyph-name="uogonek" unicode="&#x173;" horiz-adv-x="680" 
d="M545 -261q-61 0 -93 26.5t-32 71.5q0 77 98 157q-66 3 -66 76q-34 -25 -49.5 -35.5t-57 -26t-82.5 -15.5q-91 0 -122 41.5t-31 122.5v337h-90v35q88 22 141 22q21 0 29.5 -8t8.5 -28v-236l3 -104q1 -24 2 -37t5.5 -31.5t13 -27.5t24 -16t38.5 -7q37 0 90 18.5t75 34.5
l2 163v222h-101v34q89 23 149 23q21 0 30 -8t9 -28v-242l3 -209h111l3 -29q-61 -19 -109.5 -68.5t-48.5 -104.5q0 -36 16.5 -58t49.5 -22q35 0 73 29l18 -45q-47 -27 -110 -27z" />
    <glyph glyph-name="Wcircumflex" unicode="&#x174;" horiz-adv-x="1096" 
d="M726 -21l-171 488l-215 -469l-55 -16l-191 658q-10 35 -28 44l-56 30q0 8 4 23h256q4 -22 4 -26l-51 -18q-17 -6 -22 -28t2 -43l115 -443l18 -75h2l33 76l160 359l-39 117q-6 19 -22 28l-52 30v23h255q4 -22 4 -26l-51 -18q-25 -9 -25 -55q0 -18 4 -29l147 -448l19 -63h2
l17 65l133 457q6 18 6 32q0 24 -19 33l-58 27q0 11 5 25h219q3 -23 3 -25l-39 -18q-34 -15 -52 -69l-202 -628zM383 761l-20 33q43 22 91 60t74 65l27 27q105 -112 181 -150l-25 -33q-31 9 -72 29.5t-67 36.5l-26 16q-66 -49 -163 -84z" />
    <glyph glyph-name="wcircumflex" unicode="&#x175;" horiz-adv-x="903" 
d="M601 -20l-156 439l-163 -421l-54 -17l-149 446q-12 36 -22.5 53.5t-30.5 31.5q0 22 5 34h206q0 -10 -1.5 -19.5t-3.5 -14.5l-1 -4h-76l121 -396l158 426l57 19l161 -448l111 343q12 40 -19 50l-33 11q0 26 2 33h164q0 -26 -2 -29q-4 -1 -10.5 -5t-21.5 -21.5t-24 -42.5
l-162 -452zM584 622q-46 28 -134 106q-85 -74 -130 -106l-26 29q96 84 168 180q89 -113 157 -173z" />
    <glyph glyph-name="Ycircumflex" unicode="&#x176;" horiz-adv-x="662" 
d="M174 0q-5 24 -4 36l70 18q37 9 37 57l3 193l-195 334q-12 20 -24 33t-31.5 27t-22.5 16q0 16 2 23h241q4 -20 4 -26l-51 -19q-14 -4 -14 -26q0 -20 12 -43l141 -265l151 271q8 15 4 32t-17 24l-56 27q0 17 3 25h219q3 -19 3 -25q-57 -23 -78 -60l-200 -341l3 -203
q0 -18 8 -33.5t21 -19.5l84 -23q0 -17 -4 -32h-309zM164 761l-20 33q43 22 91 60t75 65l26 27q105 -112 181 -150l-25 -33q-31 9 -72 29.5t-67 36.5l-26 16q-66 -49 -163 -84z" />
    <glyph glyph-name="ycircumflex" unicode="&#x177;" horiz-adv-x="570" 
d="M114 -316l-51 80q68 29 104 69t61 101l21 50l-166 454q-19 53 -53 76q0 22 4 32h201q0 -27 -4 -38h-66l138 -418l121 329q9 25 9 43q0 31 -27 41l-29 10q0 23 3 33h162q0 -20 -2 -27q-30 -24 -56 -91l-207 -523q-34 -85 -65.5 -129.5t-97.5 -91.5zM431 622
q-46 28 -134 106q-85 -74 -130 -106l-26 29q96 84 168 180q89 -113 157 -173z" />
    <glyph glyph-name="Ydieresis" unicode="&#x178;" horiz-adv-x="662" 
d="M174 0q-5 24 -4 36l70 18q37 9 37 57l3 193l-195 334q-12 20 -24 33t-31.5 27t-22.5 16q0 16 2 23h241q4 -20 4 -26l-51 -19q-14 -4 -14 -26q0 -20 12 -43l141 -265l151 271q8 15 4 32t-17 24l-56 27q0 17 3 25h219q3 -19 3 -25q-57 -23 -78 -60l-200 -341l3 -203
q0 -18 8 -33.5t21 -19.5l84 -23q0 -17 -4 -32h-309zM224 771q-10 0 -36 26.5t-26 35.5q0 10 26.5 36t35.5 26q10 0 36.5 -26t26.5 -36q0 -8 -26 -35t-37 -27zM442 771q-10 0 -36 26.5t-26 35.5q0 10 26.5 36t35.5 26q10 0 36.5 -26t26.5 -36q0 -8 -26 -35t-37 -27z" />
    <glyph glyph-name="Zacute" unicode="&#x179;" horiz-adv-x="606" 
d="M44 0l-17 57l407 630l-260 -4q-66 -10 -83 -99q-15 -2 -35 3v150h488l12 -44l-412 -635l271 4q50 1 82 31t44 70l35 -7l-19 -156h-513zM233 776l-10 34q122 45 219 110l31 -71q-144 -63 -240 -73z" />
    <glyph glyph-name="zacute" unicode="&#x17a;" horiz-adv-x="507" 
d="M32 0l-12 35l346 436h-226q-38 0 -89 -66l-25 10l34 131h386l15 -40l-337 -432h214q13 0 26 4.5t24 12.5t20.5 16.5t18 20.5t13.5 18.5t11 16.5t6 11l30 -9l-27 -165h-428zM199 623l-19 30q100 76 172 175l56 -64q-121 -103 -209 -141z" />
    <glyph glyph-name="Zdotaccent" unicode="&#x17b;" horiz-adv-x="606" 
d="M44 0l-17 57l407 630l-260 -4q-66 -10 -83 -99q-15 -2 -35 3v150h488l12 -44l-412 -635l271 4q50 1 82 31t44 70l35 -7l-19 -156h-513zM316 787q-10 0 -37.5 28t-27.5 38q0 11 28 38t37 27q10 0 38 -27.5t28 -37.5q0 -9 -27.5 -37.5t-38.5 -28.5z" />
    <glyph glyph-name="zdotaccent" unicode="&#x17c;" horiz-adv-x="507" 
d="M32 0l-12 35l346 436h-226q-38 0 -89 -66l-25 10l34 131h386l15 -40l-337 -432h214q13 0 26 4.5t24 12.5t20.5 16.5t18 20.5t13.5 18.5t11 16.5t6 11l30 -9l-27 -165h-428zM263 690q-12 0 -43 32t-31 43q0 12 31 43t43 31q11 0 43 -31.5t32 -42.5q0 -10 -31.5 -42.5
t-43.5 -32.5z" />
    <glyph glyph-name="Zcaron" unicode="&#x17d;" horiz-adv-x="606" 
d="M44 0l-17 57l407 630l-260 -4q-66 -10 -83 -99q-15 -2 -35 3v150h488l12 -44l-412 -635l271 4q50 1 82 31t44 70l35 -7l-19 -156h-513zM312 761q-105 112 -181 150l25 33q31 -9 72 -29.5t67 -36.5l26 -16q66 49 163 84l20 -33q-43 -22 -91 -60t-75 -65z" />
    <glyph glyph-name="zcaron" unicode="&#x17e;" horiz-adv-x="507" 
d="M32 0l-12 35l346 436h-226q-38 0 -89 -66l-25 10l34 131h386l15 -40l-337 -432h214q13 0 26 4.5t24 12.5t20.5 16.5t18 20.5t13.5 18.5t11 16.5t6 11l30 -9l-27 -165h-428zM246 606q-89 113 -157 173l35 36q46 -28 134 -106q85 74 130 106l26 -29q-96 -84 -168 -180z" />
    <glyph glyph-name="longs" unicode="&#x17f;" horiz-adv-x="384" 
d="M42 0q-4 20 -4 30l43 18q47 19 47 66l3 159v221h-80v36l80 16v105q0 78 58.5 148t139.5 70q54 0 91 -15.5t37 -44.5q0 -24 -10.5 -36.5t-34.5 -24.5q-16 23 -41.5 44t-48.5 21q-103 0 -103 -151v-389l7 -192q0 -15 11 -17l88 -26q0 -22 -5 -38h-278z" />
    <glyph glyph-name="uni018F" unicode="&#x18f;" horiz-adv-x="748" 
d="M351 -11q-143 0 -224.5 97.5t-81.5 261.5v34h538q0 133 -66.5 219t-190.5 86q-102 0 -202 -53l-23 46q109 68 253 68q339 0 339 -349q0 -168 -96 -289t-246 -121zM354 47q54 0 96.5 23.5t68.5 64t41 88.5t20 103h-424q3 -56 14.5 -103.5t33.5 -88.5t60.5 -64t89.5 -23z
" />
    <glyph glyph-name="florin" unicode="&#x192;" horiz-adv-x="534" 
d="M127 -85q-29 0 -47.5 11.5t-18.5 28.5q0 22 7 35h118q21 40 21 93l5 174h-95v52h98l4 107q4 73 58.5 132.5t117.5 59.5q46 0 78.5 -14t32.5 -37q0 -29 -35 -46q-50 44 -77 57q-83 -2 -86 -135l-2 -124h112v-52h-115l-7 -167q-2 -68 -59 -121.5t-110 -53.5z" />
    <glyph glyph-name="uni01D3" unicode="&#x1d3;" horiz-adv-x="778" 
d="M381 -13q-269 0 -269 253v397q0 17 -8 32.5t-21 19.5l-63 21q0 12 4 27h269q3 -16 2 -32l-57 -12q-26 -5 -26 -32v-414q0 -100 55.5 -152.5t129.5 -52.5q87 0 135.5 56.5t48.5 172.5v358q0 52 -56 68l-43 13q0 23 1 27h262q3 -15 3 -29l-50 -16q-9 -3 -13.5 -6t-9 -11.5
t-4.5 -22.5v-385q0 -70 -27.5 -125.5t-71 -88t-93 -49.5t-98.5 -17zM388 761q-105 112 -181 150l25 33q31 -9 72 -29.5t67 -36.5l26 -16q66 49 163 84l20 -33q-43 -22 -91 -60t-75 -65z" />
    <glyph glyph-name="uni01D4" unicode="&#x1d4;" horiz-adv-x="680" 
d="M263 -7q-91 0 -122 41.5t-31 122.5v337h-90v35q88 22 141 22q21 0 29.5 -8t8.5 -28v-236l3 -104q1 -24 2 -37t5.5 -31.5t13 -27.5t24 -16t38.5 -7q37 0 90 18.5t75 34.5l2 163v222h-101v34q89 23 149 23q21 0 30 -8t9 -28v-242l3 -209h111l3 -29q-75 -41 -131 -41
q-73 0 -73 76q-34 -25 -49.5 -35.5t-57 -26t-82.5 -15.5zM308 606q-89 113 -157 173l35 36q46 -28 134 -106q85 74 130 106l26 -29q-96 -84 -168 -180z" />
    <glyph glyph-name="AEmacron" unicode="&#x1e2;" horiz-adv-x="988" 
d="M8 0q-4 12 -4 30q4 2 12 7.5t12 8.5q47 31 68 64l374 627h438v-146q-6 -2 -22 -2q-4 0 -10.5 0.5t-9.5 0.5q-9 47 -26.5 68t-53.5 22l-202 6v-290q46 1 136 2.5t136 2.5v-62q-46 1 -136 2.5t-136 2.5v-71q1 -37 2.5 -110.5t2.5 -110.5l198 3q50 1 82 31.5t46 71.5
q5 -1 16.5 -3.5t17.5 -3.5l-18 -151h-514q-1 8 -3 18q-1 7 0 17l38 18q37 17 39 58l3 163v70h-197l-133 -228q-28 -47 47 -70q9 -2 25.5 -8t25.5 -8q0 -16 -5 -30h-249zM538 802v62h298v-62h-298zM327 396h167v284z" />
    <glyph glyph-name="aemacron" unicode="&#x1e3;" horiz-adv-x="855" 
d="M623 -9q-92 0 -149.5 23t-85.5 83q-116 -105 -216 -105q-57 0 -94.5 33t-37.5 94q0 130 190 161q85 12 130 15v101q0 55 -32 78.5t-106 23.5q-64 0 -133 -21l-12 39q89 41 172 41q30 0 50 -1.5t50 -8t51 -23.5t33 -43q68 78 172 78q108 0 157 -65t49 -191v-28l-361 -18
q4 -203 198 -203q72 0 138 17l13 -40q-26 -17 -76 -28.5t-100 -11.5zM208 65q58 0 171 54q-19 66 -20 130q-73 -5 -123 -16q-103 -24 -103 -98q0 -27 18 -48.5t57 -21.5zM449 302l260 22q0 189 -112 189q-72 0 -108.5 -50t-39.5 -161zM275 704v60h298v-60h-298z" />
    <glyph glyph-name="AEacute" unicode="&#x1fc;" horiz-adv-x="988" 
d="M8 0q-4 12 -4 30q4 2 12 7.5t12 8.5q47 31 68 64l374 627h438v-146q-6 -2 -22 -2q-4 0 -10.5 0.5t-9.5 0.5q-9 47 -26.5 68t-53.5 22l-202 6v-290q46 1 136 2.5t136 2.5v-62q-46 1 -136 2.5t-136 2.5v-71q1 -37 2.5 -110.5t2.5 -110.5l198 3q50 1 82 31.5t46 71.5
q5 -1 16.5 -3.5t17.5 -3.5l-18 -151h-514q-1 8 -3 18q-1 7 0 17l38 18q37 17 39 58l3 163v70h-197l-133 -228q-28 -47 47 -70q9 -2 25.5 -8t25.5 -8q0 -16 -5 -30h-249zM589 776q-1 6 -5 17t-5 17q122 45 219 110l31 -71q-144 -63 -240 -73zM327 396h167v284z" />
    <glyph glyph-name="aeacute" unicode="&#x1fd;" horiz-adv-x="855" 
d="M623 -9q-92 0 -149.5 23t-85.5 83q-116 -105 -216 -105q-57 0 -94.5 33t-37.5 94q0 130 190 161q85 12 130 15v101q0 55 -32 78.5t-106 23.5q-64 0 -133 -21l-12 39q89 41 172 41q30 0 50 -1.5t50 -8t51 -23.5t33 -43q68 78 172 78q108 0 157 -65t49 -191v-28l-361 -18
q4 -203 198 -203q72 0 138 17l13 -40q-26 -17 -76 -28.5t-100 -11.5zM208 65q58 0 171 54q-19 66 -20 130q-73 -5 -123 -16q-103 -24 -103 -98q0 -27 18 -48.5t57 -21.5zM449 302l260 22q0 189 -112 189q-72 0 -108.5 -50t-39.5 -161zM360 623l-19 30q100 76 172 175l56 -64
q-121 -103 -209 -141z" />
    <glyph glyph-name="Oslashacute" unicode="&#x1fe;" horiz-adv-x="817" 
d="M65 -18l-32 30l94 92q-72 90 -72 235q0 171 102.5 290t262.5 119q158 0 248 -87l72 81l32 -29l-75 -85q66 -88 66 -228q0 -110 -42.5 -203t-126.5 -151t-193 -58q-152 0 -244 84zM202 178l398 410q-65 103 -189 103q-65 0 -114 -26.5t-77 -72.5t-41.5 -101t-13.5 -120
q0 -112 37 -193zM404 47q68 0 118 26.5t77.5 72.5t40.5 101.5t13 121.5q0 101 -32 177l-396 -408q63 -91 179 -91zM322 776l-10 34q122 45 219 110l31 -71q-144 -63 -240 -73z" />
    <glyph glyph-name="oslashacute" unicode="&#x1ff;" horiz-adv-x="581" 
d="M45 -33l-31 27l76 83q-46 66 -46 186q0 113 74 202t175 89q107 0 167 -50l64 79l32 -27l-68 -84q49 -67 49 -195q0 -112 -74 -198t-179 -86q-107 0 -166 52zM301 53q43 0 72 17.5t42.5 51t18.5 67.5t5 80q0 76 -16 124l-245 -282q41 -58 123 -58zM158 152l245 284
q-39 62 -121 62q-142 0 -142 -222q0 -73 18 -124zM223 623l-19 30q100 76 172 175l56 -64q-121 -103 -209 -141z" />
    <glyph glyph-name="Scommaaccent" unicode="&#x218;" horiz-adv-x="572" 
d="M255 -11q-95 0 -209 50l8 150h39q36 -145 192 -145q61 0 104 41t43 97q0 35 -26.5 62t-66 44.5t-85.5 40t-85.5 46t-66 65.5t-26.5 96q0 94 73 152.5t169 58.5q102 0 176 -43v-131h-32q-14 59 -57 87.5t-102 28.5q-71 0 -111.5 -30.5t-40.5 -87.5q0 -39 38 -69.5
t91.5 -55t107.5 -53.5t92 -79t38 -116q0 -101 -77.5 -155t-185.5 -54zM257 -286l-34 9q24 111 24 237l83 -4q-5 -118 -73 -242z" />
    <glyph glyph-name="scommaaccent" unicode="&#x219;" horiz-adv-x="483" 
d="M226 -7q-98 0 -175 36l8 156l37 -1q1 -61 33.5 -102.5t104.5 -41.5q52 0 89 22t37 68q0 28 -29.5 49t-71.5 37.5t-84 37t-71.5 58.5t-29.5 90q0 72 55 114t137 42q85 0 155 -35l-17 -133l-27 4q-8 55 -34.5 85.5t-95.5 30.5q-107 0 -107 -78q0 -31 30 -55t73 -41.5
t86.5 -37.5t73.5 -55t30 -83q0 -45 -18 -78.5t-48 -52t-65.5 -27.5t-75.5 -9zM220 -286l-34 9q24 111 24 237l83 -4q-5 -118 -73 -242z" />
    <glyph glyph-name="uni021A" unicode="&#x21a;" horiz-adv-x="632" 
d="M156 0q-5 24 -4 35l74 19q16 4 28 25.5t13 43.5l3 136v424h-151q-64 0 -83 -100q-14 -3 -32 3v151h624v-151q-14 -4 -31 -3q-19 100 -94 100h-142v-424l5 -170q0 -19 3.5 -26t17.5 -10l95 -18q0 -20 -4 -35h-322zM290 -286l-34 9q24 111 24 237l83 -4q-5 -118 -73 -242z
" />
    <glyph glyph-name="Ymacron" unicode="&#x232;" horiz-adv-x="662" 
d="M174 0q-5 24 -4 36l70 18q37 9 37 57l3 193l-195 334q-12 20 -24 33t-31.5 27t-22.5 16q0 16 2 23h241q4 -20 4 -26l-51 -19q-14 -4 -14 -26q0 -20 12 -43l141 -265l151 271q8 15 4 32t-17 24l-56 27q0 17 3 25h219q3 -19 3 -25q-57 -23 -78 -60l-200 -341l3 -203
q0 -18 8 -33.5t21 -19.5l84 -23q0 -17 -4 -32h-309zM182 802v62h298v-62h-298z" />
    <glyph glyph-name="ymacron" unicode="&#x233;" horiz-adv-x="570" 
d="M114 -316l-51 80q68 29 104 69t61 101l21 50l-166 454q-19 53 -53 76q0 22 4 32h201q0 -27 -4 -38h-66l138 -418l121 329q9 25 9 43q0 31 -27 41l-29 10q0 23 3 33h162q0 -20 -2 -27q-30 -24 -56 -91l-207 -523q-34 -85 -65.5 -129.5t-97.5 -91.5zM148 704v60h298v-60
h-298z" />
    <glyph glyph-name="schwa" unicode="&#x259;" horiz-adv-x="540" 
d="M232 560q68 0 113.5 -11t81.5 -40.5t52.5 -83.5t16.5 -137q0 -126 -69.5 -211t-178.5 -85q-204 0 -204 264v28h362q-3 65 -18.5 108.5t-43.5 65.5t-60 30.5t-77 8.5q-68 0 -138 -18l-13 41q26 17 76 28.5t100 11.5zM405 237h-259q0 -46 4.5 -79t16.5 -62t36 -44t60 -15
q61 0 101.5 50t40.5 150z" />
    <glyph glyph-name="h.superior" unicode="&#x2b0;" horiz-adv-x="483" 
d="M34 453q-3 18 -2 30l31 14q22 8 22 43l2 96v281h-67v33q62 16 104 16q27 0 27 -24v-164q62 48 136 48q71 0 91.5 -29.5t20.5 -93.5v-67l2 -123q0 -13 12 -14l47 -10q0 -24 -3 -36h-169q-4 19 -2 34l28 12q8 3 13.5 16t5.5 23l2 98v54q0 48 -13.5 65.5t-59.5 17.5
q-28 0 -62.5 -9.5t-48.5 -18.5v-109l2 -115q0 -20 12 -22l59 -11q0 -23 -3 -35h-187z" />
    <glyph glyph-name="j.superior" unicode="&#x2b2;" horiz-adv-x="244" 
d="M35 310q-27 0 -46 7l7 46q6 -6 42 -6q33 0 44 19.5t11 63.5v334h-66v36q59 16 103 16q27 0 27 -26v-164l3 -177q1 -66 -34 -107.5t-91 -41.5zM123 882q-8 0 -29.5 22t-21.5 30q0 9 21.5 30.5t29.5 21.5q9 0 31 -22t22 -30t-21.5 -30t-31.5 -22z" />
    <glyph glyph-name="r.superior" unicode="&#x2b3;" horiz-adv-x="315" 
d="M34 453q-4 19 -3 30l32 16q23 13 23 48l1 90v137h-66v37q62 15 103 15q26 0 26 -25v-30q14 23 43 39.5t62 16.5q19 0 47 -7l-14 -65q-16 8 -44 8q-68 0 -93 -27v-99l3 -119q0 -17 9 -18l72 -11q0 -28 -2 -36h-199z" />
    <glyph glyph-name="w.superior" unicode="&#x2b7;" 
d="M399 440l-101 279l-101 -266l-47 -12l-99 298q-13 37 -40 46q0 23 5 35h152l-4 -38h-53l72 -244l99 274l49 14l103 -289l71 218q8 18 -14 29l-23 10q-1 16 3 26h126q0 -19 -2 -25l-3 -1l-8 -5.5t-10.5 -9t-12 -16.5t-11.5 -24l-103 -287z" />
    <glyph glyph-name="y.superior" unicode="&#x2b8;" horiz-adv-x="387" 
d="M114 294l-39 53q18 10 39.5 30.5t29.5 37.5q19 38 20 39l-114 294q-12 28 -44 39q0 23 4 33h152q0 -30 -2 -38h-51l94 -255l80 209q5 13 0.5 27t-18.5 19q0 1 -7.5 3t-8.5 2q0 24 1 33h128q0 -18 -4 -34q-10 -3 -14.5 -6t-13 -13.5t-15.5 -29.5l-136 -341
q-28 -67 -81 -102z" />
    <glyph glyph-name="circumflex" unicode="&#x2c6;" horiz-adv-x="540" 
d="M390 622q-46 28 -134 106q-85 -74 -130 -106l-26 29q96 84 168 180q89 -113 157 -173z" />
    <glyph glyph-name="caron" unicode="&#x2c7;" horiz-adv-x="540" 
d="M263 606q-89 113 -157 173l35 36q46 -28 134 -106q85 74 130 106l26 -29q-96 -84 -168 -180z" />
    <glyph glyph-name="breve" unicode="&#x2d8;" horiz-adv-x="500" 
d="M253 666q-38 0 -70.5 11.5t-53 30t-29.5 29.5t-14 20l39 37q13 -16 48.5 -35.5t83.5 -19.5q33 0 64 12t45 23t21 19l28 -29q-57 -98 -162 -98z" />
    <glyph glyph-name="dotaccent" unicode="&#x2d9;" horiz-adv-x="348" 
d="M184 690q-12 0 -43 32t-31 43q0 12 31 43t43 31q11 0 43 -31.5t32 -42.5q0 -10 -31.5 -42.5t-43.5 -32.5z" />
    <glyph glyph-name="ring" unicode="&#x2da;" horiz-adv-x="444" 
d="M215 621q-17 0 -32.5 2.5t-40 11t-39.5 31.5t-15 57q0 54 36.5 84t87.5 30q125 0 125 -105q0 -49 -39 -80t-83 -31zM215 652q28 0 44.5 21.5t16.5 54.5q0 35 -19 55.5t-47 20.5t-44.5 -20.5t-16.5 -53.5q0 -38 17.5 -58t48.5 -20z" />
    <glyph glyph-name="ogonek" unicode="&#x2db;" horiz-adv-x="565" 
d="M399 -261q-61 0 -93 26.5t-32 71.5q0 63 62.5 124.5t130.5 92.5l37 -21q-62 -22 -107 -70.5t-45 -100.5q0 -36 16.5 -58t49.5 -22q35 0 73 29l18 -45q-47 -27 -110 -27z" />
    <glyph glyph-name="tilde" unicode="&#x2dc;" horiz-adv-x="540" 
d="M352 662q-25 0 -90.5 22.5t-84.5 22.5q-42 0 -67 -23l-20 21q48 73 96 73q27 0 100 -21.5t95 -21.5q27 0 52 17l20 -21q-14 -24 -41.5 -46.5t-59.5 -22.5z" />
    <glyph glyph-name="hungarumlaut" unicode="&#x2dd;" horiz-adv-x="568" 
d="M126 622l-26 24q81 101 126 211l70 -49q-94 -129 -170 -186zM302 623l-19 30q100 76 172 175l56 -64q-121 -103 -209 -141z" />
    <glyph glyph-name="x.superior" unicode="&#x2e3;" horiz-adv-x="395" 
d="M12 454q-3 8 -3 29q26 8 46 30l107 121l-96 132q-8 13 -44 25v3q-1 2 -1.5 5t-0.5 6.5t0.5 7.5t1.5 7h152q0 -29 -5 -38h-39l73 -105l62 73q6 7 7 16.5t-6 13.5l-22 15q0 17 3 25h128q0 -22 -3 -29q-27 -5 -53 -35l-92 -111l94 -122q12 -16 23 -22t40 -16q0 -25 -2 -31
h-154q-2 9 -2 28l7 4q8 5 11.5 14.5t-4.5 25.5l-52 73l-71 -86q-6 -8 -4.5 -13.5t7.5 -6.5l37 -6q0 -24 -3 -33h-142z" />
    <glyph glyph-name="uni0374" unicode="&#x374;" horiz-adv-x="327" 
d="M106 561l-23 20q72 77 81 120q-19 12 -48 41.5t-29 39.5q0 14 35.5 49t47.5 35q17 0 48 -34t31 -54q0 -57 -44.5 -119t-98.5 -98z" />
    <glyph glyph-name="uni0375" unicode="&#x375;" horiz-adv-x="327" 
d="M103 -181l-23 20q73 81 81 119q-20 12 -49 42t-29 40q0 13 36 48t48 35q17 0 48 -33.5t31 -53.5q0 -57 -44.5 -119t-98.5 -98z" />
    <glyph glyph-name="uni037E" unicode="&#x37e;" horiz-adv-x="440" 
d="M164 -181l-23 20q73 78 82 119q-20 12 -49 42t-29 40q0 13 36 48t48 35q17 0 47.5 -33.5t30.5 -54.5q0 -56 -44 -118t-99 -98zM219 399q-13 0 -48 36t-35 49t35.5 48t47.5 35q13 0 49 -35t36 -48q0 -11 -35.5 -48t-49.5 -37z" />
    <glyph glyph-name="tonos" unicode="&#x384;" horiz-adv-x="568" 
d="M201 608l-37 24q65 104 106 224l81 -49q-52 -93 -150 -199z" />
    <glyph glyph-name="dieresistonos" unicode="&#x385;" horiz-adv-x="479" 
d="M105 635q-10 0 -36 26.5t-26 35.5q0 10 26.5 36t35.5 26t36 -26t27 -36q0 -8 -26.5 -35t-36.5 -27zM373 635q-10 0 -36 26.5t-26 35.5q0 10 26.5 36t35.5 26t36 -26t27 -36q0 -8 -26.5 -35t-36.5 -27zM211 628l-37 24q65 104 106 224l81 -49q-52 -93 -150 -199z" />
    <glyph glyph-name="Alphatonos" unicode="&#x386;" horiz-adv-x="733" 
d="M27 0q-4 11 -4 30l24 19q25 19 43 61l258 629l72 26l212 -638q19 -54 52 -82l17 -15q0 -16 -5 -30h-264q-3 22 -3 30l71 21q18 5 25 29t0 46l-55 190h-236l-76 -200q-8 -23 4.5 -41.5t42.5 -28.5l51 -16q0 -16 -5 -30h-224zM253 367h202l-65 221l-20 78h-7l-25 -76z
M10 518l-29 18q67 112 103 224l76 -43q-52 -93 -150 -199z" />
    <glyph glyph-name="anoteleia" unicode="&#x387;" horiz-adv-x="277" 
d="M143 273q-13 0 -48.5 36t-35.5 49q0 14 36 48.5t48 34.5q13 0 48.5 -35t35.5 -48q0 -11 -35 -48t-49 -37z" />
    <glyph glyph-name="Epsilontonos" unicode="&#x388;" horiz-adv-x="641" 
d="M32 0q-4 27 -3 35l68 18q37 10 39 58l3 163v372q0 31 -24 40l-75 26q-1 9 5 25h508v-146q-3 -1 -42 -1q-9 47 -26.5 68t-53.5 22l-202 6v-290l272 5v-62l-272 5v-71l5 -221l198 3q50 1 82 31.5t46 71.5l34 -7l-18 -151h-544zM-146 518l-29 18q67 112 103 224l76 -43
q-52 -93 -150 -199z" />
    <glyph glyph-name="Etatonos" unicode="&#x389;" horiz-adv-x="850" 
d="M39 0q-5 23 -4 30l58 21q20 8 31.5 32t11.5 48l2 142v352q0 55 -30 64l-73 21q0 12 4 27h272q5 -23 4 -31l-56 -13q-20 -5 -25.5 -13t-5.5 -28v-256h390v219q0 22 -11 46t-30 31l-49 18q0 23 1 27h262q0 -22 -2 -31l-52 -12q-17 -5 -23 -12.5t-6 -26.5v-382l4 -175
q0 -36 19 -40l84 -19q0 -25 -5 -39h-286q-5 24 -4 34l42 12q29 8 41.5 36t12.5 57l2 134v71h-390v-71l4 -174q1 -32 22 -37l96 -26q0 -22 -5 -36h-306zM-146 518l-29 18q67 112 103 224l76 -43q-52 -93 -150 -199z" />
    <glyph glyph-name="Iotatonos" unicode="&#x38a;" horiz-adv-x="360" 
d="M40 0q-3 25 -3 30l53 21q36 14 38 69l2 153v344q0 61 -50 78l-40 15q-3 13 1 27h262q4 -19 3 -31l-41 -9q-22 -5 -33 -27.5t-11 -49.5v-347l3 -184q0 -19 4.5 -26t20.5 -10l80 -17q0 -22 -5 -36h-284zM-146 518l-29 18q67 112 103 224l76 -43q-52 -93 -150 -199z" />
    <glyph glyph-name="Omicrontonos" unicode="&#x38c;" horiz-adv-x="818" 
d="M401 -12q-163 0 -254.5 94t-91.5 257q0 171 102.5 290t262.5 119q166 0 254.5 -94t88.5 -254q0 -110 -42.5 -203t-126.5 -151t-193 -58zM404 47q68 0 118 26.5t77.5 72.5t40.5 101.5t13 121.5q0 88 -23.5 158t-79.5 117t-139 47q-65 0 -114 -26.5t-77 -72.5t-41.5 -101
t-13.5 -120q0 -63 13 -118.5t40 -103t74.5 -75t111.5 -27.5zM-66 518l-29 18q67 112 103 224l76 -43q-52 -93 -150 -199z" />
    <glyph glyph-name="Upsilontonos" unicode="&#x38e;" horiz-adv-x="645" 
d="M166 0q-5 24 -4 35l70 18q18 4 29 20t11 37v112q0 87 -38 197t-97 189t-112 79h-28l-7 28q62 31 108 31q84 0 139.5 -103.5t93.5 -311.5h3q44 207 116.5 310.5t151.5 103.5q39 0 53 -8l-8 -56q-8 1 -20 1q-57 0 -121 -91t-103.5 -201.5t-39.5 -177.5v-105q0 -17 9 -33
t23 -20l84 -23q0 -16 -4 -31h-309zM-171 518l-29 18q67 112 103 224l76 -43q-52 -93 -150 -199z" />
    <glyph glyph-name="Omegatonos" unicode="&#x38f;" horiz-adv-x="817" 
d="M34 0v84l223 -31v2q-86 33 -143.5 112t-57.5 214q0 157 107.5 261.5t256.5 104.5q173 0 259.5 -99t86.5 -269q0 -107 -63 -191t-148 -124l1 -2l233 22v-84h-291l-22 62q89 61 131 131t42 187q0 141 -58 226t-180 85q-128 0 -185.5 -84t-57.5 -225q0 -69 12.5 -119.5
t40 -86.5t53 -57t69.5 -49l-25 -70h-284zM-68 518l-29 18q67 112 103 224l76 -43q-52 -93 -150 -199z" />
    <glyph glyph-name="iotadieresistonos" unicode="&#x390;" horiz-adv-x="313" 
d="M179 -6q-50 0 -70 29.5t-18 85.5l3 161v80l-4 196h95l-5 -196v-77l4 -143q1 -42 11.5 -59t36.5 -17q18 0 58 10l7 -36q-57 -34 -118 -34zM15 635q-10 0 -36 26.5t-26 35.5q0 10 26.5 36t35.5 26t36 -26t27 -36q0 -8 -26.5 -35t-36.5 -27zM283 635q-10 0 -36 26.5
t-26 35.5q0 10 26.5 36t35.5 26t36 -26t27 -36q0 -8 -26.5 -35t-36.5 -27zM121 628l-37 24q65 104 106 224l81 -49q-52 -93 -150 -199z" />
    <glyph glyph-name="Alpha" unicode="&#x391;" horiz-adv-x="733" 
d="M27 0q-4 11 -4 30l24 19q25 19 43 61l258 629l72 26l212 -638q19 -54 52 -82l17 -15q0 -16 -5 -30h-264q-3 22 -3 30l71 21q18 5 25 29t0 46l-55 190h-236l-76 -200q-8 -23 4.5 -41.5t42.5 -28.5l51 -16q0 -16 -5 -30h-224zM253 367h202l-65 221l-20 78h-7l-25 -76z" />
    <glyph glyph-name="Beta" unicode="&#x392;" horiz-adv-x="681" 
d="M32 0q-4 27 -3 34l68 18q17 4 27.5 21t11.5 38l3 172v363q0 31 -24 40l-71 26q-2 16 2 25h285q239 0 239 -174q0 -59 -34.5 -98.5t-79.5 -60.5v-3q25 -4 49 -14t52.5 -29t46 -54.5t17.5 -82.5q0 -96 -63.5 -158.5t-195.5 -62.5h-330zM233 52h122q163 0 163 156
q0 79 -49.5 114t-153.5 35h-86v-76zM229 408h99q137 0 139 143q0 138 -167 138h-71v-281z" />
    <glyph glyph-name="Gamma" unicode="&#x393;" horiz-adv-x="549" 
d="M42 0q-4 12 -1 30l56 18q17 5 27.5 23t11.5 40l3 162v373q0 31 -24 40l-73 26q-1 11 3 25h494v-153q-22 -4 -39 1q-10 43 -28 65.5t-62 25.5l-182 10v-414l4 -174v-4q0 -10 0.5 -14.5t5.5 -9t15 -6.5l114 -23q0 -30 -4 -41h-321z" />
    <glyph glyph-name="uni0394" unicode="&#x394;" horiz-adv-x="722" 
d="M68 0l-24 53l271 684l74 23l272 -699l-42 -61h-551zM115 62l429 5l-184 517l-21 78h-7l-25 -76z" />
    <glyph glyph-name="Epsilon" unicode="&#x395;" horiz-adv-x="641" 
d="M32 0q-4 27 -3 35l68 18q37 10 39 58l3 163v372q0 31 -24 40l-75 26q-1 9 5 25h508v-146q-3 -1 -42 -1q-9 47 -26.5 68t-53.5 22l-202 6v-290l272 5v-62l-272 5v-71l5 -221l198 3q50 1 82 31.5t46 71.5l34 -7l-18 -151h-544z" />
    <glyph glyph-name="Zeta" unicode="&#x396;" horiz-adv-x="606" 
d="M44 0l-17 57l407 630l-260 -4q-66 -10 -83 -99q-15 -2 -35 3v150h488l12 -44l-412 -635l271 4q50 1 82 31t44 70l35 -7l-19 -156h-513z" />
    <glyph glyph-name="Eta" unicode="&#x397;" horiz-adv-x="850" 
d="M29 0q-5 23 -4 30l58 21q20 8 31.5 32t11.5 48l2 142v352q0 55 -30 64l-73 21q0 12 4 27h272q5 -23 4 -31l-56 -13q-20 -5 -25.5 -13t-5.5 -28v-256h390v219q0 22 -11 46t-30 31l-49 18q0 23 1 27h262q0 -22 -2 -31l-52 -12q-17 -5 -23 -12.5t-6 -26.5v-382l4 -175
q0 -36 19 -40l84 -19q0 -25 -5 -39h-286q-5 24 -4 34l42 12q29 8 41.5 36t12.5 57l2 134v71h-390v-71l4 -174q1 -32 22 -37l96 -26q0 -22 -5 -36h-306z" />
    <glyph glyph-name="Theta" unicode="&#x398;" horiz-adv-x="818" 
d="M569 339l-320 5v52l320 5v-62zM401 -12q-163 0 -254.5 94t-91.5 257q0 171 102.5 290t262.5 119q166 0 254.5 -94t88.5 -254q0 -110 -42.5 -203t-126.5 -151t-193 -58zM404 47q68 0 118 26.5t77.5 72.5t40.5 101.5t13 121.5q0 88 -23.5 158t-79.5 117t-139 47
q-65 0 -114 -26.5t-77 -72.5t-41.5 -101t-13.5 -120q0 -63 13 -118.5t40 -103t74.5 -75t111.5 -27.5z" />
    <glyph glyph-name="Iota" unicode="&#x399;" horiz-adv-x="360" 
d="M40 0q-3 25 -3 30l53 21q36 14 38 69l2 153v344q0 61 -50 78l-40 15q-3 13 1 27h262q4 -19 3 -31l-41 -9q-22 -5 -33 -27.5t-11 -49.5v-347l3 -184q0 -19 4.5 -26t20.5 -10l80 -17q0 -22 -5 -36h-284z" />
    <glyph glyph-name="Kappa" unicode="&#x39a;" horiz-adv-x="728" 
d="M27 0q-3 25 -3 29l66 23q36 13 38 67l2 154v354q0 20 -8 38t-22 24l-60 21q-3 13 1 27h262q4 -21 4 -25l-50 -19q-17 -7 -26.5 -27.5t-9.5 -43.5v-341l2 -188q0 -30 20 -36l66 -21q0 -22 -5 -36h-277zM706 -13q-126 0 -203 85l-256 285v24l244 251q20 20 20 36
q0 19 -17 24l-48 15q0 19 4 30h206v-30l-319 -303l243 -269q75 -83 132 -116z" />
    <glyph glyph-name="Lambda" unicode="&#x39b;" horiz-adv-x="709" 
d="M27 0q-4 11 -4 30l24 19q27 21 43 61l249 629l66 24l207 -636q19 -54 52 -82l17 -15q0 -16 -5 -30h-264q-3 22 -3 30l71 21q18 5 25 29t0 46l-128 451l-20 79h-7l-25 -76l-167 -464q-8 -23 4.5 -41.5t42.5 -28.5l51 -16q0 -16 -5 -30h-224z" />
    <glyph glyph-name="Mu" unicode="&#x39c;" horiz-adv-x="1016" 
d="M463 -21l-221 630h-6l-2 -50l-70 -464q-5 -28 11 -32l94 -30q0 -22 -4 -33h-245q-5 23 -4 30l36 18q20 10 34.5 32t18.5 46l81 507q3 17 -6 34t-23 22l-63 21q0 12 4 27h191l161 -445l55 -166h9l55 150l181 461h174q4 -21 4 -25l-49 -17q-43 -14 -36 -79l62 -512
q2 -16 12.5 -30.5t23.5 -19.5l45 -22q0 -17 -4 -32h-257l-4 30l44 13q38 11 38 75q0 13 -2 35l-42 395l-3 53h-6l-228 -603z" />
    <glyph glyph-name="Nu" unicode="&#x39d;" horiz-adv-x="827" 
d="M620 -21l-424 656h-7l9 -80v-282l3 -174q0 -19 4 -25.5t20 -12.5l85 -29q0 -18 -5 -32h-271q-5 23 -4 30l58 18q22 6 34.5 31.5t13.5 52.5l2 141v365q0 40 -29 51l-61 21q0 20 2 27h202l386 -587h7l-9 105v370q0 19 -11 38.5t-26 25.5l-63 21q0 16 4 27h252q1 -6 2.5 -12
t1.5 -13l-59 -17q-18 -5 -29.5 -25.5t-11.5 -43.5v-625z" />
    <glyph glyph-name="Xi" unicode="&#x39e;" horiz-adv-x="682" 
d="M102 573q-24 -3 -42 1v163h562v-159q-18 -4 -42 -1q-9 47 -29 72.5t-54 24.5l-322 -4q-33 -1 -48.5 -24.5t-24.5 -72.5zM63 0l-18 160l40 7q8 -23 13.5 -36t18 -31.5t31.5 -27t45 -8.5l296 4q34 0 57.5 18.5t32 36t18.5 48.5l40 -7l-18 -164h-556zM539 342l-396 7v62
l396 7v-76z" />
    <glyph glyph-name="Omicron" unicode="&#x39f;" horiz-adv-x="818" 
d="M401 -12q-163 0 -254.5 94t-91.5 257q0 171 102.5 290t262.5 119q166 0 254.5 -94t88.5 -254q0 -110 -42.5 -203t-126.5 -151t-193 -58zM404 47q68 0 118 26.5t77.5 72.5t40.5 101.5t13 121.5q0 88 -23.5 158t-79.5 117t-139 47q-65 0 -114 -26.5t-77 -72.5t-41.5 -101
t-13.5 -120q0 -63 13 -118.5t40 -103t74.5 -75t111.5 -27.5z" />
    <glyph glyph-name="Pi" unicode="&#x3a0;" horiz-adv-x="828" 
d="M39 0q-1 6 -2 11t-1.5 9t-0.5 10l59 22q20 7 31 31t11 49l2 141v352q0 56 -30 64l-73 21q0 16 4 27h730q0 -23 -2 -31l-52 -12q-17 -4 -23 -11.5t-6 -27.5v-382l4 -175q1 -36 19 -40l84 -19q0 -25 -5 -39h-286q-4 31 -4 34l43 12q28 8 40.5 36.5t12.5 57.5l2 133v408
h-368v-408l4 -174q1 -32 22 -37l96 -26q0 -22 -5 -36h-306z" />
    <glyph glyph-name="Rho" unicode="&#x3a1;" horiz-adv-x="617" 
d="M42 0q-3 25 -3 30l58 18q17 5 27.5 23t11.5 39l3 173v363q0 31 -24 40l-75 26q-1 9 5 25h323q109 0 169 -54t60 -162q0 -102 -71.5 -171.5t-208.5 -69.5h-20v48l25 1q84 3 130 46t46 126q0 77 -38.5 129.5t-116.5 53.5l-114 2v-403l4 -186q0 -30 21 -35l102 -27
q0 -24 -4 -35h-310z" />
    <glyph glyph-name="Sigma" unicode="&#x3a3;" horiz-adv-x="596" 
d="M44 0l-17 57l223 308l-213 323l13 49h499v-146q-20 -5 -42 -2q-18 94 -80 95l-266 4l185 -286l-237 -326l308 4q26 0 45 9t31.5 27t19 31.5t13.5 35.5q21 0 40 -7l-21 -176h-501z" />
    <glyph glyph-name="Tau" unicode="&#x3a4;" horiz-adv-x="632" 
d="M156 0q-5 24 -4 35l74 19q16 4 28 25.5t13 43.5l3 136v424h-151q-64 0 -83 -100q-14 -3 -32 3v151h624v-151q-14 -4 -31 -3q-19 100 -94 100h-142v-424l5 -170q0 -19 3.5 -26t17.5 -10l95 -18q0 -20 -4 -35h-322z" />
    <glyph glyph-name="Upsilon" unicode="&#x3a5;" horiz-adv-x="645" 
d="M166 0q-5 24 -4 35l70 18q18 4 29 20t11 37v112q0 87 -38 197t-97 189t-112 79h-28l-7 28q62 31 108 31q84 0 139.5 -103.5t93.5 -311.5h3q44 207 116.5 310.5t151.5 103.5q39 0 53 -8l-8 -56q-8 1 -20 1q-57 0 -121 -91t-103.5 -201.5t-39.5 -177.5v-105q0 -17 9 -33
t23 -20l84 -23q0 -16 -4 -31h-309z" />
    <glyph glyph-name="Phi" unicode="&#x3a6;" horiz-adv-x="788" 
d="M543 0h-284q-3 25 -3 30l53 21q39 15 39 58v20q-143 0 -223 59t-80 171q0 115 83 186.5t220 74.5v11q-3 48 -50 64l-40 15q-3 13 1 27h262q4 -19 3 -31l-41 -9q-22 -5 -33 -27t-11 -49v-1q147 0 225.5 -58.5t78.5 -168.5q0 -114 -82 -187.5t-222 -76.5v-40
q0 -18 6.5 -25.5t22.5 -10.5l80 -17q0 -22 -5 -36zM439 171q53 2 92 19.5t60.5 47.5t31.5 65.5t10 78.5q0 87 -47 141.5t-147 57.5v-410zM348 171v409q-100 -3 -146.5 -62t-46.5 -148q0 -86 47 -142t146 -57z" />
    <glyph glyph-name="Chi" unicode="&#x3a7;" horiz-adv-x="697" 
d="M11 0q-3 25 -3 30l38 18q43 20 86 78l172 240l-165 257q-5 8 -11 15t-14 14.5t-14 12.5t-16.5 12t-15 9.5t-17 10.5t-14.5 9q-7 12 -2 31h245q3 -26 3 -31l-41 -18q-10 -4 -11 -17.5t10 -30.5l123 -190l131 184q10 14 10 30t-11 21l-44 22q0 23 2 30h221q1 -6 -1 -30
q-32 -8 -67 -30t-52 -47l-158 -227l183 -282q22 -34 42.5 -50t68.5 -41q0 -19 -4 -30h-255q-3 25 -3 30l42 23q28 15 2 52l-136 212l-143 -205q-9 -13 -9 -29q0 -20 14 -26l58 -27q0 -19 -4 -30h-240z" />
    <glyph glyph-name="Psi" unicode="&#x3a8;" horiz-adv-x="847" 
d="M296 0q-3 25 -3 30l53 21q36 14 38 69l1 87q-278 8 -278 253v177q0 17 -8 33.5t-21 20.5l-61 19q0 22 2 27h188v-284q0 -97 51.5 -142.5t127.5 -48.5v355q0 60 -48 81l-28 12q-3 13 1 27h236q4 -19 3 -31l-41 -9q-32 -7 -32 -77v-358q87 4 135 53.5t48 161.5v260h164
q1 -5 1 -29l-48 -14q-27 -8 -27 -42v-165q0 -65 -17 -114.5t-43 -79.5t-63.5 -50t-73 -27.5t-75.5 -8.5l2 -118q0 -19 4.5 -26t20.5 -10l80 -17q0 -22 -5 -36h-284z" />
    <glyph glyph-name="uni03A9" unicode="&#x3a9;" horiz-adv-x="817" 
d="M34 0v84l223 -31v2q-86 33 -143.5 112t-57.5 214q0 157 107.5 261.5t256.5 104.5q173 0 259.5 -99t86.5 -269q0 -107 -63 -191t-148 -124l1 -2l233 22v-84h-291l-22 62q89 61 131 131t42 187q0 141 -58 226t-180 85q-128 0 -185.5 -84t-57.5 -225q0 -69 12.5 -119.5
t40 -86.5t53 -57t69.5 -49l-25 -70h-284z" />
    <glyph glyph-name="Iotadieresis" unicode="&#x3aa;" horiz-adv-x="360" 
d="M75 771q-10 0 -36 26.5t-26 35.5q0 10 26.5 36t35.5 26q10 0 36.5 -26t26.5 -36q0 -8 -26 -35t-37 -27zM273 771q-10 0 -36 26.5t-26 35.5q0 10 26.5 36t35.5 26q10 0 36.5 -26t26.5 -36q0 -8 -26 -35t-37 -27zM40 0q-3 25 -3 30l53 21q36 14 38 69l2 153v344
q0 61 -50 78l-40 15q-3 13 1 27h262q4 -19 3 -31l-41 -9q-22 -5 -33 -27.5t-11 -49.5v-347l3 -184q0 -19 4.5 -26t20.5 -10l80 -17q0 -22 -5 -36h-284z" />
    <glyph glyph-name="Upsilondieresis" unicode="&#x3ab;" horiz-adv-x="645" 
d="M166 0q-5 24 -4 35l70 18q18 4 29 20t11 37v112q0 87 -38 197t-97 189t-112 79h-28l-7 28q62 31 108 31q84 0 139.5 -103.5t93.5 -311.5h3q44 207 116.5 310.5t151.5 103.5q39 0 53 -8l-8 -56q-8 1 -20 1q-57 0 -121 -91t-103.5 -201.5t-39.5 -177.5v-105q0 -17 9 -33
t23 -20l84 -23q0 -16 -4 -31h-309zM236 771q-10 0 -36 26.5t-26 35.5q0 10 26.5 36t35.5 26q10 0 36.5 -26t26.5 -36q0 -8 -26 -35t-37 -27zM434 771q-10 0 -36 26.5t-26 35.5q0 10 26.5 36t35.5 26q10 0 36.5 -26t26.5 -36q0 -8 -26 -35t-37 -27z" />
    <glyph glyph-name="alphatonos" unicode="&#x3ac;" horiz-adv-x="664" 
d="M444 61l-15 88q-104 -153 -211 -153q-76 0 -125 64.5t-49 199.5q0 121 68 207.5t158 86.5q51 0 88 -15.5t58.5 -45.5t33 -60.5t20.5 -72.5q31 78 58 186h94q-85 -205 -130 -291l33 -142q8 -35 16 -47.5t21 -12.5q17 0 52 7l8 -32q-57 -36 -111 -36t-67 69zM250 62
q37 0 79 43.5t84 125.5l-9 51q-9 51 -17.5 84.5t-23 67.5t-36 50.5t-50.5 16.5q-71 0 -106.5 -61.5t-35.5 -171.5q0 -33 5.5 -66.5t17.5 -66t36 -53t56 -20.5zM305 608l-37 24q65 104 106 224l81 -49q-52 -93 -150 -199z" />
    <glyph glyph-name="epsilontonos" unicode="&#x3ad;" horiz-adv-x="518" 
d="M266 -9q-41 0 -77 7t-69 23t-52.5 47t-19.5 75q0 106 116 151q-45 15 -71.5 43t-26.5 67q0 74 66.5 113.5t148.5 39.5q26 0 53.5 -3t61.5 -10.5t56 -25t22 -43.5q0 -40 -44 -54q-76 93 -158 93q-51 0 -81.5 -25.5t-30.5 -78.5q0 -37 23 -61t58 -30q49 11 92 11
q11 -12 11 -33q0 -16 -13 -35q-57 0 -103 10q-36 -8 -57 -37.5t-21 -71.5q0 -54 37.5 -80.5t90.5 -26.5q43 0 94 19.5t90 46.5l24 -35q-41 -43 -101.5 -69.5t-118.5 -26.5zM277 608l-37 24q65 104 106 224l81 -49q-52 -93 -150 -199z" />
    <glyph glyph-name="etatonos" unicode="&#x3ae;" horiz-adv-x="607" 
d="M421 -294l5 357v294q0 75 -17.5 104.5t-78.5 29.5q-36 0 -78 -15.5t-61 -29.5l1 -148l4 -298h-97l4 291l1 163q0 27 -7 36.5t-25 9.5q-7 0 -33 -2l-7 36q64 20 119 20q39 0 39 -44v-27q53 45 86 59q37 15 78 15q90 0 124.5 -47.5t34.5 -136.5v-310l5 -357h-97zM319 608
l-37 24q65 104 106 224l81 -49q-52 -93 -150 -199z" />
    <glyph glyph-name="iotatonos" unicode="&#x3af;" horiz-adv-x="313" 
d="M179 -6q-50 0 -70 29.5t-18 85.5l3 161v80l-4 196h95l-5 -196v-77l4 -143q1 -42 11.5 -59t36.5 -17q18 0 58 10l7 -36q-57 -34 -118 -34zM120 608l-37 24q65 104 106 224l81 -49q-52 -93 -150 -199z" />
    <glyph glyph-name="upsilondieresistonos" unicode="&#x3b0;" horiz-adv-x="603" 
d="M201 509v-323q0 -64 33.5 -97.5t94.5 -33.5q80 0 111.5 55.5t31.5 168.5q0 161 -98 242q23 33 66 33q54 0 83.5 -66.5t29.5 -150.5q0 -65 -12.5 -123.5t-39.5 -109.5t-76 -81t-115 -30q-91 0 -144 48t-53 149v274q0 36 -31 36q-7 0 -33 -2l-7 35q64 20 119 20
q40 0 40 -44zM165 635q-10 0 -36 26.5t-26 35.5q0 10 26.5 36t35.5 26t36 -26t27 -36q0 -8 -26.5 -35t-36.5 -27zM433 635q-10 0 -36 26.5t-26 35.5q0 10 26.5 36t35.5 26t36 -26t27 -36q0 -8 -26.5 -35t-36.5 -27zM271 628l-37 24q65 104 106 224l81 -49q-52 -93 -150 -199
z" />
    <glyph glyph-name="alpha" unicode="&#x3b1;" horiz-adv-x="664" 
d="M444 61l-15 88q-104 -153 -211 -153q-76 0 -125 64.5t-49 199.5q0 121 68 207.5t158 86.5q51 0 88 -15.5t58.5 -45.5t33 -60.5t20.5 -72.5q31 78 58 186h94q-85 -205 -130 -291l33 -142q8 -35 16 -47.5t21 -12.5q17 0 52 7l8 -32q-57 -36 -111 -36t-67 69zM250 62
q37 0 79 43.5t84 125.5l-9 51q-9 51 -17.5 84.5t-23 67.5t-36 50.5t-50.5 16.5q-71 0 -106.5 -61.5t-35.5 -171.5q0 -33 5.5 -66.5t17.5 -66t36 -53t56 -20.5z" />
    <glyph glyph-name="beta" unicode="&#x3b2;" horiz-adv-x="609" 
d="M90 -294l4 569v330q0 105 63 185t166 80q88 0 142 -55t54 -141q0 -61 -39 -116t-90 -78q76 -19 125.5 -85t49.5 -145q0 -102 -69 -182t-173 -80q-75 0 -141 20l6 -302h-98zM316 47q70 0 110.5 49.5t40.5 131.5q0 84 -54 140t-130 56l-7 40q147 45 147 201q0 68 -31 111.5
t-81 43.5q-61 0 -95 -46.5t-34 -119.5v-581q76 -26 134 -26z" />
    <glyph glyph-name="gamma" unicode="&#x3b3;" horiz-adv-x="537" 
d="M299 -294q-26 -7 -55 -7q-22 0 -39 7q-6 43 -6 85q0 65 16 122q-29 261 -144 538q-3 8 -7 14.5t-7 10.5t-8 7l-7.5 4.5t-8.5 2t-7.5 0.5h-8h-7.5q-7 0 -19 -4l-12 27q14 13 44 27.5t58 14.5q51 0 69 -40q85 -195 124 -458q78 177 111.5 273.5t33.5 150.5q0 26 -10 49
q22 25 59 25q24 0 40 -17t16 -40q0 -25 -43.5 -125.5l-104.5 -235.5t-87 -204q10 -103 10 -227z" />
    <glyph glyph-name="delta" unicode="&#x3b4;" horiz-adv-x="581" 
d="M284 -7q-240 0 -240 261q0 89 55 165t134 109q-58 48 -89.5 92.5t-31.5 98.5q0 62 69 106.5t140 44.5q82 0 135.5 -26t53.5 -75q0 -27 -40 -56q-69 88 -178 88q-53 0 -79.5 -19t-26.5 -52q0 -29 36 -65t88 -74t103.5 -82t87.5 -105t36 -127q0 -116 -76 -200t-177 -84z
M295 55q83 0 121 53t38 139q0 37 -14 70.5t-41 64t-53 53l-64 53.5q-12 9 -18 14q-123 -53 -123 -238q0 -46 6.5 -80.5t22.5 -65t47.5 -47t77.5 -16.5z" />
    <glyph glyph-name="epsilon" unicode="&#x3b5;" horiz-adv-x="518" 
d="M266 -9q-41 0 -77 7t-69 23t-52.5 47t-19.5 75q0 106 116 151q-45 15 -71.5 43t-26.5 67q0 74 66.5 113.5t148.5 39.5q26 0 53.5 -3t61.5 -10.5t56 -25t22 -43.5q0 -40 -44 -54q-76 93 -158 93q-51 0 -81.5 -25.5t-30.5 -78.5q0 -37 23 -61t58 -30q49 11 92 11
q11 -12 11 -33q0 -16 -13 -35q-57 0 -103 10q-36 -8 -57 -37.5t-21 -71.5q0 -54 37.5 -80.5t90.5 -26.5q43 0 94 19.5t90 46.5l24 -35q-41 -43 -101.5 -69.5t-118.5 -26.5z" />
    <glyph glyph-name="zeta" unicode="&#x3b6;" horiz-adv-x="466" 
d="M313 -250l-31 71q51 19 81.5 45.5t30.5 53.5q0 42 -45 61q-21 9 -58 17.5l-67.5 15t-65.5 21.5t-58.5 34.5t-39.5 56t-16 85.5q0 82 36.5 168.5t93 156t117.5 123.5t118 87q-143 -15 -196 -15q-119 0 -119 76q0 49 50 70q49 -76 171 -76h140q11 -19 11 -42q0 -6 -3 -24
q-34 -18 -85 -67t-104.5 -116t-91.5 -154t-38 -165q0 -69 36.5 -97.5t112.5 -46.5q35 -8 50.5 -12.5t43 -15.5t40 -22.5t23 -32t10.5 -46.5q0 -101 -147 -210z" />
    <glyph glyph-name="eta" unicode="&#x3b7;" horiz-adv-x="607" 
d="M421 -294l5 357v294q0 75 -17.5 104.5t-78.5 29.5q-36 0 -78 -15.5t-61 -29.5l1 -148l4 -298h-97l4 291l1 163q0 27 -7 36.5t-25 9.5q-7 0 -33 -2l-7 36q64 20 119 20q39 0 39 -44v-27q53 45 86 59q37 15 78 15q90 0 124.5 -47.5t34.5 -136.5v-310l5 -357h-97z" />
    <glyph glyph-name="theta" unicode="&#x3b8;" horiz-adv-x="576" 
d="M273 -9q-106 0 -162.5 106t-56.5 300q0 101 30.5 197t88 160.5t126.5 64.5q113 0 168 -107.5t55 -305.5q0 -99 -29.5 -193t-88 -158t-131.5 -64zM297 53q122 0 127 331l-274 3q1 -60 8 -113t22.5 -106t45 -84t71.5 -31zM150 431l273 4q-10 328 -143 328q-120 0 -130 -332
z" />
    <glyph glyph-name="iota" unicode="&#x3b9;" horiz-adv-x="329" 
d="M179 -6q-50 0 -70 29.5t-18 85.5l3 161v80l-4 196h95l-5 -196v-77l4 -143q1 -42 11.5 -59t36.5 -17q18 0 58 10l7 -36q-57 -34 -118 -34z" />
    <glyph glyph-name="kappa" unicode="&#x3ba;" horiz-adv-x="584" 
d="M527 -12q-99 0 -159 81l-135 204l-43 -45l4 -228h-96l5 273v193q0 36 -31 36q-7 0 -33 -2l-7 34q64 20 119 20q39 0 39 -44v-220l85 100l60 69t49.5 49t54 37t52.5 10t48 -12t20 -36q0 -27 -27 -51q-25 20 -64 20q-20 0 -43 -14.5t-39.5 -30.5t-54.5 -56l-34 -35
l147 -216q72 -94 118 -108l-5 -26q-20 -2 -30 -2z" />
    <glyph glyph-name="lambda" unicode="&#x3bb;" horiz-adv-x="512" 
d="M372 24l-119 437l-148 -461h-93l214 561l-24 91q-19 69 -61.5 103.5t-88.5 39.5l35 75q131 -4 179 -166l181 -619q13 -39 37 -39q19 0 34 3l6 -27q-49 -31 -93 -31q-47 0 -59 33z" />
    <glyph glyph-name="uni03BC" unicode="&#x3bc;" horiz-adv-x="664" 
d="M503 -6q-70 0 -84 63q-90 -70 -169 -70q-50 0 -70 10q5 -36 5 -40l5 -251h-100l4 569v271h89l2 -366q1 -76 19 -102.5t66 -26.5q62 0 146 47l1 172v276h87v-273l3 -136q1 -41 15 -58.5t43 -17.5q21 0 61 10l8 -40q-67 -37 -131 -37z" />
    <glyph glyph-name="nu" unicode="&#x3bd;" horiz-adv-x="542" 
d="M297 -5l-60 -17l-166 463q-11 30 -23.5 39.5t-30.5 9.5q-7 0 -19 -4l-12 27q14 13 44 27.5t58 14.5q49 0 68 -56l133 -412q5 10 25.5 54l27 58l22.5 50t22 54l15 45.5t12 48t3 39.5q0 53 -28 94q22 25 59 25q25 0 42.5 -17.5t17.5 -46.5q0 -66 -38 -157t-172 -339z" />
    <glyph glyph-name="xi" unicode="&#x3be;" horiz-adv-x="478" 
d="M305 -250l-31 71q45 17 78 44t33 45q0 29 -19 50t-49 34.5t-66.5 26t-72.5 30.5t-66 42.5t-49 67.5t-19 100q0 73 43 135t105 85q-48 17 -83 65t-35 105q0 101 70.5 160t159.5 59q69 0 118 -22t49 -65q0 -29 -35 -53q-77 84 -153 84q-55 0 -85.5 -43.5t-30.5 -105.5
q0 -58 27 -104t75 -55q66 11 97 11q3 -9 3 -24q0 -27 -14 -44q-24 0 -99 10q-50 -11 -82 -61t-32 -115q0 -63 33.5 -103.5t75 -55.5t93.5 -36.5t76 -45.5q32 -32 32 -82q0 -101 -147 -210z" />
    <glyph glyph-name="omicron" unicode="&#x3bf;" horiz-adv-x="561" 
d="M274 -7q-230 0 -230 270q0 112 72.5 201.5t166.5 89.5q234 0 234 -277q0 -111 -72.5 -197.5t-170.5 -86.5zM291 53q40 0 66.5 17.5t39.5 50.5t17.5 67.5t4.5 80.5q0 229 -147 229q-132 0 -132 -222q0 -223 151 -223z" />
    <glyph glyph-name="pi" unicode="&#x3c0;" horiz-adv-x="676" 
d="M514 -6q-49 0 -64.5 28t-13.5 87l3 161v202q-84 -2 -234 -8v-191l4 -273h-86l5 273v188l-104 -5l-2 10l51 80h534l-3 -70q-15 0 -89 -2v-201l4 -143q1 -42 11.5 -59t36.5 -17q18 0 58 10l7 -36q-57 -34 -118 -34z" />
    <glyph glyph-name="rho" unicode="&#x3c1;" horiz-adv-x="562" 
d="M160 -294h-101l2 559q1 72 25.5 135.5t79.5 107.5t129 44q64 0 109 -21t69.5 -61t35 -88t10.5 -111q0 -66 -23 -128t-74 -106.5t-119 -44.5q-65 0 -106 27l13 37q48 -12 83 -12q29 0 51 10.5t35.5 30.5t22 41.5t12.5 51t5 50.5t1 49q0 42 -6.5 78t-21.5 69t-44.5 52.5
t-70.5 19.5q-134 0 -129 -232z" />
    <glyph glyph-name="sigma1" unicode="&#x3c2;" horiz-adv-x="497" 
d="M285 -250l-31 71q40 15 76 41.5t36 49.5q0 29 -18 47t-46 28t-62.5 19.5t-69 27.5t-62.5 45t-46 79.5t-18 124.5q0 108 75.5 192t183.5 84q162 0 162 -65q0 -40 -41 -70q-27 32 -63 56t-70 24q-156 0 -156 -210q0 -58 16.5 -98.5t42.5 -61.5t57.5 -35t63.5 -23t58 -20.5
t42.5 -33.5t16.5 -56q0 -108 -147 -216z" />
    <glyph glyph-name="sigma" unicode="&#x3c3;" horiz-adv-x="582" 
d="M261 -7q-117 0 -167 71t-50 204q0 48 19.5 97t55 91.5t94 69t129.5 26.5q126 0 224 -6l-25 -92l-90 10q34 -93 34 -200q0 -117 -57.5 -194t-166.5 -77zM278 51q60 0 92 57.5t32 153.5q0 116 -13 207q-42 2 -60 2q-100 0 -150.5 -38t-50.5 -140q0 -118 40.5 -180
t109.5 -62z" />
    <glyph glyph-name="tau" unicode="&#x3c4;" horiz-adv-x="484" 
d="M282 -9q-126 0 -126 151q0 74 12.5 167t29.5 158q-86 -6 -192 -17l-2 10l51 86h395l-3 -64q-44 0 -191 -10q-11 -95 -11 -292q0 -57 20 -91t60 -34q46 0 84 12l9 -36q-72 -40 -136 -40z" />
    <glyph glyph-name="upsilon" unicode="&#x3c5;" horiz-adv-x="603" 
d="M201 509v-323q0 -64 33.5 -97.5t94.5 -33.5q80 0 111.5 55.5t31.5 168.5q0 161 -98 242q23 33 66 33q54 0 83.5 -66.5t29.5 -150.5q0 -65 -12.5 -123.5t-39.5 -109.5t-76 -81t-115 -30q-91 0 -144 48t-53 149v274q0 36 -31 36q-7 0 -33 -2l-7 35q64 20 119 20
q40 0 40 -44z" />
    <glyph glyph-name="phi" unicode="&#x3c6;" horiz-adv-x="761" 
d="M329 -294l4 287q-293 12 -293 270q0 111 91 196t209 93l4 255h64l3 -253q310 -5 310 -277q0 -111 -90 -192.5t-212 -90.5l4 -288h-94zM334 54l6 444q-100 -2 -152 -66t-52 -156q0 -90 51.5 -152t146.5 -70zM418 53q103 1 153.5 60.5t50.5 155.5q0 90 -52.5 156.5
t-157.5 72.5z" />
    <glyph glyph-name="chi" unicode="&#x3c7;" horiz-adv-x="518" 
d="M159 520l116 -317l127 343h89l-189 -411q142 -330 148 -345l6 -15t13 -12.5t26 -6.5l33 2l4 -26q-57 -36 -105 -36q-39 0 -52 35l-129 347l-141 -372h-90l203 445l-134 310q0 1 -2 5.5t-3 6t-3 5.5t-4 6t-5.5 4.5t-7 4t-9 2t-11.5 0.5l-33 -2l-4 26q57 36 105 36
q41 0 52 -35z" />
    <glyph glyph-name="psi" unicode="&#x3c8;" horiz-adv-x="740" 
d="M197 510v-284q0 -147 145 -168l10 749h64l10 -750q83 10 136 74.5t53 150.5t-27.5 140t-80.5 94q27 40 72 40q50 0 83.5 -75t33.5 -164q0 -129 -70.5 -217.5t-198.5 -103.5l4 -290h-94l3 288q-110 8 -170 67.5t-60 168.5v229q0 36 -31 36q-7 0 -33 -2l-7 41q64 20 119 20
q39 0 39 -44z" />
    <glyph glyph-name="omega" unicode="&#x3c9;" horiz-adv-x="764" 
d="M236 -9q-92 0 -142 62t-50 180q0 119 60 206.5t139 113.5q3 1 9 1q19 0 24 -34q-73 -45 -106 -109.5t-33 -175.5q0 -73 30 -124t81 -51q24 0 44 14t32.5 33.5t18.5 33t8 21.5q-22 80 -22 196q18 11 50 11q34 0 50 -15q0 -84 -24 -184q6 -21 44 -65.5t81 -44.5q48 0 71 52
t23 123q0 113 -32.5 177.5t-107.5 102.5q0 2 0.5 8t1 8.5t1.5 7t2.5 6.5t4 4.5t6.5 3.5t9 1q6 0 9 -1q84 -16 143 -99.5t59 -207.5q0 -113 -52.5 -184t-142.5 -71q-49 0 -89 30t-63 75q-20 -40 -55.5 -72.5t-81.5 -32.5z" />
    <glyph glyph-name="iotadieresis" unicode="&#x3ca;" horiz-adv-x="313" 
d="M179 -6q-50 0 -70 29.5t-18 85.5l3 161v80l-4 196h95l-5 -196v-77l4 -143q1 -42 11.5 -59t36.5 -17q18 0 58 10l7 -36q-57 -34 -118 -34zM52 635q-10 0 -36 26.5t-26 35.5q0 10 26.5 36t35.5 26t36 -26t27 -36q0 -8 -26.5 -35t-36.5 -27zM236 635q-10 0 -36 26.5
t-26 35.5q0 10 26.5 36t35.5 26t36 -26t27 -36q0 -8 -26.5 -35t-36.5 -27z" />
    <glyph glyph-name="upsilondieresis" unicode="&#x3cb;" horiz-adv-x="603" 
d="M212 635q-10 0 -36 26.5t-26 35.5q0 10 26.5 36t35.5 26t36 -26t27 -36q0 -8 -26.5 -35t-36.5 -27zM396 635q-10 0 -36 26.5t-26 35.5q0 10 26.5 36t35.5 26t36 -26t27 -36q0 -8 -26.5 -35t-36.5 -27zM201 509v-323q0 -64 33.5 -97.5t94.5 -33.5q80 0 111.5 55.5
t31.5 168.5q0 161 -98 242q23 33 66 33q54 0 83.5 -66.5t29.5 -150.5q0 -65 -12.5 -123.5t-39.5 -109.5t-76 -81t-115 -30q-91 0 -144 48t-53 149v274q0 36 -31 36q-7 0 -33 -2l-7 35q64 20 119 20q40 0 40 -44z" />
    <glyph glyph-name="omicrontonos" unicode="&#x3cc;" horiz-adv-x="561" 
d="M274 -7q-230 0 -230 270q0 112 72.5 201.5t166.5 89.5q234 0 234 -277q0 -111 -72.5 -197.5t-170.5 -86.5zM291 53q40 0 66.5 17.5t39.5 50.5t17.5 67.5t4.5 80.5q0 229 -147 229q-132 0 -132 -222q0 -223 151 -223zM267 608l-37 24q65 104 106 224l81 -49
q-52 -93 -150 -199z" />
    <glyph glyph-name="upsilontonos" unicode="&#x3cd;" horiz-adv-x="603" 
d="M201 509v-323q0 -64 33.5 -97.5t94.5 -33.5q80 0 111.5 55.5t31.5 168.5q0 161 -98 242q23 33 66 33q54 0 83.5 -66.5t29.5 -150.5q0 -65 -12.5 -123.5t-39.5 -109.5t-76 -81t-115 -30q-91 0 -144 48t-53 149v274q0 36 -31 36q-7 0 -33 -2l-7 35q64 20 119 20
q40 0 40 -44zM297 608l-37 24q65 104 106 224l81 -49q-52 -93 -150 -199z" />
    <glyph glyph-name="omegatonos" unicode="&#x3ce;" horiz-adv-x="764" 
d="M236 -9q-92 0 -142 62t-50 180q0 119 60 206.5t139 113.5q3 1 9 1q19 0 24 -34q-73 -45 -106 -109.5t-33 -175.5q0 -73 30 -124t81 -51q24 0 44 14t32.5 33.5t18.5 33t8 21.5q-22 80 -22 196q18 11 50 11q34 0 50 -15q0 -84 -24 -184q6 -21 44 -65.5t81 -44.5q48 0 71 52
t23 123q0 113 -32.5 177.5t-107.5 102.5q0 2 0.5 8t1 8.5t1.5 7t2.5 6.5t4 4.5t6.5 3.5t9 1q6 0 9 -1q84 -16 143 -99.5t59 -207.5q0 -113 -52.5 -184t-142.5 -71q-49 0 -89 30t-63 75q-20 -40 -55.5 -72.5t-81.5 -32.5zM381 608l-37 24q65 104 106 224l81 -49
q-52 -93 -150 -199z" />
    <glyph glyph-name="beta.alt" unicode="&#x3d0;" horiz-adv-x="597" 
d="M308 56q71 0 106 56.5t35 149.5q0 72 -34.5 121t-94.5 49q-32 0 -70 -11l-23 38q92 33 137 99t45 143q0 47 -26 78.5t-73 31.5q-79 0 -119.5 -78t-40.5 -251v-173q0 -128 37.5 -190.5t120.5 -62.5zM294 -7q-119 -1 -179.5 84t-60.5 282v100q0 103 31 194.5t96 153.5
t150 62q90 0 134.5 -45.5t44.5 -101.5q0 -77 -40.5 -135.5t-107.5 -91.5q91 -7 138 -63.5t47 -156.5q0 -99 -78 -190t-175 -92z" />
    <glyph glyph-name="theta.alt" unicode="&#x3d1;" horiz-adv-x="564" 
d="M288 -7q-85 0 -135.5 65.5t-55.5 161.5q-1 28 -7.5 37t-23.5 9q-5 0 -31 -2l-9 39q64 20 119 20q40 0 40 -44q1 -100 32.5 -161t73.5 -61q27 0 47.5 13t33.5 40.5t21.5 58.5t13.5 79t7 89.5t3 101.5q-74 -43 -145 -43q-189 0 -189 204q0 85 62 152t140 67q225 0 225 -401
q0 -184 -68 -304.5t-154 -120.5zM285 456q70 0 131 25q-6 280 -138 280q-52 0 -80 -35.5t-28 -105.5q0 -73 30.5 -118.5t84.5 -45.5z" />
    <glyph glyph-name="phi.alt" unicode="&#x3d5;" horiz-adv-x="739" 
d="M398 344l4 -291q102 1 150 69.5t48 176.5q0 101 -29.5 155t-80.5 54q-52 0 -72.5 -36t-19.5 -128zM173 546h65q-60 -51 -79 -110.5t-19 -149.5q0 -110 41 -167t137 -65l2 273q1 105 48.5 166t124.5 61q104 -2 153 -65t49 -196q0 -107 -87.5 -198.5t-204.5 -100.5l4 -288
h-94l4 287q-273 11 -273 270q0 87 33.5 161t95.5 122z" />
    <glyph glyph-name="uni03D7" unicode="&#x3d7;" horiz-adv-x="772" 
d="M743 18v-19q-38 -91 -131 -154t-215 -63q-180 0 -278.5 105.5t-98.5 292.5q0 100 51 203.5t127 162.5h49q-66 -58 -101.5 -139t-35.5 -167q0 -75 19 -143.5t55.5 -125t97.5 -90.5t138 -34q185 0 287 145q-102 8 -152 77l-133 201l-45 -46l4 -224h-96l5 273l-1 85l-3 188
h95l-4 -190v-68l156 172q28 31 46 48t45 32t54 15q28 0 48 -12t20 -36q0 -27 -27 -51q-30 24 -62 24q-38 0 -70 -35l-101 -107l145 -214l33.5 -42t35 -35t43.5 -29z" />
    <glyph glyph-name="uni03D8" unicode="&#x3d8;" horiz-adv-x="818" 
d="M353 -294l6 284q-144 12 -224 104.5t-80 244.5q0 171 102.5 290t262.5 119q166 0 254.5 -94t88.5 -254q0 -102 -37 -190t-110 -147.5t-169 -71.5l6 -285h-100zM404 47q68 0 118 26.5t77.5 72.5t40.5 101.5t13 121.5q0 88 -23.5 158t-79.5 117t-139 47q-65 0 -114 -26.5
t-77 -72.5t-41.5 -101t-13.5 -120q0 -63 13 -118.5t40 -103t74.5 -75t111.5 -27.5z" />
    <glyph glyph-name="uni03D9" unicode="&#x3d9;" horiz-adv-x="581" 
d="M245 -294l6 289q-207 16 -207 268q0 113 74 202t175 89q123 0 183.5 -67t60.5 -210q0 -96 -56 -175.5t-142 -101.5l6 -294h-100zM301 53q43 0 72 17.5t42.5 51t18.5 67.5t5 80q0 229 -157 229q-142 0 -142 -222q0 -223 161 -223z" />
    <glyph glyph-name="uni03DA" unicode="&#x3da;" horiz-adv-x="533" 
d="M285 -250l-31 69q130 65 130 138q0 16 -5.5 25.5t-19 13t-21 4t-27.5 0.5h-81q-185 0 -185 256q0 63 25.5 128.5t78 113.5t118.5 48h139q18 0 31 4.5t24 17t16 21l16 28.5q30 -26 30 -65q0 -48 -37 -80.5t-84 -32.5h-145q-72 0 -106.5 -54.5t-34.5 -128.5
q0 -168 137 -168h99q46 0 72.5 -14t26.5 -55q0 -87 -50 -164.5t-116 -104.5z" />
    <glyph glyph-name="uni03DB" unicode="&#x3db;" horiz-adv-x="533" 
d="M285 -250l-31 69q130 65 130 138q0 16 -5.5 25.5t-19 13t-21 4t-27.5 0.5h-81q-185 0 -185 256q0 63 25.5 128.5t78 113.5t118.5 48h139q18 0 31 4.5t24 17t16 21l16 28.5q30 -26 30 -65q0 -48 -37 -80.5t-84 -32.5h-145q-72 0 -106.5 -54.5t-34.5 -128.5
q0 -168 137 -168h99q46 0 72.5 -14t26.5 -55q0 -87 -50 -164.5t-116 -104.5z" />
    <glyph glyph-name="uni03DC" unicode="&#x3dc;" horiz-adv-x="539" 
d="M99 0l6 301l2 436h411v-73l-324 18v-301l280 8v-63l-280 5v-31l4 -300h-99z" />
    <glyph glyph-name="uni03DD" unicode="&#x3dd;" horiz-adv-x="439" 
d="M99 -294l6 343l2 496h311v-73l-224 18v-353l180 8v-63l-180 5v-39l4 -342h-99z" />
    <glyph glyph-name="uni03DE" unicode="&#x3de;" horiz-adv-x="454" 
d="M264 -21q-9 0 -32.5 28.5t-23.5 39.5l132 345l-297 -81l-23 18l118 341q-24 -17 -33 -17q-8 0 -31 29t-23 40q0 9 29.5 31t39.5 22q9 0 32 -29.5t23 -40.5q0 -15 -7 -41l-63 -246l296 81l33 -35l-160 -371l10 3q11 -5 30 -31.5t19 -36.5q0 -9 -29 -29t-40 -20z" />
    <glyph glyph-name="uni03DF" unicode="&#x3df;" horiz-adv-x="405" 
d="M130 -69l-110 33l304 509l-274 -24l-21 25l104 238q-27 -19 -35 -19t-31 29.5t-23 39.5q0 9 29.5 31.5t39.5 22.5q9 0 32 -29.5t23 -39.5q0 -5 -7 -21t-8 -20l-46 -171l247 19l31 -55z" />
    <glyph glyph-name="uni03E0" unicode="&#x3e0;" horiz-adv-x="744" 
d="M623 -168v48q-1 123 -10.5 201.5t-39.5 157.5l-289 -250l-30 35l303 259q-32 68 -91 134l-308 -261l-28 35l303 258q-141 137 -371 141q-18 1 -55 1v33q66 8 83 8q122 0 222.5 -35.5t172 -99t121.5 -153t75 -196t27 -228.5q0 -70 -1 -88h-84z" />
    <glyph glyph-name="uni03E1" unicode="&#x3e1;" horiz-adv-x="539" 
d="M382 -305l-37 12q54 170 54 296q0 51 -7 99l-239 -93l-18 42l251 95q-11 79 -45 150l-256 -96l-16 42l250 93q-60 98 -131.5 157.5t-182.5 96.5l10 28q226 -44 343.5 -195t117.5 -371q0 -72 -23.5 -161t-46.5 -142z" />
    <glyph glyph-name="uni03F0" unicode="&#x3f0;" horiz-adv-x="692" 
d="M620 493l-106 -78q-28 -179 -28 -269q0 -89 80 -89q34 0 72 15l11 -29q-68 -51 -135 -51q-48 0 -76 26.5t-28 74.5q0 113 49 264l-325 -370q-44 5 -63 28t-13 44l109 77q32 134 32 224q0 59 -24.5 94.5t-64.5 35.5q-34 0 -72 -15l-11 29q68 51 135 51q53 0 83 -44
t30 -103q0 -82 -50 -214l319 364q26 1 50 -13.5t26 -51.5z" />
    <glyph glyph-name="uni0400" unicode="&#x400;" horiz-adv-x="641" 
d="M32 0q-4 27 -3 35l68 18q37 10 39 58l3 163v372q0 31 -24 40l-75 26q-1 9 5 25h508v-146q-3 -1 -42 -1q-9 47 -26.5 68t-53.5 22l-202 6v-290l272 5v-62l-272 5v-71l5 -221l198 3q50 1 82 31.5t46 71.5l34 -7l-18 -151h-544zM408 776q-96 10 -240 73l31 71
q97 -65 219 -110z" />
    <glyph glyph-name="afii10023" unicode="&#x401;" horiz-adv-x="641" 
d="M32 0q-4 27 -3 35l68 18q37 10 39 58l3 163v372q0 31 -24 40l-75 26q-1 9 5 25h508v-146q-3 -1 -42 -1q-9 47 -26.5 68t-53.5 22l-202 6v-290l272 5v-62l-272 5v-71l5 -221l198 3q50 1 82 31.5t46 71.5l34 -7l-18 -151h-544zM213 771q-10 0 -36 26.5t-26 35.5
q0 10 26.5 36t35.5 26q10 0 36.5 -26t26.5 -36q0 -8 -26 -35t-37 -27zM431 771q-10 0 -36 26.5t-26 35.5q0 10 26.5 36t35.5 26q10 0 36.5 -26t26.5 -36q0 -8 -26 -35t-37 -27z" />
    <glyph glyph-name="afii10051" unicode="&#x402;" horiz-adv-x="781" 
d="M516 -222l-36 37q67 67 112 170.5t45 229.5q0 88 -40 130.5t-103 42.5q-71 0 -157 -37v-92l5 -170q0 -19 3.5 -26t17.5 -10l95 -18q0 -20 -4 -35h-322q-5 24 -4 35l74 19q16 4 28 25.5t13 43.5l3 136v424h-101q-64 0 -83 -100q-14 -3 -32 3v151h574v-151q-14 -4 -31 -3
q-19 100 -94 100h-142v-279q112 43 195 43q101 0 153 -59.5t52 -156.5q0 -68 -17 -133.5t-41.5 -113.5t-56.5 -92t-57 -69t-49 -45z" />
    <glyph glyph-name="afii10052" unicode="&#x403;" horiz-adv-x="599" 
d="M227 776l-10 34q122 45 219 110l31 -71q-144 -63 -240 -73zM40 0q-4 12 -1 30l56 18q17 5 27.5 23t11.5 40l3 162v373q0 31 -24 40l-73 26q-1 11 3 25h508v-153q-22 -4 -39 1q-10 42 -28 64.5t-62 25.5l-196 11v-414l4 -174v-4q0 -10 0.5 -14.5t5.5 -9t15 -6.5l114 -23
q0 -30 -4 -41h-321z" />
    <glyph glyph-name="afii10053" unicode="&#x404;" horiz-adv-x="672" 
d="M420 -7q-176 0 -270.5 94.5t-94.5 277.5q0 94 45.5 181.5t130 145t185.5 57.5q30 0 55.5 -2t41.5 -4t34.5 -7.5t24.5 -7.5t22.5 -9t18.5 -8v-146h-35q-43 121 -166 121q-117 0 -187 -70.5t-72 -219.5l335 7v-66l-333 7q11 -132 89 -207.5t194 -75.5q84 0 165 22l13 -43
q-31 -15 -45 -21t-58 -16t-93 -10z" />
    <glyph glyph-name="afii10054" unicode="&#x405;" horiz-adv-x="572" 
d="M255 -11q-95 0 -209 50l8 150h39q36 -145 192 -145q61 0 104 41t43 97q0 35 -26.5 62t-66 44.5t-85.5 40t-85.5 46t-66 65.5t-26.5 96q0 94 73 152.5t169 58.5q102 0 176 -43v-131h-32q-14 59 -57 87.5t-102 28.5q-71 0 -111.5 -30.5t-40.5 -87.5q0 -39 38 -69.5
t91.5 -55t107.5 -53.5t92 -79t38 -116q0 -101 -77.5 -155t-185.5 -54z" />
    <glyph glyph-name="afii10055" unicode="&#x406;" horiz-adv-x="360" 
d="M40 0q-3 25 -3 30l53 21q36 14 38 69l2 153v344q0 61 -50 78l-40 15q-3 13 1 27h262q4 -19 3 -31l-41 -9q-22 -5 -33 -27.5t-11 -49.5v-347l3 -184q0 -19 4.5 -26t20.5 -10l80 -17q0 -22 -5 -36h-284z" />
    <glyph glyph-name="afii10056" unicode="&#x407;" horiz-adv-x="360" 
d="M40 0q-3 25 -3 30l53 21q36 14 38 69l2 153v344q0 61 -50 78l-40 15q-3 13 1 27h262q4 -19 3 -31l-41 -9q-22 -5 -33 -27.5t-11 -49.5v-347l3 -184q0 -19 4.5 -26t20.5 -10l80 -17q0 -22 -5 -36h-284zM68 771q-10 0 -36 26.5t-26 35.5q0 10 26.5 36t35.5 26
q10 0 36.5 -26t26.5 -36q0 -8 -26 -35t-37 -27zM286 771q-10 0 -36 26.5t-26 35.5q0 10 26.5 36t35.5 26q10 0 36.5 -26t26.5 -36q0 -8 -26 -35t-37 -27z" />
    <glyph glyph-name="afii10057" unicode="&#x408;" horiz-adv-x="341" 
d="M10 -216l-19 34q78 47 107.5 105t29.5 163v535q0 22 -13 44t-35 30l-44 15q0 13 5 27h262q3 -25 3 -30l-48 -12q-23 -5 -30.5 -14t-7.5 -30v-604q0 -181 -210 -263z" />
    <glyph glyph-name="afii10058" unicode="&#x409;" horiz-adv-x="951" 
d="M59 -22l-33 91q90 23 126 68q32 39 56 200.5t24 287.5q0 52 -34 64l-57 21q0 12 4 27h508q0 -22 -2 -31l-52 -12q-17 -5 -23 -12.5t-6 -26.5v-234h113q116 0 180 -54.5t64 -153.5q0 -88 -67 -150.5t-196 -62.5h-291q-4 27 -3 34l68 18q17 4 27.5 21t11.5 38l3 172v402
h-181q-29 -445 -80 -563q-23 -54 -67.5 -93.5t-92.5 -50.5zM574 52h92q77 0 119.5 40.5t42.5 121.5q0 80 -49.5 118t-152.5 38h-56v-89z" />
    <glyph glyph-name="afii10059" unicode="&#x40a;" horiz-adv-x="1059" 
d="M29 0q-5 23 -4 30l58 21q20 8 31.5 32t11.5 48l2 142v352q0 55 -30 64l-73 21q0 12 4 27h272q5 -23 4 -31l-56 -13q-20 -5 -25.5 -13t-5.5 -28v-231h360v225q0 31 -24 40l-71 26q-2 17 1 25h267q5 -23 4 -31l-56 -13q-20 -5 -25.5 -13t-5.5 -28v-231h113q116 0 180 -54.5
t64 -153.5q0 -88 -67 -150.5t-196 -62.5h-291q-4 27 -3 34l68 18q17 4 27.5 21t11.5 38l3 172v86h-360v-96l4 -174q1 -32 22 -37l96 -26q0 -22 -5 -36h-306zM672 52h92q77 0 119.5 40.5t42.5 121.5q0 80 -49.5 118t-152.5 38h-56v-89z" />
    <glyph glyph-name="afii10060" unicode="&#x40b;" horiz-adv-x="865" 
d="M132 0q-5 24 -4 35l74 19q16 4 28 25.5t13 43.5l3 136v424h-101q-64 0 -83 -100q-14 -3 -32 3v151h574v-151q-14 -4 -31 -3q-19 100 -94 100h-142v-278q104 42 206 42q106 0 145.5 -47t39.5 -137v-165q0 -36 19 -40l84 -19q0 -25 -5 -39h-280q-5 24 -4 34l42 12
q29 8 41.5 36t12.5 57v124q0 68 -32 96.5t-106 28.5q-91 0 -163 -36v-93l5 -170q0 -19 3.5 -26t17.5 -10l95 -18q0 -20 -4 -35h-322z" />
    <glyph glyph-name="afii10061" unicode="&#x40c;" horiz-adv-x="728" 
d="M313 776l-10 34q122 45 219 110l31 -71q-144 -63 -240 -73zM27 0q-3 25 -3 29l66 23q36 13 38 67l2 154v354q0 20 -8 38t-22 24l-60 21q-3 13 1 27h262q4 -21 4 -25l-50 -19q-17 -7 -26.5 -27.5t-9.5 -43.5v-341l2 -188q0 -30 20 -36l66 -21q0 -22 -5 -36h-277zM706 -13
q-126 0 -203 85l-256 285v24l244 251q20 20 20 36q0 19 -17 24l-48 15q0 19 4 30h206v-30l-319 -303l243 -269q75 -83 132 -116z" />
    <glyph glyph-name="uni040D" unicode="&#x40d;" horiz-adv-x="850" 
d="M39 0q-5 23 -4 30l58 21q20 8 31.5 32t11.5 48l2 142v352q0 55 -30 64l-73 21q0 12 4 27h272q5 -23 4 -31l-56 -13q-20 -5 -25.5 -13t-5.5 -28v-425l390 367v55q0 18 -9 26.5t-32 16.5l-49 18q0 23 1 27h262q0 -22 -2 -31l-52 -12q-17 -5 -23 -12.5t-6 -26.5v-382l4 -175
q0 -36 19 -40l84 -19q0 -25 -5 -39h-286q-5 24 -4 34l42 12q54 15 54 83l2 144v247l-390 -367l2 -54q1 -31 24 -37l96 -26q0 -22 -5 -36h-306zM523 776q-96 10 -240 73l31 71q97 -65 219 -110z" />
    <glyph glyph-name="afii10062" unicode="&#x40e;" horiz-adv-x="706" 
d="M215 -38l-39 93q69 18 102 36q34 19 63 85l-260 461q-21 32 -38 47t-50 29q0 17 2 24h255q5 -25 5 -26l-51 -19q-15 -6 -15 -28q0 -21 12 -43l187 -337l128 329q9 23 9 37q0 25 -17 34l-56 27q0 19 3 26h225q3 -14 3 -27q-5 -2 -19 -7t-21.5 -8.5t-18 -9.5t-17.5 -14
t-12 -18l-197 -483q-41 -91 -83.5 -140t-99.5 -68zM326 795q-52 0 -86.5 21t-34.5 66q0 23 19.5 43t46.5 29q3 -7 10.5 -23t11 -22.5t10.5 -18t12.5 -16.5t14 -9.5t17.5 -4.5q76 -2 195 72l20 -23q-31 -33 -101 -73.5t-135 -40.5z" />
    <glyph glyph-name="afii10145" unicode="&#x40f;" horiz-adv-x="823" 
d="M366 -183l2 183h-322q-5 23 -4 30l58 21q20 8 31.5 32t11.5 48l2 142v352q0 55 -30 64l-73 21q0 12 4 27h272q5 -23 4 -31l-56 -13q-20 -5 -25.5 -13t-5.5 -28v-379l4 -221h348l4 221v342q0 22 -11 46t-30 31l-49 18q0 23 1 27h262q0 -22 -2 -31l-52 -12
q-17 -5 -23 -12.5t-6 -26.5v-382l4 -175q0 -36 19 -40l84 -19q0 -25 -5 -39h-325l2 -183h-94z" />
    <glyph glyph-name="afii10017" unicode="&#x410;" horiz-adv-x="733" 
d="M27 0q-4 11 -4 30l24 19q25 19 43 61l258 629l72 26l212 -638q19 -54 52 -82l17 -15q0 -16 -5 -30h-264q-3 22 -3 30l71 21q18 5 25 29t0 46l-55 190h-236l-76 -200q-8 -23 4.5 -41.5t42.5 -28.5l51 -16q0 -16 -5 -30h-224zM253 367h202l-65 221l-20 78h-7l-25 -76z" />
    <glyph glyph-name="afii10018" unicode="&#x411;" horiz-adv-x="646" 
d="M32 0q-4 27 -3 34l68 18q17 4 27.5 21t11.5 38l3 172v363q0 31 -24 40l-71 26q-2 17 1 25h498v-153q-22 -4 -39 1q-10 42 -28 64.5t-62 25.5l-185 11v-265h123q116 0 180 -54.5t64 -153.5q0 -88 -67 -150.5t-196 -62.5h-301zM233 52h102q77 0 119.5 40.5t42.5 121.5
q0 80 -49.5 118t-152.5 38h-66v-89z" />
    <glyph glyph-name="afii10019" unicode="&#x412;" horiz-adv-x="681" 
d="M32 0q-4 27 -3 34l68 18q17 4 27.5 21t11.5 38l3 172v363q0 31 -24 40l-71 26q-2 16 2 25h285q239 0 239 -174q0 -59 -34.5 -98.5t-79.5 -60.5v-3q25 -4 49 -14t52.5 -29t46 -54.5t17.5 -82.5q0 -96 -63.5 -158.5t-195.5 -62.5h-330zM233 52h122q163 0 163 156
q0 79 -49.5 114t-153.5 35h-86v-76zM229 408h99q137 0 139 143q0 138 -167 138h-71v-281z" />
    <glyph glyph-name="afii10020" unicode="&#x413;" horiz-adv-x="599" 
d="M40 0q-4 12 -1 30l56 18q17 5 27.5 23t11.5 40l3 162v373q0 31 -24 40l-73 26q-1 11 3 25h508v-153q-22 -4 -39 1q-10 42 -28 64.5t-62 25.5l-196 11v-414l4 -174v-4q0 -10 0.5 -14.5t5.5 -9t15 -6.5l114 -23q0 -30 -4 -41h-321z" />
    <glyph glyph-name="afii10021" unicode="&#x414;" horiz-adv-x="745" 
d="M17 -183v235h82q51 78 91 239q45 182 51 342q2 46 -25 55l-58 22q0 12 4 27h520q0 -22 -2 -31l-52 -12q-17 -5 -23 -12.5t-6 -26.5v-381l5 -222h106v-233q-26 -5 -38 1l-8 30.5t-11 35.5t-16.5 42.5t-19.5 34t-27 28.5t-31 9h-370q-36 0 -61.5 -13.5t-38 -38t-18.5 -45.5
t-10 -49.5t-6 -35.5q-12 -6 -38 -1zM178 52h327l4 222v411h-203l-20 -188q-13 -124 -42 -247q-28 -119 -66 -198z" />
    <glyph glyph-name="afii10022" unicode="&#x415;" horiz-adv-x="641" 
d="M32 0q-4 27 -3 35l68 18q37 10 39 58l3 163v372q0 31 -24 40l-75 26q-1 9 5 25h508v-146q-3 -1 -42 -1q-9 47 -26.5 68t-53.5 22l-202 6v-290l272 5v-62l-272 5v-71l5 -221l198 3q50 1 82 31.5t46 71.5l34 -7l-18 -151h-544z" />
    <glyph glyph-name="afii10024" unicode="&#x416;" horiz-adv-x="1023" 
d="M363 0q-3 25 -3 29l66 23q36 13 38 67l2 154v354q0 20 -8 38t-22 24l-60 21q-3 13 1 27h262q4 -21 4 -25l-50 -19q-17 -7 -26.5 -27.5t-9.5 -43.5v-341l2 -188q0 -30 20 -36l66 -21q0 -22 -5 -36h-277zM1015 -13q-134 0 -203 85l-229 284v24l234 247q20 21 20 41
q0 19 -17 24l-48 15q0 19 4 30h198v-30l-301 -307l216 -265q61 -75 132 -116zM8 -13l-6 32q71 41 132 116l216 265l-301 307v30h198q4 -11 4 -30l-48 -15q-17 -5 -17 -24q0 -18 20 -41l234 -247v-24l-229 -284q-69 -85 -203 -85z" />
    <glyph glyph-name="afii10025" unicode="&#x417;" horiz-adv-x="582" 
d="M261 -12q-128 0 -212 53l34 71q100 -61 192 -61q69 0 111.5 40.5t42.5 114.5q0 69 -43 105t-116 36q-31 0 -93 -4v73q30 -3 82 -3q65 0 102 42.5t37 106.5q0 61 -35 98t-90 37q-65 0 -107.5 -33t-53.5 -91h-35v140q84 41 204 41q97 0 159.5 -48.5t62.5 -137.5
q0 -58 -39 -111.5t-92 -65.5v-1q71 -10 116.5 -52t45.5 -111q0 -114 -75.5 -176.5t-197.5 -62.5z" />
    <glyph glyph-name="afii10026" unicode="&#x418;" horiz-adv-x="850" 
d="M39 0q-5 23 -4 30l58 21q20 8 31.5 32t11.5 48l2 142v352q0 55 -30 64l-73 21q0 12 4 27h272q5 -23 4 -31l-56 -13q-20 -5 -25.5 -13t-5.5 -28v-425l390 367v55q0 18 -9 26.5t-32 16.5l-49 18q0 23 1 27h262q0 -22 -2 -31l-52 -12q-17 -5 -23 -12.5t-6 -26.5v-382l4 -175
q0 -36 19 -40l84 -19q0 -25 -5 -39h-286q-5 24 -4 34l42 12q54 15 54 83l2 144v247l-390 -367l2 -54q1 -31 24 -37l96 -26q0 -22 -5 -36h-306z" />
    <glyph glyph-name="afii10027" unicode="&#x419;" horiz-adv-x="849" 
d="M39 0q-5 23 -4 30l58 21q20 8 31.5 32t11.5 48l2 142v352q0 55 -30 64l-73 21q0 12 4 27h272q5 -23 4 -31l-56 -13q-20 -5 -25.5 -13t-5.5 -28v-425l390 367v55q0 18 -9 26.5t-32 16.5l-49 18q0 23 1 27h262q0 -22 -2 -31l-52 -12q-17 -5 -23 -12.5t-6 -26.5v-382l4 -175
q0 -36 19 -40l84 -19q0 -25 -5 -39h-286q-5 24 -4 34l42 12q54 15 54 83l2 144v247l-390 -367l2 -54q1 -31 24 -37l96 -26q0 -22 -5 -36h-306zM394 795q-52 0 -86.5 21t-34.5 66q0 23 19.5 43t46.5 29q3 -7 10.5 -23t11 -22.5t10.5 -18t12.5 -16.5t14 -9.5t17.5 -4.5
q76 -2 195 72l20 -23q-31 -33 -101 -73.5t-135 -40.5z" />
    <glyph glyph-name="afii10028" unicode="&#x41a;" horiz-adv-x="728" 
d="M27 0q-3 25 -3 29l66 23q36 13 38 67l2 154v354q0 20 -8 38t-22 24l-60 21q-3 13 1 27h262q4 -21 4 -25l-50 -19q-17 -7 -26.5 -27.5t-9.5 -43.5v-341l2 -188q0 -30 20 -36l66 -21q0 -22 -5 -36h-277zM706 -13q-126 0 -203 85l-256 285v24l244 251q20 20 20 36
q0 19 -17 24l-48 15q0 19 4 30h206v-30l-319 -303l243 -269q75 -83 132 -116z" />
    <glyph glyph-name="afii10029" unicode="&#x41b;" horiz-adv-x="722" 
d="M59 -22l-33 91q90 23 126 68q32 39 56 200.5t24 287.5q0 52 -34 64l-57 21q0 12 4 27h518q0 -22 -2 -31l-52 -12q-17 -5 -23 -12.5t-6 -26.5v-382l4 -175q0 -36 19 -40l84 -19q0 -25 -5 -39h-286q-5 24 -4 34l42 12q29 8 41.5 36t12.5 57l2 134v412h-191
q-29 -445 -80 -563q-23 -54 -67.5 -93.5t-92.5 -50.5z" />
    <glyph glyph-name="afii10030" unicode="&#x41c;" horiz-adv-x="1016" 
d="M463 -21l-221 630h-6l-2 -50l-70 -464q-5 -28 11 -32l94 -30q0 -22 -4 -33h-245q-5 23 -4 30l36 18q20 10 34.5 32t18.5 46l81 507q3 17 -6 34t-23 22l-63 21q0 12 4 27h191l161 -445l55 -166h9l55 150l181 461h174q4 -21 4 -25l-49 -17q-43 -14 -36 -79l62 -512
q2 -16 12.5 -30.5t23.5 -19.5l45 -22q0 -17 -4 -32h-257l-4 30l44 13q38 11 38 75q0 13 -2 35l-42 395l-3 53h-6l-228 -603z" />
    <glyph glyph-name="afii10031" unicode="&#x41d;" horiz-adv-x="850" 
d="M29 0q-5 23 -4 30l58 21q20 8 31.5 32t11.5 48l2 142v352q0 55 -30 64l-73 21q0 12 4 27h272q5 -23 4 -31l-56 -13q-20 -5 -25.5 -13t-5.5 -28v-256h390v219q0 22 -11 46t-30 31l-49 18q0 23 1 27h262q0 -22 -2 -31l-52 -12q-17 -5 -23 -12.5t-6 -26.5v-382l4 -175
q0 -36 19 -40l84 -19q0 -25 -5 -39h-286q-5 24 -4 34l42 12q29 8 41.5 36t12.5 57l2 134v71h-390v-71l4 -174q1 -32 22 -37l96 -26q0 -22 -5 -36h-306z" />
    <glyph glyph-name="afii10032" unicode="&#x41e;" horiz-adv-x="818" 
d="M401 -12q-163 0 -254.5 94t-91.5 257q0 171 102.5 290t262.5 119q166 0 254.5 -94t88.5 -254q0 -110 -42.5 -203t-126.5 -151t-193 -58zM404 47q68 0 118 26.5t77.5 72.5t40.5 101.5t13 121.5q0 88 -23.5 158t-79.5 117t-139 47q-65 0 -114 -26.5t-77 -72.5t-41.5 -101
t-13.5 -120q0 -63 13 -118.5t40 -103t74.5 -75t111.5 -27.5z" />
    <glyph glyph-name="afii10033" unicode="&#x41f;" horiz-adv-x="831" 
d="M29 0q-5 23 -4 30l58 21q20 8 31.5 32t11.5 48l2 142v352q0 55 -30 64l-73 21q0 12 4 27h737q0 -22 -2 -31l-52 -12q-17 -5 -23 -12.5t-6 -26.5v-382l4 -175q0 -36 19 -40l84 -19q0 -25 -5 -39h-286q-5 24 -4 34l42 12q29 8 41.5 36t12.5 57l2 134v412h-375v-412l4 -174
q1 -32 22 -37l96 -26q0 -22 -5 -36h-306z" />
    <glyph glyph-name="afii10034" unicode="&#x420;" horiz-adv-x="617" 
d="M42 0q-3 25 -3 30l58 18q17 5 27.5 23t11.5 39l3 173v363q0 31 -24 40l-75 26q-1 9 5 25h323q109 0 169 -54t60 -162q0 -102 -71.5 -171.5t-208.5 -69.5h-20v48l25 1q84 3 130 46t46 126q0 77 -38.5 129.5t-116.5 53.5l-114 2v-403l4 -186q0 -30 21 -35l102 -27
q0 -24 -4 -35h-310z" />
    <glyph glyph-name="afii10035" unicode="&#x421;" horiz-adv-x="672" 
d="M420 -7q-176 0 -270.5 94.5t-94.5 277.5q0 94 45.5 181.5t130 145t185.5 57.5q30 0 55.5 -2t41.5 -4t34.5 -7.5t24.5 -7.5t22.5 -9t18.5 -8v-146h-35q-43 121 -166 121q-119 0 -189 -73t-70 -228q0 -150 80 -237t205 -87q84 0 165 22l13 -43q-31 -15 -45 -21t-58 -16
t-93 -10z" />
    <glyph glyph-name="afii10036" unicode="&#x422;" horiz-adv-x="632" 
d="M156 0q-5 24 -4 35l74 19q16 4 28 25.5t13 43.5l3 136v424h-151q-64 0 -83 -100q-14 -3 -32 3v151h624v-151q-14 -4 -31 -3q-19 100 -94 100h-142v-424l5 -170q0 -19 3.5 -26t17.5 -10l95 -18q0 -20 -4 -35h-322z" />
    <glyph glyph-name="afii10037" unicode="&#x423;" horiz-adv-x="706" 
d="M215 -38l-39 93q69 18 102 36q34 19 63 85l-260 461q-21 32 -38 47t-50 29q0 17 2 24h255q5 -25 5 -26l-51 -19q-15 -6 -15 -28q0 -21 12 -43l187 -337l128 329q9 23 9 37q0 25 -17 34l-56 27q0 19 3 26h225q3 -14 3 -27q-5 -2 -19 -7t-21.5 -8.5t-18 -9.5t-17.5 -14
t-12 -18l-197 -483q-41 -91 -83.5 -140t-99.5 -68z" />
    <glyph glyph-name="afii10038" unicode="&#x424;" horiz-adv-x="777" 
d="M534 0h-279q-4 22 -3 30l53 21q36 14 38 62v9q-150 0 -236.5 61.5t-86.5 186.5q0 124 91 203.5t232 80.5v13q-2 23 -13 36.5t-37 22.5l-40 15q-3 13 1 27h262q4 -19 3 -31l-41 -9q-38 -8 -43 -55q-1 -5 -1 -16q148 0 235.5 -65.5t87.5 -182.5q0 -125 -89 -205.5
t-234 -80.5v-34q1 -19 5.5 -26t19.5 -10l80 -17q0 -22 -5 -36zM434 172q108 1 161.5 62t53.5 162q0 98 -55.5 153.5t-159.5 55.5v-433zM343 172v432q-101 0 -158 -62.5t-57 -159.5q0 -99 54.5 -154t160.5 -56z" />
    <glyph glyph-name="afii10039" unicode="&#x425;" horiz-adv-x="697" 
d="M11 0q-3 25 -3 30l38 18q43 20 86 78l172 240l-165 257q-5 8 -11 15t-14 14.5t-14 12.5t-16.5 12t-15 9.5t-17 10.5t-14.5 9q-7 12 -2 31h245q3 -26 3 -31l-41 -18q-10 -4 -11 -17.5t10 -30.5l123 -190l131 184q10 14 10 30t-11 21l-44 22q0 23 2 30h221q1 -6 -1 -30
q-32 -8 -67 -30t-52 -47l-158 -227l183 -282q22 -34 42.5 -50t68.5 -41q0 -19 -4 -30h-255q-3 25 -3 30l42 23q28 15 2 52l-136 212l-143 -205q-9 -13 -9 -29q0 -20 14 -26l58 -27q0 -19 -4 -30h-240z" />
    <glyph glyph-name="afii10040" unicode="&#x426;" horiz-adv-x="827" 
d="M792 -181q-26 -5 -38 1l-8 30.5t-11 35.5t-16.5 42.5t-19.5 34t-27 28.5t-31 9h-595q-5 23 -4 30l58 21q20 8 31.5 32t11.5 48l2 142v352q0 55 -30 64l-73 21q0 12 4 27h272q5 -23 4 -31l-56 -13q-20 -5 -25.5 -13t-5.5 -28v-379l5 -221h347l4 221v342q0 22 -11 46
t-30 31l-49 18q0 23 1 27h262q0 -22 -2 -31l-52 -12q-17 -5 -23 -12.5t-6 -26.5v-382l5 -221h106v-233z" />
    <glyph glyph-name="afii10041" unicode="&#x427;" horiz-adv-x="724" 
d="M398 0q-5 24 -4 34l42 12q29 8 41.5 36t12.5 57l2 134v65q-104 -42 -206 -42q-106 0 -145.5 47t-39.5 137v145q0 54 -30 64l-63 21q0 12 4 27h262q5 -23 4 -31l-56 -13q-20 -5 -25.5 -13t-5.5 -28v-172q0 -68 32 -96.5t106 -28.5q91 0 163 36v224q0 22 -11 46t-30 31
l-49 18q0 23 1 27h262q0 -22 -2 -31l-52 -12q-17 -5 -23 -12.5t-6 -26.5v-382l4 -175q0 -36 19 -40l84 -19q0 -25 -5 -39h-286z" />
    <glyph glyph-name="afii10042" unicode="&#x428;" horiz-adv-x="1078" 
d="M46 0q-5 23 -4 30l58 21q20 8 31.5 32t11.5 48l2 142v352q0 55 -30 64l-73 21q0 12 4 27h272q5 -23 4 -31l-56 -13q-20 -5 -25.5 -13t-5.5 -28v-379l5 -221h251l4 221v342q0 63 -33 75l-57 20q0 23 1 27h262q0 -22 -2 -31l-52 -12q-17 -5 -23 -12.5t-6 -26.5v-382l6 -221
h250l4 221v342q0 22 -11 46t-30 31l-49 18q0 23 1 27h262q0 -22 -2 -31l-52 -12q-17 -5 -23 -12.5t-6 -26.5v-382l4 -175q0 -36 19 -40l84 -19q0 -25 -5 -39h-991z" />
    <glyph glyph-name="afii10043" unicode="&#x429;" horiz-adv-x="1081" 
d="M1046 -181q-26 -5 -38 1l-8 30.5t-11 35.5t-16.5 42.5t-19.5 34t-27 28.5t-31 9h-849q-5 23 -4 30l58 21q20 8 31.5 32t11.5 48l2 142v352q0 55 -30 64l-73 21q0 12 4 27h272q5 -23 4 -31l-56 -13q-20 -5 -25.5 -13t-5.5 -28v-379l5 -221h251l4 221v342q0 63 -33 75
l-57 20q0 23 1 27h262q0 -22 -2 -31l-52 -12q-17 -5 -23 -12.5t-6 -26.5v-382l6 -221h250l4 221v342q0 22 -11 46t-30 31l-49 18q0 23 1 27h262q0 -22 -2 -31l-52 -12q-17 -5 -23 -12.5t-6 -26.5v-382l5 -221h106v-233z" />
    <glyph glyph-name="afii10044" unicode="&#x42a;" horiz-adv-x="712" 
d="M134 0q-4 27 -3 34l68 18q17 4 27.5 21t11.5 38l3 172v397l-95 -5q-44 -3 -62 -25.5t-28 -64.5q-17 -5 -39 -1v153h397q5 -23 4 -31l-56 -13q-20 -5 -25.5 -13t-5.5 -28v-231h113q116 0 180 -54.5t64 -153.5q0 -88 -67 -150.5t-196 -62.5h-291zM335 52h92
q77 0 119.5 40.5t42.5 121.5q0 80 -49.5 118t-152.5 38h-56v-89z" />
    <glyph glyph-name="afii10045" unicode="&#x42b;" horiz-adv-x="920" 
d="M38 0q-4 27 -3 34l68 18q17 4 27.5 21t11.5 38l3 172v363q0 31 -24 40l-71 26q-2 17 1 25h267q5 -23 4 -31l-56 -13q-20 -5 -25.5 -13t-5.5 -28v-231h113q116 0 180 -54.5t64 -153.5q0 -88 -67 -150.5t-196 -62.5h-291zM239 52h92q77 0 119.5 40.5t42.5 121.5
q0 80 -49.5 118t-152.5 38h-56v-89zM595 0q-3 25 -3 30l53 21q36 14 38 69l2 153v344q0 61 -50 78l-40 15q-3 13 1 27h262q4 -19 3 -31l-41 -9q-22 -5 -33 -27.5t-11 -49.5v-347l3 -184q0 -19 4.5 -26t20.5 -10l80 -17q0 -22 -5 -36h-284z" />
    <glyph glyph-name="afii10046" unicode="&#x42c;" horiz-adv-x="616" 
d="M38 0q-4 27 -3 34l68 18q17 4 27.5 21t11.5 38l3 172v363q0 31 -24 40l-71 26q-2 17 1 25h267q5 -23 4 -31l-56 -13q-20 -5 -25.5 -13t-5.5 -28v-231h113q116 0 180 -54.5t64 -153.5q0 -88 -67 -150.5t-196 -62.5h-291zM239 52h92q77 0 119.5 40.5t42.5 121.5
q0 80 -49.5 118t-152.5 38h-56v-89z" />
    <glyph glyph-name="afii10047" unicode="&#x42d;" horiz-adv-x="697" 
d="M280 -12q-56 0 -114 16.5t-99 42.5l37 73q105 -67 203 -67q99 0 158.5 72.5t67.5 217.5l-346 -6v66l345 -6q-9 151 -74.5 222.5t-168.5 71.5q-80 0 -121.5 -30.5t-60.5 -96.5h-35v146q99 38 224 38q159 0 253 -88t94 -266q0 -105 -42 -196.5t-126.5 -150.5t-194.5 -59z
" />
    <glyph glyph-name="afii10048" unicode="&#x42e;" horiz-adv-x="1149" 
d="M732 -12q-163 0 -254.5 94t-91.5 257v5h-157v-71l4 -174q1 -32 22 -37l96 -26q0 -22 -5 -36h-306q-5 23 -4 30l58 21q20 8 31.5 32t11.5 48l2 142v352q0 55 -30 64l-73 21q0 12 4 27h272q5 -23 4 -31l-56 -13q-20 -5 -25.5 -13t-5.5 -28v-256h160q18 152 117 252t245 100
q166 0 254.5 -94t88.5 -254q0 -110 -42.5 -203t-126.5 -151t-193 -58zM735 47q68 0 118 26.5t77.5 72.5t40.5 101.5t13 121.5q0 88 -23.5 158t-79.5 117t-139 47q-65 0 -114 -26.5t-77 -72.5t-41.5 -101t-13.5 -120q0 -63 13 -118.5t40 -103t74.5 -75t111.5 -27.5z" />
    <glyph glyph-name="afii10049" unicode="&#x42f;" horiz-adv-x="695" 
d="M23 -18l-10 35q49 16 78 42q66 60 172 262q-26 6 -51.5 19t-50 34t-39.5 55.5t-15 76.5q0 75 39.5 129.5t95.5 78t118 23.5h275q0 -22 -2 -31l-52 -12q-17 -5 -23 -12.5t-6 -26.5v-382l4 -175q0 -36 19 -40l84 -19q0 -25 -5 -39h-286q-5 24 -4 34l42 12q29 8 41.5 36
t12.5 57l2 134v36h-106q-2 -4 -36.5 -66.5t-65.5 -112.5t-65 -93q-39 -50 -166 -55zM376 361h86v324h-87q-83 0 -127 -49.5t-43 -119.5q0 -75 46.5 -115t124.5 -40z" />
    <glyph glyph-name="afii10065" unicode="&#x430;" horiz-adv-x="581" 
d="M172 -8q-57 0 -94.5 33t-37.5 94q0 36 15.5 64.5t37 45t56.5 29.5t61.5 18t65.5 11l84 11v92q0 59 -32 84t-106 25q-64 0 -133 -21l-12 40q96 39 172 39q30 0 49 -1t50.5 -9t50 -22t33 -42.5t14.5 -69.5v-140l7 -209h104l5 -29q-12 -12 -57 -26.5t-71 -14.5
q-25 0 -40.5 7t-22 21.5t-8.5 26t-2 30.5q-84 -87 -189 -87zM208 66q72 0 152 40v147l-78 -11q-149 -20 -149 -107q0 -27 18 -48t57 -21z" />
    <glyph glyph-name="afii10066" unicode="&#x431;" horiz-adv-x="576" 
d="M279 -7q-240 0 -240 323q0 110 29.5 228t73.5 171q19 23 80 40t127.5 29.5t84.5 20.5q22 10 34.5 20.5t31.5 34.5l21 -11q-33 -105 -72 -130q-32 -20 -138.5 -26t-122.5 -17q-25 -18 -45 -187q101 65 192 65q197 0 197 -261q0 -117 -72 -208.5t-181 -91.5zM295 53
q45 0 74.5 19t43 55t17.5 70t4 82q0 209 -130 209q-87 0 -165 -41q-4 -51 -4 -122v-39q0 -50 7 -89t24 -73t49.5 -52.5t79.5 -18.5z" />
    <glyph glyph-name="afii10067" unicode="&#x432;" horiz-adv-x="588" 
d="M49 0q-1 5 -3 13t-1 15l46 21q32 15 34 68l3 156v175q0 42 -29 54l-52 12q0 17 3 32h251q107 0 159.5 -31.5t52.5 -98.5q0 -46 -29.5 -82t-74.5 -47v-3q52 -5 91 -38t39 -90q0 -69 -50 -112.5t-166 -43.5h-274zM218 52h93q62 0 96.5 29t34.5 81q0 96 -164 96h-63v-45z
M215 307h74q66 0 96.5 28t30.5 67q0 47 -36 70.5t-98 23.5h-67v-189z" />
    <glyph glyph-name="afii10068" unicode="&#x433;" horiz-adv-x="513" 
d="M33 0q-3 22 -3 30l63 22q11 4 21 22t11 32l3 166v176q0 42 -29 54l-52 12q0 17 3 32h427v-152q-24 -5 -34 1q-6 27 -12.5 43t-24.5 31.5t-46 17.5l-145 7v-222l3 -197q0 -19 17 -22l87 -16q0 -23 -5 -37h-284z" />
    </font>
</defs>
</svg>
